<svg width="111" height="116" viewBox="0 0 111 116" fill="none" xmlns="http://www.w3.org/2000/svg">
<path d="M49.3765 9.50723L49.4605 9.53421L49.6485 9.55722L50.0945 9.66422L50.6765 9.78522L50.8355 9.74323L50.9305 9.65823L50.9525 9.40921L50.9706 9.23322L50.8395 9.07822L50.6765 8.90222L50.5266 8.68323L50.3465 8.62021L50.3695 8.50723L50.4865 8.39023L50.6065 8.32623L50.6755 8.24722L50.7515 7.95523L50.8015 7.90323L50.8525 7.89023L50.9125 7.90121L51.0315 7.97723L51.4895 8.20923L51.6905 8.17422L52.4585 8.11322L52.5745 7.97922L52.7375 7.94922L53.0135 7.81522L53.1225 7.80621L53.2206 7.83823L53.3435 7.81323L53.5245 7.68823L53.6005 7.67523L53.6295 7.81323L53.7466 7.95624L53.8885 8.08722L53.9565 8.11722L54.1945 8.07523L54.3195 8.11221L54.3735 8.23422L54.3895 8.34021L54.4895 8.43024L54.6175 8.43222L54.6855 8.46924L54.8026 8.52722L54.9016 8.66022L55.1315 8.76624L55.5245 8.91422L55.7076 8.91623L55.8775 8.96121L55.9815 9.00623L56.0945 8.92322L56.4966 8.69421L56.6925 8.56622L56.8245 8.46924L56.9235 8.37723L56.9975 8.35321L57.0475 8.40823L57.0905 8.48224L57.2345 8.52524L57.5705 8.61124L57.7245 8.63522L57.9405 8.56223L58.1255 8.43723L58.2135 8.39423L58.3505 8.51923L58.4445 8.69421L58.5075 8.77121L58.6465 8.75323L58.9215 8.78021L59.1245 8.83621L59.2505 8.83124L59.4225 8.75323L59.5155 8.59921L59.7595 8.45822L59.9915 8.32822L60.1245 8.15521L60.3215 7.86722L60.3875 7.74423L60.4016 7.53622L60.6785 6.93222L60.7835 6.82123L60.8456 6.63022L60.9565 6.40921V6.22421L61.0375 6.04523L61.1965 5.89124L61.3135 5.79422L61.5015 5.53421L61.6325 5.28922L61.9595 4.74622L61.9845 4.59222L62.1145 4.50021L62.1575 4.38321L62.2965 4.23822L62.4425 4.12424L62.5055 3.95523L62.6125 3.78021L62.8465 3.64923L62.9335 3.58923L63.1995 3.10724L63.2295 2.89221L63.4695 2.88422L63.8465 3.13321L64.1475 3.50021L64.5505 4.67923L64.6175 5.76822L64.7805 6.33823L65.2495 7.52621L65.2795 7.74622L65.3545 8.01224L65.5025 8.29422L65.6665 8.75821L65.6725 8.84424L65.5665 8.97021L65.7225 8.97922L65.8635 9.05423L65.9555 9.34824L66.0725 9.54721L66.2845 9.81921L66.7185 9.90823L67.0465 9.94122L67.4195 10.0952L67.6935 10.2922L67.9055 10.9612L67.8365 11.3812L67.8575 11.6772L67.7475 11.7932L67.4405 11.9872L67.3735 12.0902L66.7466 12.5902L66.6095 12.8262L66.2735 13.1432L65.9405 13.7472L65.4535 14.2992L65.2815 14.4392L65.0185 14.4712L64.8586 14.5562L64.4805 15.0072L63.9725 15.1572L63.9255 15.4182L63.6325 16.0142L63.3735 16.3402L63.2085 16.4502L62.7935 17.0442L62.7405 17.3042L62.7425 17.7592L62.4655 18.0362L62.1776 18.2122L62.1415 18.6012L62.0115 18.7342L61.9005 18.8202L61.3145 18.7182L60.4045 19.1412L60.0935 19.2462L61.0865 19.2672L61.4055 19.4922L62.1045 19.3432L62.9505 18.8072L63.2735 18.6942L63.9295 18.3302L64.1965 18.0872L64.6825 17.7962L64.7865 17.6682L65.0585 17.5322L65.2065 17.7052L65.2185 17.8142L64.9945 18.0272L65.0526 18.1642L65.1995 18.3362L65.2525 18.5742L65.2725 18.7552L65.3635 19.0722L65.6646 19.5012L65.6745 19.6432L65.6325 19.8302L65.7766 19.9842L65.9255 20.0752L66.4375 20.5372L66.8375 20.2792L67.0845 20.2042L67.2415 20.0962L67.5715 20.0242L67.8415 20.1322L68.3565 20.2872L68.7336 20.1222L69.4955 19.7442L69.2575 20.4132L69.0845 21.0272L68.9535 21.2752L68.8235 21.9432L68.6955 22.1222L68.5915 22.3262L68.7615 22.2552L68.9075 22.1582L69.0945 21.9012L69.2345 21.4542L69.7865 20.2612L69.9445 20.1552L70.4035 20.0192L71.1935 19.0652L71.5025 19.0682L71.7005 19.2872L71.8875 19.4172L71.9355 19.1562L72.2055 19.0502L71.9205 18.9212L71.8745 18.8042L71.8475 18.6092L72.0415 18.3452L71.9255 18.1112L72.3275 17.8172L72.2965 17.5962L72.4405 17.4142L72.6225 17.2262L72.8285 17.1352L72.8665 16.9742L72.9966 16.9082L73.0985 16.8842L73.2995 17.0642L73.5175 16.8522L73.7295 16.7692L73.8245 16.8062L73.9435 16.9002L74.0685 16.9402L74.1695 16.9232L74.4325 16.7872L74.6755 17.0062L74.8215 17.0542L74.7815 16.9312L74.7045 16.8172L74.7645 16.7242L74.8795 16.6662L75.2435 16.7182L75.4345 16.8162L75.6415 16.9972L75.9285 17.0102L76.1545 16.9912L76.2965 17.0932L76.5275 17.0922L76.6435 17.2512L76.9955 17.4742L77.0715 17.6252L77.3545 17.6982L77.6205 17.7912L77.9035 17.8162L78.1895 17.7942L78.2015 17.9852L78.4105 18.0372L78.6795 17.9952L78.8825 18.2302L79.4255 18.4072L79.8015 18.6782L80.0485 18.6302L80.3245 18.7022L80.6205 19.2912L80.6875 19.7092L80.8195 19.6512L80.9425 19.4642L81.1005 19.1222L81.3975 19.0092L81.5396 19.1402L81.8365 19.3502L82.0925 19.5802L82.2005 19.7282L82.3935 19.7522L82.2325 19.9342L82.3945 19.9152L82.5895 19.7862L82.7565 20.0542L82.8825 20.3462L82.9075 20.6432L82.7885 20.8132L82.6845 20.9202L82.5685 21.1302L82.4315 21.1682L82.2945 21.2362L82.4505 21.3892L82.5575 21.5362L82.7915 21.1382L82.9565 21.0262L83.1945 20.9642L83.3185 21.2472L83.3445 21.5152L82.9565 21.6262L82.9555 21.8372L82.8395 21.9572L82.7635 22.0952L82.7025 22.3832L82.6235 22.6222L82.3925 23.6822L82.3885 23.8572L82.6705 23.6702L83.1905 23.1302L83.3485 22.5552L83.5535 21.9882L83.7766 21.8102H83.9155L84.1225 21.8722L84.1345 22.0582L84.1025 22.1652L83.8805 22.4472L83.7865 22.6012L83.8775 22.7532L84.3805 22.2862L84.6065 22.1222L84.7985 22.1552L85.1795 21.9392L85.9475 21.8942L86.0055 21.6472L86.1585 21.5422L86.5805 21.5702L87.4025 21.7902L87.6955 21.9702L88.1345 22.1372L88.3655 22.3362L89.3305 22.7022L90.0315 22.7412L90.3785 22.5752L90.8115 22.7492L91.0405 22.9442L91.4905 23.0492L91.9445 23.1042L92.2915 22.9642L93.1875 22.9182L94.3125 22.7112L94.9836 22.7602L95.7435 22.8952L96.2855 23.2422L96.7415 23.4382L97.0175 23.6312L97.4625 23.8322L98.4115 24.3712L98.7445 24.6832L99.3326 25.1072L99.9235 25.2852L100.243 25.7292L100.496 25.9292L101.122 26.6792L101.832 27.2042L102.307 27.7292L103.219 28.0672L103.575 28.6252L104.192 28.6932L104.455 28.7762L104.775 29.0112L105.214 29.1422L105.786 29.1052L106.417 29.1322L106.928 29.0222L108.136 29.2312L108.326 29.3342L108.576 29.5712L109.017 30.4562L109.28 31.4382L109.41 32.1892L109.711 32.7732L109.875 33.8712L110.015 34.2172L110.026 34.4842L110.145 34.5442L110.225 35.2862L110.194 35.5852L110.078 35.9742L110.07 36.1482L110.087 36.2582L110.036 36.4212L110.02 36.5772L110.137 36.9272L110.143 37.2072L109.986 37.5472L109.772 38.4362L109.236 39.9112L108.722 40.7592L108.003 41.6352L107.534 42.0932L107.348 42.1402L107.178 42.0492L107.299 42.2912L107.194 42.5042L106.718 43.1502L106.245 43.5722L105.754 44.3062L105.717 44.3232L105.088 44.6072L104.716 44.8392L104.24 45.2612L103.803 45.9272L103.713 46.0122L103.552 45.9652L103.557 46.3032L103.181 46.8392L103.066 46.9182L103.069 46.7662L103.134 46.6502L103.164 46.5272L103.162 46.3812L103.057 46.4872L102.834 46.8892L102.909 47.1832L102.748 47.6282L102.132 48.9002L101.378 49.9712L101.204 50.3022L100.585 51.0252L100.13 51.3742L100.002 51.3762L99.8565 51.3462L99.7835 50.7902L99.4215 50.4542L99.3175 50.3952L99.1695 50.7512L99.0455 50.8492L98.8665 50.8702L99.0575 51.0252L99.1135 51.2052L98.9185 51.5652L98.9125 51.8922L98.5645 52.2532L98.3625 52.5172L98.2605 52.8482L98.1985 53.1572L98.3515 53.0732L98.4245 53.1382L98.4815 53.2342L98.4465 53.3762L98.3345 53.6452L98.3515 54.3142L98.3145 54.4662L98.4255 54.6312L98.5435 54.3502L98.6115 54.4292L98.2825 56.2252L98.4115 57.0352L98.4595 57.9542L98.6075 58.8532L98.7705 59.6572L98.7835 59.7212L98.5585 60.6562L98.2705 61.5802L98.0975 62.3352L97.9885 63.1512L97.8795 63.5442L97.8445 63.9462L97.9695 64.9002L98.0165 65.0812L97.6675 65.5072L97.2905 65.7142L97.0826 65.9202L96.6225 66.6902L96.3725 67.8302L96.3665 68.4372L96.4845 69.7112L96.3965 70.2322L96.2505 70.5812L96.0785 70.8102L95.6395 71.0852L95.2455 71.7562L95.0745 72.4622L94.8045 72.7202L94.7495 73.1162L94.5325 73.5442L93.9695 74.1832L93.6035 74.3692L93.4295 74.5482L93.3185 74.9232L92.9655 75.5412L92.7055 76.3442L92.7735 76.6172L92.7775 76.6592L92.8725 77.5892L92.8375 77.8262L92.4945 78.0832L91.2025 78.5632L90.8586 78.7622L90.0875 79.5802L90.0396 79.7732L90.0715 80.0492L90.1975 80.2082L90.0675 80.3802L89.9135 80.6892L89.6885 80.6702H88.4016L87.7055 80.7682L87.3435 80.7492L87.1805 80.6752L86.9985 80.5542L86.9435 80.3952L87.0425 80.1552L86.9836 80.0122L86.7925 80.0172L86.5835 80.0852L86.5475 80.2282L86.5625 80.3312L86.6405 80.4802L86.6835 80.6642L86.5975 80.8232L86.1895 80.8442L85.7315 80.9902L85.1595 81.0512L84.7035 81.1572L84.4935 81.0232L84.7035 80.9562L85.0055 80.9883L85.3295 80.8772L85.2535 80.7462L84.7955 80.5782L84.2865 80.6812L84.0045 80.8822L83.3875 80.8633L82.6315 81.0162L82.5085 81.1722L82.5295 81.4742L82.6765 81.5403L82.8215 81.6783L82.6825 81.8072L82.5475 81.8642L81.7495 82.0052L81.0095 82.5962L80.7005 82.6702L80.4255 82.9312L80.3975 83.1542L80.3105 83.2892L80.1345 83.2962L79.7485 83.1742L79.2475 83.1712L78.8855 83.2682L77.0365 84.2292L76.3725 84.6152L75.6155 85.4023L74.3385 86.2862L73.6675 86.8152L73.5405 86.9522L73.4345 86.9592L73.2245 87.0692L73.3075 87.1602L73.4505 87.1682L73.3915 87.4772L73.1245 87.6882L72.6235 88.2432L72.5125 88.2022L72.6715 87.9132L72.4255 87.9023L72.0635 87.7962L71.9065 87.9153L71.9935 88.2012L71.8575 88.3242L71.6105 88.3382L71.3865 88.3042L71.1405 88.0952L71.2515 88.4742L71.7715 88.5663L71.9875 88.6552L72.0685 88.8012L71.6646 89.4782L71.3265 89.5663L71.2896 89.6622H71.4755L71.5785 89.8503L71.4576 90.6082L71.2905 90.7522L71.1925 90.7562L71.0956 90.8862L71.2285 91.1342L71.3665 91.3152L71.3475 91.6672L71.2955 91.9582L71.2925 92.2412L71.4665 92.7892L71.5295 93.3522L71.5995 93.5572L71.6395 93.7852L71.5235 93.9982L71.5895 94.3402L71.3915 94.9232L71.4955 95.7652L71.4535 96.5572L71.3755 96.9742L71.2495 97.3002L70.9576 97.7202L70.9515 98.1412L70.3225 98.5342L69.6275 99.0832L68.9855 99.7352L68.2945 100.656L67.4885 102.062L66.7415 104.079L65.8425 105.611L65.4825 106.166L64.9966 106.788L64.3495 107.514L63.4836 108.242L62.5355 108.892L62.1935 109.185L61.8595 109.598L61.7766 109.427L61.8485 109.145L61.8026 108.934L61.7925 108.661L61.9836 108.61L62.2695 108.784L62.4155 108.666L62.5215 108.55L62.8665 108.477L63.5245 107.764L64.0125 107.501L64.2875 107.052L64.3345 106.814L64.3235 106.331L64.4795 106.208L64.8326 106.25L64.9045 106.112L64.8735 105.96L64.9425 105.628L65.4215 105.334L65.6485 104.98L65.5725 104.078L65.6605 104.037L65.8575 104.177L65.9505 104.119L66.0495 103.724L66.0015 103.519L65.7695 103.465L64.9675 103.91L64.7065 103.891L64.6635 103.542L64.2735 103.382L64.1216 103.092L64.0765 102.894L63.9415 102.813L63.9495 103.156L63.9865 103.489L64.3365 103.878L64.2515 104.033L64.0855 104.213L63.9695 104.614L63.9825 105.135L63.8885 104.976L63.7685 104.884L63.7195 105.444L63.4875 105.659L63.4146 105.87L63.4755 106.115L63.3555 106.284L62.7645 106.739L62.1755 107.05L62.0475 107.196L61.9845 107.544L61.8945 107.901L61.6335 108.216L61.4265 108.842L61.4315 109.112L61.5005 109.51L61.6115 109.772L61.4355 109.947L61.1985 110.287L61.0105 110.671L60.5425 112.116L60.1395 112.991L59.8285 113.42L59.3855 113.873L58.1235 115.014L58.0475 114.998L57.8625 114.906L57.7076 114.797L57.6725 114.724L57.6545 114.615L57.6755 114.204L57.6725 113.102L57.7275 112.894L57.8095 112.76L58.0555 112.566L58.2945 112.289L58.5645 111.936L58.8135 111.656L58.7245 111.468L58.5165 111.286L58.1475 111.14L57.7925 110.882L57.4775 110.55L57.3315 110.205L57.1975 109.833L57.0705 109.54L57.0285 109.406L56.9035 109.35L56.7055 109.201L56.5815 109.062L56.4005 108.982L56.0765 108.895L55.7395 108.742L55.3205 108.38L55.0185 107.979L54.8695 107.714L54.7105 107.528L53.8456 107.22L53.4525 106.853L53.2975 106.968L53.0665 106.856L52.8385 106.68L52.7705 106.544L52.6745 106.405L52.5845 106.246L52.5266 106.094L52.2925 105.827L51.9895 105.539L51.8615 105.457L51.7935 105.481L51.7285 105.591L51.6865 105.698L51.5725 105.769L51.4315 105.901L51.2865 106.063L51.1015 106.17L50.8815 106.207L50.7336 106.202L50.7035 106.138L50.6955 105.917L50.7505 105.414L50.6225 105.22L50.4515 105.012L50.2545 104.735L49.6065 104.148L48.7235 103.305L48.4115 103.048L48.1185 103.028L47.8505 103.057L47.6035 103.168L47.4165 103.557L47.3395 103.617L46.8635 103.609L46.3905 103.546L46.2315 103.309L46.3575 103.155L46.8026 102.813L47.0485 102.508L47.0956 102.241L47.3085 102.001L47.6885 101.789L48.1115 101.399L48.5775 100.831L48.8615 100.413L48.9615 100.143L49.1445 99.9352L49.4105 99.7892L49.6425 99.4852L49.8415 99.0232L50.1125 98.6562L50.4565 98.3842L50.6495 98.1582L50.6905 97.9792L50.7875 97.8652L50.9415 97.8152L51.0155 97.7212L51.0105 97.5832L51.0526 97.4892L51.1405 97.4392L51.2885 97.4572L51.4966 97.5422L51.6216 97.5262L51.6646 97.4092L51.6095 97.2752L51.4565 97.1252L51.5145 96.9622L51.9165 96.6982L52.2125 96.5982L52.4005 96.4352L52.5785 96.1762L52.8675 95.9962L53.2665 95.8942L53.3725 95.7972L53.3575 95.6722L53.4395 95.5822L53.6755 95.5172L53.8035 95.3952L53.8245 95.2162L53.9005 95.0502L54.0315 94.8972L54.1776 94.8402L54.3385 94.8792L54.4895 94.8212L54.6315 94.6662L54.8015 94.5942L54.9995 94.6042L55.1015 94.5702L55.4415 94.4982L55.6295 94.3682L55.7835 94.0772L55.9205 93.9652L56.0405 94.0302L56.2475 93.9332L56.5415 93.6742L56.5975 93.6692L56.8145 93.5482L57.0385 93.1003L57.1535 92.8012L57.1265 92.5562L57.0526 92.3812L57.0775 92.1242L57.1516 91.4272L57.1715 91.1422L57.2905 90.9442L57.2825 90.7482L57.0705 90.3082L56.8565 89.9222L56.7415 89.2692L56.6655 89.0212L56.4875 88.9552L56.3255 88.7392L56.1216 88.7202L56.0255 88.6372L55.9265 88.5692L55.7815 88.5892L55.6575 88.7152L55.4285 88.7192L55.2835 88.7712L55.1135 88.8832L54.9515 88.8322L54.8495 88.7332L54.6305 88.7322L54.6455 88.2892L55.0315 87.6332L55.1355 87.3282L55.0855 87.1552L55.2005 86.5462L55.4815 85.5042L55.5715 84.8232L55.4695 84.5022L55.4665 84.2782L55.6115 84.0882L55.6815 84.0312L55.3195 83.7992L55.1245 83.5872L54.8745 83.4362L54.6055 83.3152L54.4755 83.3662L54.3365 83.4362L54.0675 83.5472L53.7615 83.7392L53.6035 83.8092L53.3245 83.8802L53.0095 83.9413L52.7495 83.9012L52.5266 83.8602L52.3865 83.7392L52.3125 83.4762V83.2542L52.2665 82.9322L52.0995 82.7502L52.0435 82.6092L52.0345 82.4382L52.0535 82.2472L52.0995 82.1062L52.0715 81.9352L51.9975 81.8142L52.0165 81.6032L51.9795 81.3112L51.8685 81.1302L51.8125 80.9202V80.7102L51.7295 80.5002L51.7206 80.2702L51.7945 80.0602L51.8225 79.8503L51.7395 79.7002L51.5815 79.6102L51.4605 79.3702L51.4415 79.0602L51.3115 78.8912L51.1725 78.7513H51.0145L50.7735 78.6712L50.5605 78.6812L50.2165 78.6712L50.0585 78.6212L49.9755 78.5122L49.7625 78.3633L49.6415 78.1042L49.4935 78.0542L49.2795 78.1342L49.2055 78.2342L49.1225 78.3742L48.9745 78.5342L48.7795 78.5242L48.5755 78.6142L48.3805 78.6242L48.1205 78.6442L47.8605 78.5642L47.5455 78.4742L47.2755 78.4142L47.0155 78.4742L46.8395 78.4242L46.6075 78.3942L46.3475 78.3742L46.1435 78.2142L45.9205 78.1252L45.7995 78.1552L45.6415 78.2552L45.4745 78.2352L45.2605 78.1552L45.1776 77.9662L45.1965 77.8462L45.2425 77.7262L45.3255 77.5572L45.2795 77.3782L45.2985 77.2192L45.3355 77.0802L45.3725 76.9212L45.3445 76.7722L45.3355 76.6133L45.3165 76.4642L45.2885 76.3052L45.3995 76.0772L45.4925 75.8893L45.4365 75.7312L45.4555 75.6222L45.5295 75.4442L45.6225 75.2262L45.6135 74.8202L45.5305 74.5832L45.4395 74.5192L45.4165 74.4482L45.4605 74.3542L45.4125 74.2582L45.3935 74.1592L45.4415 74.0732L45.3755 73.9032L45.2425 73.8542L45.1965 73.8052L45.1505 73.6172L45.1135 73.4002L45.1325 73.2332L45.0675 73.0862L44.9745 72.9972L44.8815 72.8402L44.7885 72.7222L44.7515 72.5552L44.6895 72.3392L44.8745 72.2992L44.9475 72.1783L45.0775 72.0143L45.2485 71.9712L45.4525 71.9112L45.5275 71.7903L45.0526 71.3542L44.7675 71.0932L44.9345 70.7392L45.2165 70.1442L45.4885 69.5682L45.6965 69.1302L45.7495 69.0492L45.9315 69.0212L45.8985 68.7952L45.8925 68.6472L45.7466 68.6393L45.9095 68.1052L46.1505 67.3452L46.3335 66.7702L46.3925 66.6742L46.5235 66.6472L46.5535 66.5812L46.3955 66.4892L46.2985 66.3102L46.0875 65.7972L45.7545 64.9892L45.7305 64.7002L45.6086 64.5222L45.4045 64.5822L45.1635 64.5252L44.5605 64.0872L44.1615 63.8502L44.0266 63.7102L43.9665 63.2612L43.8475 62.7662L43.7965 62.1542L43.8175 62.0082L44.1545 61.5442L44.1535 61.3102L44.1815 61.1052L44.1675 60.9432L44.0845 60.9412L43.9495 61.0122L43.7445 61.0662L43.6285 61.0712L42.4515 61.0272L41.1125 60.9772L39.9985 60.9352L39.0315 60.8992L38.9995 60.5002L38.9445 59.8332L38.9055 59.3592L38.8435 58.6092L38.4555 58.1422L38.0345 57.6362L37.8865 57.5062L38.3955 57.4902L38.7565 57.4792L38.6855 56.1222L38.5755 55.9842L38.4775 55.5462L38.4115 55.2982L38.2325 55.0982L38.1915 54.8722L38.2245 54.7222L38.3225 54.6292L38.3875 54.3972L38.3385 54.1642L38.2325 53.9472L38.1025 53.7392L37.8535 53.6112L37.4975 53.3792L36.9576 53.0842L36.5015 52.8782L36.3555 52.9032L35.5495 52.9832L35.2815 53.0252L35.1015 52.9782L34.5005 52.9802L34.2645 52.8222L34.0665 52.6372L33.6455 52.1672L33.5805 51.9322L33.4175 51.8572L33.1705 51.8862L32.9205 51.8542L32.4365 51.6592L31.9825 51.4592L31.7625 51.4672L31.5675 51.3422L31.2225 51.0372L31.0615 50.9182L30.9885 50.7602L30.9155 50.5282L30.7766 50.4782L30.5975 50.5202L30.4035 50.6392L30.1315 50.5602L29.7985 50.3462L29.5835 50.1792L29.4605 50.1002L29.1715 49.9832L28.8925 49.9592L28.4706 50.1312L28.1245 50.0602L27.5826 49.9982L27.1185 49.8732L26.9495 49.5492L26.8586 49.3352L26.5826 49.2012L26.3625 49.0372L26.1005 48.7882L25.9706 48.7052L25.7336 48.6362L25.5145 48.5482L25.4905 48.3912L25.4085 48.1842L25.3895 48.1332L25.2405 47.8822L25.1705 47.8642L25.0935 47.9142L25.0355 47.9502L24.9725 47.9062L24.9615 47.7942L25.0015 47.6142L24.9155 47.4262L24.7025 47.2282L24.5905 47.0232L24.5805 46.8112L24.5335 46.6702L24.4485 46.5982L24.4005 46.4742L24.3905 46.2982L24.4525 46.0882L24.5865 45.8452L24.5575 45.4702L24.3665 44.9642L24.2605 44.6002L24.2405 44.3762L24.2695 44.2102L24.3855 44.0492L24.6165 43.6542L24.6575 43.3532L24.5845 43.0142L24.5745 42.7552L24.6275 42.5772L24.5475 42.3442L24.3835 42.1242L24.2695 42.1192L24.1145 42.1792L23.9276 42.3652L23.7076 42.3982L23.5125 42.2832L22.9005 42.3312L21.9495 42.4462L21.5695 42.5652L21.3456 42.6162L21.0745 42.6552L20.6405 42.8692L19.5695 43.7002L19.3475 43.8212L19.0956 43.8382L18.9485 43.9532L18.7125 44.0432L18.2485 44.3722L18.0125 44.6362L17.8575 44.8752L17.6785 44.8832L17.5396 44.8172L17.1005 44.8502L16.8755 44.9322L16.6315 45.1642L16.3285 45.5842L16.2035 45.7042L15.9595 45.8282L15.6776 45.9312L15.3285 46.0852L15.1725 46.0952L15.0345 46.1222L14.9155 46.0522L14.8755 45.9012L14.6955 45.8062L14.2655 45.7582L13.6285 45.6482L12.9715 45.6272L12.6455 45.6372L12.3775 45.6442L11.9125 45.5852L11.5735 45.5752L11.2766 45.7242L10.8445 45.9092L10.6475 45.9562L10.5025 45.9632L10.3615 45.9402L10.1965 45.8442L9.96555 45.6232L9.78754 45.7082L9.65955 45.8032L9.66153 45.3222L9.66455 44.5992L9.66754 43.9622L9.66953 43.4532L9.67154 42.8592L9.67352 42.4402L9.79453 42.2812L9.86853 42.1032L9.77954 41.8652L9.79953 41.6472L9.86154 41.4952L9.94254 41.3472L9.75552 41.4212L9.67352 41.4622L9.57355 41.5742L9.33154 41.7262L9.16953 41.8782L8.97855 42.0022L8.73654 42.2752L8.53754 42.4252L8.33054 42.5212L7.98654 42.8422L7.70154 42.9062L6.94754 42.9552L6.16354 42.9542L5.44653 42.9532L5.33853 42.9492L5.34555 42.6842L5.36353 42.4972L5.11853 42.3002L5.10153 42.0572L5.03653 41.8892L4.95453 41.6842L4.78354 41.5532L4.54254 41.5022L4.14752 41.3892L3.56152 41.2712L3.00153 41.2632L2.45255 41.2742L2.78754 40.8622L3.12253 40.4512L3.11255 40.0932L2.84152 39.7812L2.69553 39.5872L2.46954 39.3202L2.19052 39.1352L2.03854 38.8892L2.05255 38.7402L2.02853 38.6422L1.92255 38.5852L1.81653 38.4952L1.67053 38.3962L1.49954 38.2652V38.1342L1.43454 37.9952L1.32852 37.8322V37.7012L1.23053 37.4962L1.12454 37.3492L1.01852 37.2512L0.863525 37.1122L0.871552 36.9982L0.985535 36.9412L1.03455 36.8102L1.01852 36.6792L0.88855 36.5972L0.733551 36.5562L0.529541 36.3192L0.382538 36.1962L0.284546 36.1222L0.227539 36.0402L0.284546 35.9832L0.349548 35.9012L0.366547 35.7702L0.333527 35.6482V35.5422L0.431549 35.5092L0.537537 35.5262L0.643524 35.4612L0.782532 35.4372L0.937531 35.4202L1.01953 35.3472L1.01154 35.2172L0.913544 34.9642L0.815521 34.8582L0.782532 34.7032L0.862549 34.4052L0.913544 34.2142L1.09253 34.0122L1.63855 33.5792L2.12854 33.2852L2.36752 33.2552L2.54453 33.1462L2.65652 32.9792L2.68753 32.7972L2.66254 32.6382L2.57153 32.4042L2.46252 32.1122L2.38052 31.9492L2.45352 31.7542L2.58353 31.4872L2.84955 31.0842L3.09753 30.6502L3.12454 30.5242L3.15652 30.2592L3.27054 29.7192L3.33353 29.4272L3.30054 29.3142L3.35754 29.2162L3.51254 29.1342L3.88654 29.0602L4.14053 28.8992L4.53152 28.5962L4.85754 28.2742L5.12753 28.1702L5.61655 27.8722L5.89752 27.6832L6.00754 27.6242L6.28354 27.4872L6.77853 27.4402L7.19052 27.3912L7.42352 27.3012L7.76453 27.2642L7.99353 27.1632L8.24854 27.1602L8.72754 27.0572L8.89053 26.9032L9.02954 26.7192L9.21652 26.5622L9.43555 26.5212L9.67953 26.5482L9.97153 26.5452L10.3255 26.4962L10.4966 26.6182L10.5715 26.7672L10.7896 26.9182L10.9445 26.9102L11.0995 26.8772L11.3115 27.0072L11.4505 26.9912L11.5396 26.9182L11.5565 26.7362L11.6065 26.6372L11.7105 26.0672L11.8825 25.1262L12.0385 24.2732L12.2105 23.3302L12.3895 22.3562L12.5705 21.3702L12.7185 20.5612L12.8456 19.8662L12.9245 19.4392L13.0465 18.8802L13.0945 18.3892L13.1435 18.2482L13.1125 18.1292L13.0065 17.9602L13.0075 17.8862L13.0195 17.7882L13.0075 17.7022L12.8965 17.6102L12.8105 17.5552L12.7425 17.4752L12.7115 17.3642L12.6555 17.2532L12.6305 17.1362L12.5495 17.0442L12.5255 16.9272L12.5815 16.8162L12.6055 16.6992L12.5815 16.5892L12.5505 16.4602L12.4885 16.3372L12.3945 16.2622L12.1695 16.1792L11.9435 15.9802L11.6765 15.8022L11.3365 15.4642L11.2625 15.3042L11.2615 14.8652L11.2766 14.3892L11.2985 13.6702L11.3095 13.3042L11.5015 13.2832L11.6705 13.2732L11.8475 13.2482L12.0015 13.2232L12.1435 13.1702L12.2495 13.1052L12.3755 13.0632L12.4745 13.0782L12.5735 13.0202L12.6825 12.9652L12.7885 12.9202L12.9425 12.8822L13.0865 12.9702L13.1675 13.0582L13.2615 13.1002L13.3495 13.0902L13.4105 13.0982L13.4735 13.1682L13.5545 13.1732L13.6705 13.1602L13.7795 13.1452L13.8295 13.1242L13.8375 13.0792L13.8095 13.0012L13.7715 12.9282L13.8015 12.8152L13.8045 12.6792L13.8095 12.5062L13.7235 12.4102L13.6375 12.2292L13.5415 12.0832L13.3925 11.9852L13.2535 11.9472L13.1375 12.0082L13.0295 12.0182L12.9485 11.9632L12.8175 11.9612L12.6755 11.9432L12.5266 11.9222L12.2565 11.9622L12.1605 11.9132L12.0295 11.9082L11.8775 11.9612L11.8815 11.2662L11.8855 10.6112L11.8875 10.1512L12.0235 10.1612L12.1925 10.0782L12.4435 10.0652L12.6365 9.97821L12.7445 9.97122L12.9485 10.0132L13.1615 10.1032L13.3705 10.1162H13.9185H14.5105H15.1695H15.8295H16.4016L16.5785 10.1212L16.4755 9.96823L16.3555 9.77023L16.4016 9.61423L16.4605 9.45721L16.5295 9.37521L16.7076 9.46222L16.8565 9.72922L16.9805 9.93024L17.1015 10.0292L17.2515 10.0402L17.4215 10.0062L17.5915 9.92322L17.8815 9.55524L18.1695 9.24023L18.3185 9.13422L18.4765 9.03723L18.5945 9.00021L18.7555 9.01224L18.8915 9.09824L18.9795 9.24823L19.3015 9.77023L19.5445 10.1642L19.6265 10.4102L19.6315 11.0102L19.6165 11.5412L19.6485 11.6102L19.6965 11.6302L20.2275 11.5052L20.9485 12.1492L21.4815 12.6252L21.7115 12.7772L21.8395 12.8192L22.1495 12.7872L22.5175 12.7252L22.6965 12.6572L22.8945 12.5082L23.2155 12.3012L23.4775 12.1872L23.5805 12.1722L23.6845 12.2092L23.9055 12.3332L24.0266 12.5632L23.9155 12.8302L23.9345 12.9962L24.1665 12.9872L24.3525 12.7112L24.4825 12.4932L24.7545 12.3162L25.0195 12.0652L25.2045 11.8252L25.4215 11.6852L25.7485 11.5142L26.0075 11.4102L26.2495 11.4212L26.4295 11.3082L26.6625 11.0962L26.8255 10.9262L26.9385 10.8652L27.1655 10.8822L27.4485 10.8592L27.7265 10.6522L27.9795 10.4022L28.1135 9.98022L28.2015 9.60623L28.2775 9.53021L28.3695 9.47021L28.4775 9.43121L28.7375 9.40424L29.1935 9.20523L29.5075 9.00323L29.8055 8.96024L29.8935 8.90622L30.0015 8.71924L30.0555 8.39023L30.0145 8.19122L29.4665 8.12921H29.1075L28.5135 8.07822L28.2305 7.99622L28.1695 7.93921L28.1635 7.87622L28.2206 7.73322L28.2755 7.46622L28.1945 7.10422L27.8985 6.53723L27.6875 5.97922L27.6595 5.59021L27.6646 5.17923L27.6815 4.91022L27.5295 4.70023L26.7085 4.03723L26.4245 3.72421L26.3305 3.50723L26.0065 3.10822L26.0885 2.98523L26.2755 2.98923L26.4345 3.09323L26.5805 3.31522L26.6845 3.36523H26.8275L27.5845 3.36423L27.7615 3.40222L27.8685 3.47723L27.9595 3.57022L28.0956 3.82922L28.2415 3.95523L28.5415 3.95123L29.0115 3.94623L29.2755 3.92322L29.4335 3.99521L29.6295 4.05524L30.0425 3.91724L30.1575 3.91422L30.2815 3.97522L30.7265 4.43823L30.9815 4.63321L31.1965 4.89221L31.5095 4.89322L31.7695 4.67123L31.8385 3.92422L31.9165 3.70721L32.0475 3.64621L32.2035 3.63922L32.3885 3.52222L32.5885 3.37021L32.7625 3.31921L33.4855 3.48224L33.6865 3.40424L34.4185 3.20721L35.1665 2.95322L35.3765 2.63321L35.6895 2.54721L35.9355 2.31323L36.1335 2.33722L36.4335 2.34723L36.6195 2.30621L36.7135 2.26224L36.8165 2.15222L36.9855 1.83923L37.1905 1.72021L37.4475 1.59424L37.6235 1.44623L37.7685 1.26321L37.8355 1.10422L37.8335 0.97821L37.7485 0.733215L37.6445 0.503235L37.5325 0.427216L37.4485 0.398224L37.7035 0.344238L37.9135 0.425232L38.2415 0.437225L38.3845 0.375214L38.5915 0.405212L38.8535 0.240234L39.0215 0.29422H39.1325L39.2336 0.41922L39.3125 0.560211L39.5575 0.731232L39.5335 0.991211L39.4885 1.22122L39.4565 1.48721L39.4425 1.68921L39.3385 1.89621L39.1825 2.08923L39.1365 2.16724L39.1145 2.26923L39.2195 2.33124L39.4055 2.34921L39.6375 2.35724L39.7955 2.41724L39.9995 2.42923L40.2455 2.59521L40.3645 2.69522L40.3745 2.77222L40.2965 2.95624L40.2655 3.12622L40.3265 3.23422L40.3985 3.31223L40.5975 3.69623L40.6925 3.82922L40.7725 3.87222L40.7915 3.94623L40.7235 4.08621L40.6415 4.26422L40.4565 4.45123L40.4315 4.59921L40.2845 4.69223L39.9395 4.91324L39.9995 5.26321L40.0115 5.44022L40.0055 5.57822L39.8875 5.76321L39.6835 6.30823L39.6086 6.58023L39.5425 7.20822L39.5465 7.41922L39.6405 7.70221L39.8405 8.33124L39.9545 8.43222L40.2175 8.57922L40.2505 9.00421L40.2275 9.44821L40.2155 9.62021L40.2585 9.69421L40.3765 9.73022L40.4605 9.78323L40.4735 9.91422L40.4655 10.0512L40.6615 10.1302L40.8326 10.1802L40.9905 10.3682L41.2755 10.6612L41.3895 10.7152L41.4465 10.8362L41.6875 11.0832L42.0545 11.1732L42.4245 11.2822L42.5705 11.4372L42.7225 11.5632L42.8375 11.5692L42.9345 11.5492L43.0945 11.4402L43.2225 11.3462L43.4455 11.3522L43.7076 11.3362L43.7525 11.2592L43.7775 11.1602L43.7235 10.9072L43.8165 10.8302L44.0335 10.7872L44.0765 10.6522L44.1255 10.5782L44.1875 10.4922L44.2615 10.4802L44.3545 10.5292L44.4975 10.5602L44.6585 10.6032L44.7445 10.6892L44.8875 10.6962L45.0465 10.6802L45.1105 10.6252L45.1575 10.5292L45.1925 10.3222L45.2945 10.3162L45.4995 10.2702L45.7175 10.1792L46.0095 10.1652L46.2825 10.1672L46.4195 10.1062L46.5465 9.97324L46.7925 9.59622L46.9215 9.50922L47.0605 9.44421L47.1785 9.45624L47.4195 9.39322L47.6175 9.30322L47.6915 9.32623L47.8456 9.51923L47.9235 9.56122L48.0375 9.57523L48.4105 9.67322L48.6086 9.64221L48.8225 9.58023L49.0285 9.55722L49.1765 9.60022L49.2835 9.54422L49.3765 9.50723ZM66.7315 9.51721L66.4515 9.64423L66.2905 9.59521L66.1425 9.26321L66.1925 8.98721L66.3955 8.89523L66.5526 8.91522L66.6105 8.95023L66.7505 9.40323L66.7315 9.51721ZM67.1415 13.8272L66.8365 13.9212L66.7795 13.8332V13.4822L66.8655 13.2902L67.2535 13.2362L67.2935 13.1792L67.4045 13.1432L67.4665 13.2642L67.4576 13.4652L67.1415 13.8272ZM66.3745 14.5342L66.3245 14.9442L65.8195 14.7712L65.8575 14.3522L66.0935 14.2342L66.3026 14.0112L66.3745 13.7382L66.3785 13.3662L66.4565 13.3022L66.5245 13.2762L66.5855 13.3012L66.6095 13.8592L66.6385 14.2012L66.3745 14.5342ZM68.3055 14.1752L68.4205 14.3212L68.0235 14.9042L67.8045 14.9882L67.5645 15.0052L67.2535 14.8312L66.7695 14.8442L66.6185 14.8032L66.6025 14.5492L66.8055 14.2782L67.2115 14.2932L67.9105 14.0752L68.3055 14.1752ZM69.1315 15.2362L68.3875 15.3232L68.0475 15.1842L68.1245 15.0672L68.3785 14.8802L68.6875 14.7482L68.9645 14.6892L69.2535 14.7632L69.3326 14.9202L69.3085 15.0782L69.1315 15.2362ZM65.7385 15.2892L64.9706 15.8352L64.7105 15.6562L64.6565 15.5522L64.7005 15.4472L64.6915 15.4032L64.7775 15.2162L65.2065 15.0632L65.4225 15.0372L65.6985 15.0852L65.7445 15.2192L65.7385 15.2892ZM68.6125 15.5622L68.8745 15.5742L69.2455 15.5212L69.4945 15.3912L69.7725 15.3652L70.0475 15.3792L70.9745 15.5242L71.5315 15.5692L71.7355 15.6152L71.9345 15.6812L72.0805 15.7522L72.1165 15.9062L71.9815 16.1542L71.8805 16.4142L71.7865 16.7772L71.7135 16.8502L71.5915 16.8312L71.6675 17.1562L71.6405 17.2862L71.5795 17.4122L71.4305 17.6742L71.2045 18.0082L71.1375 18.0782L70.9655 18.1942L70.8255 18.3422L70.8555 18.4822L70.9255 18.6232L70.8425 18.7992L70.5755 19.0562L70.4155 19.1182L70.2685 19.1442L70.1325 19.1192L69.8915 18.8612L69.8665 19.0632L69.8015 19.2702L69.7195 19.3832L69.4085 19.3712L69.2355 19.2602L68.9545 19.1372L68.9016 19.4692L68.7265 19.6982L68.5505 19.7702L68.2745 19.8182L68.1165 19.9162L67.8185 19.8402L67.5415 19.6882L67.3845 19.6752L67.2625 19.7982L66.6195 19.8212L66.3245 19.9462L66.1445 19.9112L65.8795 19.6592L65.8375 19.4922L65.6795 19.1532L65.5375 18.7502L65.4365 18.3842L65.5215 18.0682L65.6935 18.0782L65.8965 18.1252L65.9395 18.1032L65.9495 18.0012L65.9045 17.9172L65.5775 17.9302L65.3705 17.7422L65.3345 17.4522L65.3765 16.8482L65.4035 16.7242L65.5485 16.5512L65.5956 16.3982L65.5595 16.2362L65.6216 15.9412L65.7565 15.6862L66.2725 15.3642L66.8716 15.2492L68.6125 15.5622ZM62.4276 18.9202L62.1305 18.9732L62.5135 18.2752L62.8555 17.9502L62.8605 17.3062L63.2315 16.7332L63.5725 16.5002L64.0515 16.4322L64.3135 16.7812L63.9885 17.7712L63.8935 17.7772L63.4585 18.2992L62.9745 18.6642L62.4276 18.9202ZM81.9315 18.5972L81.7515 18.7312L81.6925 18.8002L81.5445 18.7482L81.5715 18.6712L81.6155 18.6792L81.6635 18.4552L81.9165 18.4822L81.9315 18.5972ZM83.0085 23.1212L82.7325 23.3952L82.8235 23.0782L82.7775 22.8592L82.8135 22.6902L83.0025 22.5262L83.0595 22.5022L83.0435 22.7042L83.0565 22.7662L83.0085 23.1212ZM99.1605 51.7602L99.0505 51.8222L99.0396 51.6402L99.3265 51.4112L99.3735 51.1402L99.5235 51.2652L99.5635 51.4042L99.5615 51.4622L99.1605 51.7602ZM98.7125 52.8382L98.6165 53.0072L98.5055 52.9822L98.4615 52.8692L98.3795 52.7592L98.4235 52.6732L98.4975 52.6242L98.7025 52.6312L98.7125 52.8382ZM84.0465 81.2882L84.1345 81.3712L83.9725 81.3633L83.7905 81.4362L83.5115 81.5013L83.3995 81.3792L83.6405 81.2092L83.7285 81.0822L83.7915 81.1092L83.8725 81.2012L84.0465 81.2882ZM80.8725 83.5632L80.8705 83.7222L80.7535 83.6412L80.4435 83.7032L80.3355 83.5832L80.7535 83.0702L80.8375 83.1452L80.9025 83.2383L80.9475 83.3682L80.8995 83.4522L80.8725 83.5632ZM71.5435 91.3102L71.4915 91.3482L71.3155 90.9612L71.6695 90.5902L71.7875 90.7402L71.6935 91.0342L71.5895 91.2422L71.5435 91.3102ZM71.8205 95.5912L71.6275 95.7342L71.6625 94.9852L71.7665 94.7352L71.8795 94.5482L72.0195 94.4332L72.1235 94.5962L72.0345 94.9572L71.7896 95.4002L71.8205 95.5912Z" fill="#FDA5A5"/>
</svg>
