<svg width="129" height="48" viewBox="0 0 129 48" fill="none" xmlns="http://www.w3.org/2000/svg">
<path d="M77.9498 47.5208L77.6887 47.5218L77.6047 47.4918L77.5837 47.2418L77.6608 47.1018L78.2657 46.9218L78.5018 46.7558L78.8378 46.4108L79.0458 46.3208L79.0988 46.2818L79.1348 46.2888L79.1677 46.5518L79.2518 46.7078L79.2667 46.7898L78.9647 46.9228L78.6948 47.2288L78.1068 47.4288L77.9498 47.5208ZM74.9587 46.6158L74.8187 46.6498L74.5178 46.5678L74.4567 46.5178L74.7147 46.3808L74.9127 46.1868L75.1437 46.1698L75.2808 46.2098L75.2338 46.4408L74.9587 46.6158ZM79.2607 45.7998L79.0078 45.8988L79.0068 45.6908L79.2017 45.4278L79.3798 45.3388L79.4788 45.4438L79.4877 45.4918L79.2297 45.5858L79.2607 45.7998ZM69.7087 43.1738L69.8358 43.3008L70.2947 43.5458L70.3698 43.6488L70.3987 43.8188L70.4907 43.9448L70.6978 43.9648L70.9188 43.9388L71.0878 44.0198L71.2338 44.1468L71.4498 44.3938L71.6398 44.6668L71.8757 44.8198L72.0107 45.0478L71.9318 45.2488L71.6328 45.5268L71.4717 45.5868L71.2507 45.6088L70.9067 45.7748L70.7808 45.6888L70.3907 45.6288L70.0798 45.5088L69.8187 45.2898L69.6688 45.0548L69.4788 44.8468L69.1478 44.7078L68.5538 44.2998L68.1868 44.2628L68.0367 44.2928L67.8857 44.2948L67.1077 44.1118L66.9868 44.0048L66.8917 43.8678L66.8047 43.7328L66.7518 43.5818L66.8517 43.4478L66.9557 43.3578L67.3887 43.1998L67.6987 43.1518L68.0577 43.1588L68.5928 43.1098L69.0997 43.1888L69.2557 43.1298L69.5118 42.9658L69.6008 43.0228L69.7087 43.1738ZM83.5287 42.2668L83.6318 42.2978L83.9877 42.1278L84.0547 42.1598L84.1238 42.2368L84.1248 42.4638L83.9877 42.6528L83.6417 42.6678L83.5928 42.7208L83.5887 42.8358L83.6157 42.9478L83.6957 43.0378L83.7988 43.1958L83.8958 43.5638L83.6998 43.7148L83.6008 43.9988L83.2607 44.2658L82.8868 44.7028L82.5867 44.9258L82.3237 45.1898L82.0978 45.3668L81.8148 45.4268L81.3917 45.4648L80.8168 45.7808L80.4988 45.9188L80.1887 45.9288L79.8987 45.8258L79.7888 45.7098L79.8148 45.5538L79.9108 45.4198L80.0278 45.3098L80.1017 45.1678L79.7737 44.9878L79.7457 44.8508L79.8757 44.4858L79.9608 44.1108L80.0828 43.8548L80.5527 43.3978L80.8337 43.1708L80.9998 43.0828L81.0458 43.1788L81.1508 43.2948L81.2217 43.3138L81.2758 43.2878L81.6898 43.3278L81.7938 43.2878L81.9517 43.1068L82.0557 43.0058L82.1257 42.7918L82.1437 42.6558L82.5118 42.5568L82.7087 42.4478L82.8837 42.2928L83.3937 42.0288L83.4847 41.9558L83.4647 42.2068L83.5287 42.2668ZM57.3527 41.4658L57.2748 41.5628L57.0468 41.3898L56.9888 41.3118L57.1578 41.1998L57.2167 41.1838L57.3627 41.3058L57.3527 41.4658ZM78.0297 40.8328L77.9398 40.9988L77.7787 40.9518L77.8228 40.7918L77.9047 40.6968L78.1227 40.5588L78.3447 40.5348L78.4808 40.5828L78.5237 40.6358L78.1777 40.6898L78.0297 40.8328ZM68.1697 41.3848L68.0607 41.4118L67.9507 41.3708L67.9957 41.1198L67.9327 40.9488L68.0468 40.8148L68.0757 40.5778L68.1218 40.5058L68.1887 40.5808L68.2197 40.6298L68.2778 40.6528L68.4037 40.6568L68.4318 40.7598L68.4268 40.8568L68.3727 40.9588L68.2228 41.0678L68.1147 41.1908L68.1697 41.3848ZM78.9838 40.2958L78.9268 40.4198L78.1627 40.4118L78.1838 40.2488L78.3958 40.0708L78.4667 40.0118L78.7007 39.9598L79.0347 40.0538L78.9838 40.2958ZM60.2468 41.0258L59.8917 41.6098L60.0187 41.7038L60.0947 41.7928L59.5068 41.9138L59.2618 41.8498L59.1198 41.8668L58.5228 41.7568L58.0958 41.6228L58.0468 41.5168L58.0807 41.3898L58.2067 41.4328L58.5358 41.4528L58.6617 41.3958L58.6647 41.0198L58.6188 40.5288L59.0637 40.1288L59.3007 39.9668L59.5728 39.8718L60.2607 40.0928L60.3748 40.1528L60.4628 40.2428L60.5057 40.3868L60.2468 41.0258ZM81.7048 40.2248L81.5338 40.3988L81.4177 40.7018L81.3118 40.7938L81.0848 40.8508L80.9478 40.5468L80.6968 40.5608L80.8198 40.2928L80.9377 40.1928L81.0917 40.1908L81.1677 40.2988L81.2087 40.3218L81.5707 39.8688L81.6437 39.8638L81.7048 39.8838L81.7537 39.9408L81.7048 40.2248ZM80.6887 40.0638L80.2927 40.1408L80.0507 40.4928L79.8588 40.4878L79.7537 40.6438L79.7297 40.7108L79.7438 40.7738L79.7228 40.8338L79.6467 40.8958L79.4667 40.7988L79.3127 40.9228L79.2477 40.9528L79.0208 40.8088L78.8057 40.8178L78.7407 40.7958L79.0078 40.5378L79.3718 40.2968L79.4318 40.2078L79.2888 40.1838L79.2037 40.1478L79.1927 40.0908L79.4227 40.0528L79.5817 40.0478L79.7028 40.1218H79.7797L80.2717 39.8378L80.4667 39.9018L80.6088 39.9748L80.6887 40.0638ZM122.703 40.3918L122.564 40.4288L121.858 40.3438L121.783 40.2278L121.772 40.1678L121.933 40.0528L122.089 39.8578L122.331 39.7848H122.425L122.709 40.2468L122.703 40.3918ZM62.8157 40.3318L62.7527 40.3338L62.6307 40.2788L62.6747 40.1618L62.6088 39.9708L62.6318 39.8138L62.7877 39.7248L63.1207 39.7148L63.1328 39.8298L62.8157 40.3318ZM67.0748 39.9688L66.9517 39.9718L66.9268 39.8588L66.9708 39.7408L67.0887 39.6908L67.1428 39.6878L67.2277 39.7948L67.2468 39.8508L67.1677 39.9248L67.0748 39.9688ZM82.5148 39.6928L82.5817 39.8638L82.7988 39.7688L83.0107 39.7448L83.4927 39.7628L83.8467 39.8008L84.0557 39.8718L84.0757 40.2148L83.9777 40.2888L82.1467 40.5478L81.9678 40.4648L81.8978 40.3828L82.0947 40.1288L82.0037 40.0078L82.1077 39.8108L82.3267 39.6768L82.5148 39.6928ZM91.6307 39.5748L92.1218 39.6878L92.4028 39.6758L92.4608 39.7768L92.1918 40.0158L91.6227 39.8318L91.5258 39.6348L91.6307 39.5748ZM77.4838 41.0208L77.0878 41.1208L76.8417 41.2158L76.6068 41.3418L76.4587 41.3678L76.1898 41.3778L75.8088 41.3548L75.5518 41.3958L74.8348 41.7218L74.5527 41.7498L74.3088 41.8298L74.2247 41.7028L74.1207 41.6088L73.8828 41.5858L73.6448 41.5928L73.4028 41.8808L73.0167 41.8198L72.8677 41.8448L72.7228 41.9058L72.5798 41.9328L72.4297 41.9128L71.8668 41.6888L71.2208 41.5558L70.5728 41.6078L70.0148 41.4848L69.7087 41.5788L69.4208 41.7128L69.3358 41.5718L69.2308 41.4478L69.1368 41.2618L69.1337 41.0508L69.1647 40.9038L69.2477 40.7688L69.2997 40.6288L69.3237 40.4788L69.4457 40.5498L69.5728 40.5228L69.9528 40.3598L70.3237 40.1128L70.6688 40.0228L70.8677 39.9978L71.0377 40.0468L71.2108 40.0288L71.3878 39.9738L71.6667 40.1628L71.7838 40.2018L72.1617 40.2168L72.5057 40.3258L72.8137 40.4898L73.2578 40.6428L73.5258 40.8488L73.7297 40.9248L73.8807 40.9458L74.0198 40.9178L74.1957 40.7798L74.4008 40.7228L74.5787 40.7248L74.9037 40.6888L75.0417 40.6558L75.1948 40.5798L75.3447 40.6268L75.4767 40.6968L76.0267 41.0578L76.1957 41.0678L76.5057 40.9898L76.5988 40.8928L76.6467 40.7438L76.7318 40.6198L76.8497 40.5128L76.9838 40.4308L77.3948 40.2918L77.6757 40.1548L77.8688 39.9228L77.4177 39.8208L77.5128 39.6538L77.6627 39.5598L77.8618 39.5948L78.0347 39.7248L78.1118 40.2238L77.9697 40.2938L77.8798 40.3698L77.8198 40.4698L77.5637 40.6528L77.6647 40.8818L77.5897 40.9768L77.4838 41.0208ZM100.159 40.1938L99.9147 40.2818L100.078 40.0588L100.602 39.5528L100.79 39.6468L101.04 39.6648L100.667 39.8938L100.287 39.9888L100.159 40.1938ZM64.7407 40.1918L64.8818 40.3028L65.0098 40.2928L65.2778 40.1228L65.4387 40.0608L65.6118 40.0588L65.7787 40.0868L65.9437 40.2078L66.0037 40.4048L66.0657 40.4658L66.1627 40.2298L66.2917 40.1588L66.4368 40.1228L66.6638 40.1358L66.8367 40.2488L66.9938 40.5838L66.9888 40.8768L67.0458 40.9868L67.1537 41.0668L67.2338 41.1798L67.1627 41.2978L67.0917 41.3548L66.8887 41.4088L66.7908 41.3858L66.6998 41.3058L66.5988 41.2768L66.3688 41.3038L66.1567 41.3698L66.1857 41.4768L66.3597 41.5248L66.4117 41.5758L66.4008 41.6448L66.3328 41.6588L66.1068 41.5658L65.9548 41.5848L65.4067 41.7108L65.2618 41.7078L65.1797 41.5888L65.1857 41.2788L65.1268 41.1968L64.7197 41.5728L64.5967 41.6648L64.4327 41.7078L64.2618 41.6928L63.6738 41.9208L63.4888 41.8888H63.3098L62.6818 42.1358L62.3447 42.2048L62.1718 42.2098L61.9998 42.1888L61.8458 42.2108L61.7078 42.3108L61.4277 42.3948L61.1387 42.3308L60.8948 42.2458L60.6627 42.1338L60.6047 41.9898L60.6168 41.8178L60.7147 41.5828L60.6487 41.1698L60.6998 40.9818L60.7947 40.7968L60.9387 40.7288L61.1268 40.7148L61.4377 40.5488L61.7217 40.3308L61.8857 40.3518L62.2598 40.5038L62.4788 40.5218L62.8508 40.4978L63.0037 40.5908L63.0648 40.8048L63.1478 40.8828L63.2568 40.9378L63.5208 41.2998L63.7657 41.2808L63.9797 41.3468L64.3577 41.1278L64.6437 41.1338L64.7247 40.9638L64.5538 40.7818L64.3478 40.6348L64.2368 40.6038L64.1157 40.6128L64.0078 40.5898L63.5468 40.2598L63.4097 40.0818L63.3317 39.8728L63.3787 39.7178L63.6957 39.5808L63.8438 39.5478L64.3948 39.6418L64.4888 39.7198L64.6348 40.0498L64.7407 40.1918ZM56.8978 39.7338L57.1827 39.8828L57.5798 40.3208L57.6168 40.4438L57.4968 40.5598L57.2128 40.7458L56.5778 41.0328L56.4688 41.1678L56.3348 41.4328L56.3038 41.5458L56.2587 41.6078L56.1857 41.6528L56.0477 41.6918L55.8978 41.6358L56.0338 41.4658L56.0388 41.2628L55.9377 41.0728L55.7947 40.9138L55.5068 40.6978L55.1978 40.5068L54.8857 40.4088L54.5547 40.3648L54.4357 40.2718L54.2418 40.0338L54.1788 39.9038L54.1467 39.7678L54.1677 39.6358L54.2498 39.6278L54.5737 39.6588L55.1718 39.8138L55.4678 39.8268L55.6357 39.7908L56.0737 39.4848L56.1777 39.4898L56.5967 39.6248L56.8978 39.7338ZM97.2867 39.1688L97.1207 39.4278L96.9338 39.4108L96.5928 39.0638L96.6127 38.8218L96.6407 38.7428L96.7717 38.7188L97.2128 38.7888L97.2988 38.9848L97.2867 39.1688ZM88.7598 38.3618L88.7977 38.4988L88.7927 38.5588L88.4567 38.6028L88.1328 38.7548L87.9667 38.9298L87.8367 39.1568L87.3907 39.0648L86.9927 39.0498L86.8168 38.9698L86.6257 38.9748L86.3777 39.0448L86.0248 39.2368L85.9468 39.2518L85.9747 38.9598L86.0728 38.7798L86.4437 38.3488L86.7527 38.4438L87.1118 38.4708L87.5208 38.3868L87.8118 38.1928L88.2228 38.0908L88.5507 38.3448L88.7598 38.3618ZM90.4968 38.2358L90.3157 38.3018L90.3718 38.0938L90.3597 37.9258L90.6528 37.9768L90.6498 38.1108L90.6218 38.1628L90.4968 38.2358ZM121.693 40.0668L121.022 40.4378L120.142 40.3728L119.83 40.3668L119.313 40.4568L119.209 40.3848L119.307 40.0358L119.72 39.1068L120.211 38.2888L120.42 38.0768L120.711 37.8778L121.02 37.7178L121.717 37.5518L122.351 37.5818L122.442 37.6498L122.715 37.9218L122.892 38.1368L122.966 38.4408L122.696 38.9638L122.395 39.4628L121.907 39.8548L121.693 40.0668ZM101.459 39.2948L101.413 39.3268L101.064 39.2908L100.865 39.2898L100.891 39.0768L100.788 38.9168L100.929 38.6818L100.932 38.4098L101.078 38.3728L101.099 38.2178L101.275 37.8068L101.379 37.7158L101.525 37.6798L101.699 37.4398L101.798 37.3698L101.901 37.1878L102.048 37.1038L102.036 36.9478L102.119 36.8658L102.351 36.8018L102.512 36.8788L102.611 37.0378L102.352 37.2338L102.485 37.7168L102.297 38.2438L102.174 38.4018L101.944 38.5378L101.875 38.6668L101.604 38.9268L101.522 39.1488L101.51 39.2428L101.459 39.2948ZM103.301 37.0518L103.266 37.1908L103.146 37.1168L103.028 36.9548L102.855 36.9318L102.727 36.8888L102.652 36.8128L103.133 36.7778L103.301 37.0518ZM53.9927 36.8588L53.9507 36.9708L53.8077 36.9428L53.6727 36.7578L53.7377 36.7098L53.8127 36.6898L53.9108 36.7108L53.9927 36.8588ZM94.0068 36.9998L93.8807 37.0708L93.6708 36.9238L93.6127 36.8628L93.7457 36.7188L93.8878 36.6778L93.9738 36.7408L94.0157 36.8038L93.9977 36.8728L94.0068 36.9998ZM71.8467 36.8188L71.5607 36.8348L71.4717 36.8098L71.4507 36.5358L71.7648 36.6538L71.8668 36.6618L71.8467 36.8188ZM52.3987 36.7808L52.3447 36.8218L51.8677 36.7988L51.5607 37.0278L51.3478 37.0978H50.5837L50.4927 37.0668H50.4247L50.3837 37.1128L50.1407 37.0778L49.3647 36.8748L49.2587 36.6868L49.3787 36.4858L49.6578 36.2008L50.2167 36.1448L52.7637 36.1248L53.0408 36.3698L53.0668 36.4528L52.5118 36.6198L52.3987 36.7808ZM56.6998 36.4018L56.4708 36.4498L56.2587 36.3508L56.2648 36.2178L56.3168 36.0938L56.6337 36.0298L56.8038 36.0338L56.9858 36.1188L57.1127 36.2078L57.1747 36.3118L56.8317 36.3168L56.6998 36.4018ZM110.857 35.7818L110.81 35.8248L110.737 35.7338L110.73 35.6768L110.827 35.5218L110.923 35.4318L111.03 35.4248L111.003 35.5518L110.857 35.7818ZM28.2858 35.4748L28.1108 35.5368L27.9767 35.4818L27.9167 35.4028L28.1147 35.2088L28.2087 35.1628L28.3077 35.1478L28.3547 35.2528L28.2858 35.4748ZM110.974 35.2198L110.819 35.2458L110.743 35.0168L110.871 34.9578L111.01 35.0978L110.974 35.2198ZM111.264 34.8958L111.196 34.9188L111.197 34.7808L111.274 34.6588L111.355 34.5888L111.451 34.5858L111.264 34.8958ZM110.471 34.9188L110.425 35.1168L110.379 35.3378L110.122 35.5858L109.963 35.9648L109.87 36.0598L109.525 36.2288L109.218 36.0178L109.129 35.8368L109.264 35.0008L109.396 35.0288L109.482 35.0228L109.51 34.9678L109.313 34.8738L109.276 34.3938L109.286 34.2128L109.435 34.1718L109.621 34.3128L109.855 34.5638L110.128 34.7618L110.471 34.9188ZM34.2388 33.6998L34.5217 34.0198L34.7687 34.1908L35.0607 34.2838L35.3677 34.2928L35.6697 34.3338L36.0217 34.4558L36.3828 34.5118L36.5507 34.4908L36.7108 34.4278L36.8237 34.4238L36.9227 34.4828L37.1727 34.7538L37.4437 35.0018L37.5068 35.1278L37.6907 35.7258L37.8987 35.8978L38.1848 35.9478H38.5208L38.8547 35.9728L39.6287 36.1128L39.9357 36.0928L40.2078 35.9528L40.4498 36.0438L41.1068 36.2118L41.4297 36.2498L41.7968 36.2018L42.1647 36.1918L42.3408 36.2408L42.5098 36.3138L42.6547 36.3398L42.8047 36.3388L43.0707 36.1988L43.2468 35.9418L43.3898 35.6178L43.5007 35.2798L43.5757 35.1348L43.6777 35.0068L43.8107 34.9238L43.9528 34.8718L44.3387 34.9038L44.4188 34.9858L44.8508 35.5588L44.9268 35.6088L45.3768 35.6448L45.5018 35.6258L45.7758 35.5108L45.9327 35.5008L46.2217 35.6428L46.3467 35.7638L46.4868 35.8528L47.1948 35.9438L47.4678 36.1898L47.6068 36.2228L48.0988 36.1928L48.4398 36.2168L48.7358 36.2828L48.8707 36.6318L48.9797 36.9898L49.0427 37.1118L49.3328 37.2348L49.4507 37.3458L49.4197 37.7028L49.4517 38.0428L50.0668 38.3388L50.7247 38.5088L51.4247 38.5248L52.1257 38.4658L52.4868 38.3928L52.9387 38.2668L53.0328 38.2688L53.9078 38.6578L53.9827 38.7178L54.0807 39.0088L54.0778 39.3158L53.9147 40.0448L53.9037 40.2448L53.9197 40.4448L54.0938 40.8798L54.1868 41.0048L54.5037 41.2338L54.5167 41.3538L54.4728 41.4738L54.1227 41.3918L53.9097 41.2928L53.7867 41.1288L53.6108 41.0358L53.2817 41.0698L52.6667 40.9058L51.9717 40.6518L50.7397 40.1128L50.4037 40.1168L50.0817 40.1858L49.7418 40.3228L49.3878 40.4208L49.1277 40.4578L48.8668 40.4308L48.2087 40.3018L47.5458 40.2178L45.8467 40.1648L45.3668 40.0418L44.5718 39.9798L43.9398 39.8738L43.3137 39.7258L41.7178 38.9968L41.1957 38.8138L39.5928 38.4658L39.3458 38.4378L38.7648 38.4638L38.3987 38.3618L38.0767 38.3598L37.5978 38.4728L37.4507 38.5538L37.2648 38.7248L36.9387 38.7168L36.6157 38.6838L35.7648 38.5198L35.4478 38.4188L35.1428 38.2698L34.8688 38.0758L34.7247 38.0068L33.9897 37.8088L33.3898 37.7408L32.1558 37.6508L31.8857 37.5908L31.6608 37.5188L31.5377 37.3588L31.5538 37.1548L31.6417 36.9788L31.7628 36.8018L31.8417 36.6328L30.9398 36.2788L30.2277 36.0858L29.9197 36.0488H29.6108L29.2628 36.0888L28.9188 36.0698L28.7568 36.0118L28.5917 35.9918L28.4257 36.0338L28.2927 36.0178L28.2587 35.8568L28.3438 35.7198L28.5178 35.5648L28.6177 35.5378L28.6627 35.7808L28.7128 35.8288L28.8668 35.8818L28.9338 35.8668L29.2057 35.5568L29.2817 35.4038L29.4138 34.9908L29.5577 35.0708L29.7017 35.0218L29.7847 34.9558L30.0137 34.0008L30.2037 33.7218L30.4637 33.4908L30.5938 33.4338L30.8488 33.5758L31.3657 33.6298L31.6727 33.7238L31.9808 33.7358L32.2817 33.7818L32.7007 33.9498L32.8488 33.9318L32.9988 33.8798L33.2238 33.6968L33.3218 33.4048L33.6458 33.5528L34.1227 33.6118L34.2388 33.6998ZM81.0438 33.6048L81.0187 33.7388L80.9158 33.5848L80.8218 33.5088L80.8317 33.3428L80.9647 33.4048L81.0438 33.6048ZM71.1567 34.5158L71.0417 34.9828L70.9877 34.8178L70.9667 34.3908L70.8958 34.1828L70.9407 33.9438L70.9257 33.3308L71.0128 33.0478L71.1727 33.4078L71.2147 33.5908L71.1567 34.5158ZM49.2407 33.1488L49.1807 33.2488L48.9108 33.2408L48.8657 33.1288L49.0417 32.9248L49.1578 32.9118L49.2618 32.9868L49.2407 33.1488ZM105.617 33.2598L105.446 33.5298L105.33 33.4348L105.265 33.4338L105.225 33.2748L105.265 32.9468L105.121 32.5778L105.31 32.5828L105.363 32.6928L105.423 32.7298L105.61 33.0858L105.617 33.2598ZM111.061 32.8568L111.039 32.9648L111.037 33.1638L111.084 33.3488L110.964 33.5368L111.076 33.8178L111.093 33.9578L111.086 34.1558L111.055 34.2448L110.97 34.5048L110.885 34.5978L110.821 34.6238L110.756 34.7028L110.204 34.6178L109.966 34.4368L109.753 34.2418L109.708 34.1598L109.458 33.9318L109.4 33.8548L109.395 33.7328L109.597 33.7018L109.813 33.7058L109.803 33.5968L109.928 33.2108L109.6 32.9628L109.542 32.8588L109.659 32.7888L109.923 32.8748L110.246 32.4398L110.341 32.3488L110.387 32.1068L110.568 32.0758L110.696 32.1068L110.779 32.2578L110.812 32.3888L110.777 32.5068L110.932 32.5678L111.061 32.8568ZM105.952 33.4038L105.723 33.6448L105.938 33.0768L105.983 32.7888L106.183 32.6178L106.48 31.7478L106.546 31.7678L106.643 31.8528L106.494 32.4908L106.077 32.9388L105.952 33.4038ZM20.1877 32.2178L19.9587 32.2318L19.5367 31.8878L19.4678 31.7818L19.5867 31.6798L19.7137 31.6868L20.1998 31.9038L20.2947 32.0108L20.1877 32.2178ZM79.8517 31.6378L79.8408 31.9218L79.7288 31.9058L79.6368 31.8058L79.6118 31.7118L79.6168 31.6358L79.6667 31.5758L79.8517 31.6378ZM75.4078 32.1038L75.2288 32.1788L74.8917 31.8588L74.7488 31.5948L74.7828 31.4458L74.8837 31.3158L74.9318 31.2828L74.9108 31.1468L75.0438 31.0808L75.1898 31.0898L75.2858 31.2728L75.4008 31.3228L75.4598 31.4978L75.4078 32.1038ZM77.0967 31.6318L77.0248 31.8178L76.8698 31.9628L76.7457 31.9738L76.6157 31.9438L76.3868 31.8178L76.3278 31.9508L76.1467 31.9448L76.0807 31.7728L76.2098 31.2638L76.3978 31.0738L76.3798 30.8738L76.2238 30.4488L76.3207 30.2268L76.7578 30.0588L77.1387 29.8538L77.2557 29.8118L77.3618 29.9698L77.4188 30.6938L77.0098 31.2668L77.0967 31.6318ZM78.5978 29.6218L78.6627 30.2238L78.6417 30.3818L78.4838 30.1508L78.4268 30.1048L78.3828 30.1508L78.3267 30.1758L78.2468 30.1738L78.1428 30.4068L78.1328 30.6268L78.0538 30.7738L78.0128 31.2648L78.0388 31.3968L78.1608 31.3318L78.2358 31.3148L78.5118 31.5038L78.6578 31.6418L78.6168 31.8088L78.4297 31.9768L78.2128 32.0498L78.0507 31.9778L78.0027 32.0118L77.9067 32.0978L77.8348 32.2118L77.8558 32.3288L77.6708 32.6618L77.5637 32.7558L77.3417 32.6538L77.2048 32.7408L77.0947 32.7328L76.9257 32.3998L76.9307 32.2438L77.0867 32.0688L77.0878 31.9428L77.1647 31.8018L77.3367 31.6088L77.4357 31.4628L77.4387 31.3708L77.5118 31.0208L77.5397 30.8748L77.5897 30.7198L77.6677 30.4028L77.6788 29.8068L77.9418 29.3158L78.1987 29.1818L78.3007 29.1598L78.2847 29.2908L78.5978 29.6218ZM107.76 28.7688L107.904 28.9178L107.57 28.8008L107.092 28.5558L107.059 28.3918L107.461 28.6398L107.76 28.7688ZM78.7728 28.3968L78.4988 28.7328L78.3077 28.7158L78.0787 28.4948L78.0128 28.2528L78.0068 28.1648L78.1627 28.0278L78.6877 28.0738L78.7867 28.1958L78.7728 28.3968ZM93.7048 26.9228L93.2258 27.0688L93.3287 26.7968L93.3937 26.7248L93.6307 26.7988L93.7048 26.9228ZM92.8987 27.1718L92.8267 27.2738L92.6638 27.3408L92.5278 27.3338L92.5718 27.2358L92.5377 27.1788L92.4368 27.2038L92.2717 27.2828L92.0637 27.4408L91.9418 27.3628L91.9158 27.2408L91.9227 27.1848L92.1718 26.9658L92.4608 26.9278L92.8677 26.7178L93.0497 26.7278L93.0068 26.8608L92.9437 26.9558L92.9058 27.0558L92.8987 27.1718ZM94.1528 26.8148L94.1467 26.9328L94.1268 26.9698L93.9738 26.9288L93.8647 26.9308L93.7678 26.7178L93.7947 26.6688L93.9957 26.7308L94.0707 26.7518L94.1528 26.8148ZM59.6378 26.5848L59.5347 27.0658L59.3638 26.7928L59.5557 26.4698L59.6448 26.4048L59.6378 26.5848ZM91.0208 26.1678L91.0848 26.2918L90.8098 26.2138L90.6877 26.0938L90.8077 26.0188L90.8748 25.9988L91.0208 26.1678ZM59.2997 27.7128L58.7108 28.2328L58.6127 28.1008L58.6638 27.5718L58.4998 27.2428L58.5107 26.9988L58.6268 26.5668L58.7778 26.2358L59.1198 26.0148L59.2048 25.9888L59.1838 26.3898L59.2518 26.5408L59.2758 26.6698L59.2397 26.7808L59.3038 27.2948L59.3417 27.4198L59.2587 27.5818L59.2997 27.7128ZM88.9288 25.5338L89.3907 25.7518L89.4948 25.8938L89.5778 26.0628L89.6688 26.1558L89.7767 26.2318L89.9567 26.3788L90.0037 26.6028L89.9628 27.0548L89.7537 27.0948L89.5577 27.1608L89.1537 27.4228L88.9548 27.4738L88.7418 27.4918L88.5908 27.5608L88.4398 27.5878L88.0468 27.4428L87.6667 27.2728L87.1147 26.9778L87.0128 26.9058L86.9238 26.7478L86.6708 26.4638L86.6077 26.2818L86.5867 25.7638L86.6528 25.6448L86.7587 25.5818L87.1277 25.7018L87.3707 25.5768L88.0687 25.4708L88.7797 25.4818L88.9288 25.5338ZM92.0917 25.1108L91.9507 25.3438L91.7037 25.3338L91.6608 25.3008L91.9528 25.1548L92.0917 25.1108ZM32.8707 25.3028L32.8237 25.3588L32.6688 25.3288L32.5557 25.2508L32.4858 25.1768L32.4678 25.0998L32.6188 25.0048L32.9377 25.1028L32.8707 25.3028ZM34.5178 25.0078L34.4047 25.0798L34.3387 25.0108L34.3187 24.9338L34.3668 24.8368L34.5208 24.8278L34.5917 24.8568L34.5178 25.0078ZM97.0497 24.9138L97.6948 25.2228L98.0287 25.2678L98.5908 25.2278L98.8027 25.2578L99.3387 25.6528L99.4948 25.9238L99.5397 26.1578L99.6227 26.3798L99.7548 26.4358L99.9097 26.4568L100.112 26.7768L100.152 26.8808L99.9988 27.6838L99.3677 27.3798L98.7587 27.0348L98.4957 26.9068L97.7938 26.6148L97.6868 26.5148L97.6077 26.3828L97.3018 26.2028L96.6918 26.1748L96.4628 26.1798L96.3698 26.2068L96.3937 26.3038L96.3967 26.5008L96.2457 26.5548L95.8668 26.4308L95.5287 26.3858L95.2347 26.2638L94.8417 26.1998L94.7977 26.1388L94.8317 26.0478L94.8137 25.9628L94.7228 25.9298L94.5458 25.9458L94.3748 26.0318L94.2327 26.1288L94.0248 26.3968L93.9188 26.4998L93.5748 26.5438L93.4318 26.5178L93.3007 26.4518L92.9097 25.9618L92.7778 25.8558L92.6307 25.7698L92.4948 25.7298L92.3538 25.8048L92.2808 25.9568L92.2477 26.1378L92.2087 26.2418L92.0397 26.5318L91.8998 26.7038L91.8497 26.6768L91.9208 26.4008V26.2448L91.8348 26.0798L91.7797 25.9118L92.4407 25.1088L92.6797 24.9178L93.7217 24.8518L94.3408 24.8928L94.6788 24.8728L94.9047 24.8138L95.0917 24.8418L95.1387 24.9998L95.2557 25.1168L95.4188 25.1068L95.7147 24.9828L95.9717 24.7918L96.1287 24.7088L96.2888 24.6948L96.4537 24.7078L96.6147 24.7518L97.0497 24.9138ZM14.7368 25.7988L14.8488 26.2058L14.5148 25.9288L14.5217 25.7328L14.4758 25.6048L14.2737 25.4478L14.1177 25.2508L14.0477 24.7858L14.1017 24.6888L14.2338 24.6828L14.8207 25.2928L14.8608 25.3958L14.8478 25.6138L14.7628 25.6818L14.7368 25.7988ZM36.5778 25.2818L36.5338 25.5758L36.4658 25.6868L36.2318 25.8328L36.1517 25.9218L35.9327 25.9078L35.9047 25.7538L35.8317 25.6498L35.5997 25.5298L35.5388 25.5588L35.4968 25.7378L35.0417 25.8628L34.9147 25.8738L34.9777 25.6378L34.8597 25.4518L34.8508 25.2238L34.8287 25.1238L34.7717 25.0658L34.8878 24.9068L34.8677 24.7298L34.9907 24.5398L35.0588 24.0788L35.5397 23.9778L35.6437 24.0608L36.2048 24.1648L36.6008 24.4438L36.8118 24.8148L36.5778 25.2818ZM14.1168 24.5648L13.9167 24.7898L13.5867 24.7848L13.5217 24.6458L13.5367 24.3098L13.4557 24.1998L13.4587 24.1558L13.5118 23.9648L13.5787 23.9228L14.1118 24.3958L14.1168 24.5648ZM110.015 22.8428L109.933 22.8848L109.905 22.7638L109.949 22.6008L110.002 22.5748L110.063 22.5828L110.142 22.6418L110.015 22.8428ZM13.1038 23.4548L13.1177 23.5288L12.6608 23.2838L12.4407 23.2158L12.2457 22.9478L12.3068 22.8198L12.3148 22.6398L12.3438 22.5688L12.4838 22.5428L12.6658 22.6738L12.8018 22.9928L13.0287 23.2898L13.1038 23.4548ZM86.6677 23.7568L86.6198 23.8078L86.4507 23.6568L86.3378 23.2308L86.2407 23.1178L86.1277 22.7128L86.1567 22.5978L86.2968 22.4278L86.4088 22.4298L86.4918 22.5308L86.4457 22.9668L86.6968 23.5188L86.6677 23.7568ZM80.4738 22.3738L80.5237 22.4858L80.3478 22.4828L80.2748 22.2718L80.2927 22.1588L80.4738 22.3738ZM86.5807 21.9108L87.4437 22.0038L87.3218 22.1048L86.3907 22.2658L86.0607 22.2368L85.0507 22.3318L84.9197 22.3258L84.9008 22.1698L84.7927 22.0608L84.9537 21.9658L85.1677 21.9438L85.7277 21.9798L86.5807 21.9108ZM78.5208 21.9858L78.3148 22.2158L78.2927 22.0928L78.3348 21.9808L78.3928 21.9018L78.4797 21.8628L78.5208 21.9858ZM98.7297 21.6348L98.7637 21.8008L98.9307 21.9538L98.8727 22.1918L98.8068 22.2278L98.8417 22.3358L98.9138 22.4188L98.7838 22.4758L98.6887 22.4478L98.5358 22.5248L98.4338 22.6318L98.1127 22.6768L97.9998 22.5778L97.4197 22.4608L97.0488 22.2048L97.0018 22.1278L97.7208 21.8268L98.0347 21.7468L98.2988 21.7518L98.6307 21.6398L98.7297 21.6348ZM83.6207 21.6758L83.8837 21.7748H83.9758L84.0627 21.6588L84.1168 21.6398L84.2347 21.6968L84.2618 21.8848L84.4318 21.8588L84.5637 21.9228L84.6058 21.9678L84.5878 22.1548L84.0848 22.1878L83.7258 22.3388L83.2427 22.2028L82.6948 22.4358L82.3618 22.5168L82.0728 22.5118L81.8257 22.1038L81.9697 21.6258L82.0737 21.5468L82.2578 21.5048L82.7657 21.4818L83.6207 21.6758ZM113.102 21.3588L114.21 21.4988L114.51 21.4808L115.143 21.5348L115.671 21.7208L116.594 21.7548L116.869 21.8108L117.082 21.9388L116.565 22.0438L116.322 22.1428L115.87 22.1918L115.492 22.1418L115.217 22.2008L115.117 22.1048L114.715 22.0068L114.2 21.8058L113.138 21.5728L113.088 21.4268L113.102 21.3588ZM38.6708 21.4368L38.3488 21.5538L38.2518 21.2918L38.4578 21.2138L38.6818 21.2818L38.6708 21.4368ZM30.5107 21.5758L30.6077 21.7678L30.7397 21.9408L30.8367 22.1278L30.9697 23.0248L31.4097 23.7958L32.6807 24.0988L32.4728 24.2238L32.3668 24.3358L32.2888 24.4638L32.1017 24.9988L32.1198 25.1128L32.2297 25.2938L32.2557 25.4908L32.0967 25.4898L31.9177 25.4458L31.7748 25.3718L31.6417 25.2748L31.4977 25.1978L31.3417 25.1478L31.0837 24.9948L30.7347 24.8868L30.3787 24.8018L30.2057 24.5748L30.1238 24.2948L30.2117 23.8768L30.1227 23.7608L29.9957 23.6588L29.8397 23.3578L29.7808 23.0058L29.5547 22.8698L29.2568 22.7868L29.1257 22.7198L28.5367 22.8488L28.3948 22.8188L28.2698 22.7208L27.9487 22.6178L27.9617 22.4228L28.1108 22.2668L28.4617 22.1098L28.6268 21.9778L28.6588 21.8038L28.5967 21.6768L28.6207 21.5438L28.7318 21.4148L28.8627 21.3138L29.2167 21.1798L29.3707 21.4128L29.4468 21.6078L29.5408 21.7488L29.6907 21.5468L29.5947 21.1988L29.8638 21.1208L30.1277 21.1178L30.3267 21.2138L30.4567 21.3638L30.5107 21.5758ZM79.7698 21.6728L79.5767 21.6908L79.4478 21.6088L79.4598 21.1998L79.5767 21.1108L79.6337 21.1258L79.6688 21.2478L79.7277 21.3568L79.8237 21.4588L79.7698 21.6728ZM92.5547 21.5508L92.3828 21.6638L92.2968 21.6948L91.8828 21.6188L91.3987 21.6348L90.8948 21.7398L90.6038 21.6508L90.4188 21.5058L90.4277 21.3528L90.6008 20.9738L90.9797 20.6868L91.1337 20.6348L91.4047 20.7128L91.8597 20.9328L92.2178 21.1908L92.5427 21.3918L92.5547 21.5508ZM78.6887 20.1868L78.7507 20.3608L78.6487 20.5118L78.7598 20.7948L79.0427 20.4178L79.3127 20.3698L79.4658 20.4328L79.5707 20.5078L79.6287 20.6508L79.5287 20.9578L79.3517 21.1018L79.1227 21.1248L79.0148 20.9458L78.8647 20.9288L78.7598 21.3188L78.7128 21.3788L78.5787 21.4278L78.4598 21.3208L78.4387 21.2608L78.6077 21.0838L78.5157 20.5588L78.3887 20.6578L78.0497 21.1348L77.7858 21.3478L77.6957 21.2398L77.5618 20.9158L77.6227 20.4998L77.8358 20.2188L78.0167 20.2378L78.5377 20.1498L78.6887 20.1868ZM40.7958 20.2128L40.2358 20.4978L40.1038 20.4828L40.0037 20.3818L40.0657 19.8318L40.1378 19.6678L40.5278 19.6498L40.7648 19.7288L40.8887 19.8178L40.9368 20.0018L40.9097 20.1128L40.7958 20.2128ZM111.675 20.0328L111.54 20.0838L111.384 20.0278L111.236 19.8138L111.289 19.6498L111.462 19.5368L111.607 19.6498L111.652 19.7938L111.762 19.8038L111.675 20.0328ZM11.1978 21.8788L10.9387 21.8938L10.3848 21.5598L10.2537 21.4098L10.2217 21.2098L9.69073 20.4378L9.61975 20.2608L9.82874 19.6268L10.3698 19.4738L10.5488 19.5808L10.6118 19.8658L10.9218 20.3798L11.0237 20.6568L11.1008 20.7798L11.1328 20.8758L11.1058 20.9418L11.3298 21.2678L11.4897 21.4588L11.5018 21.7678L11.1978 21.8788ZM100.55 20.5888L100.451 20.6668L100.11 20.5938L99.9327 20.4218L99.8127 20.1908L99.7358 20.0008L99.7147 19.8498L99.6127 19.6648L99.6268 19.5978L100.256 19.4028L100.375 19.4738L100.638 19.4798L100.752 19.6208L100.674 20.2338L100.55 20.5888ZM100.28 19.0888L100.208 19.2308L100.075 19.3268L98.8677 19.4968L98.9717 19.3948L99.0228 19.2938L99.0988 19.2418L99.2178 19.2558L99.2778 19.2248L99.3387 19.2128L99.4058 19.2258L99.5228 19.1838L99.7687 19.2138L100.023 19.1898L100.004 19.0538L100.28 19.0888ZM112.846 18.7368L113.443 18.8458L113.661 18.8398L113.874 18.9628L114.133 18.9048L114.279 18.9448L114.77 19.3678L115.012 19.6478L115.37 19.8888L115.63 19.9708L115.435 20.1908L115.039 20.3068L114.887 20.3128L114.584 20.1818L114.339 20.2058L114.125 20.0418L114.088 19.7878L113.867 19.2158L113.583 19.3798L113.241 19.1158L113.148 19.1098L113.127 19.1538L112.982 19.0648L112.858 18.8868L112.846 18.7368ZM90.1627 19.0988L90.1307 19.1558L89.8378 19.0828L89.7587 19.0428L89.9058 18.6478L90.0438 18.6598L90.1647 19.0358L90.1627 19.0988ZM99.4977 18.3958L99.3367 18.3988L99.0458 18.2778L99.2147 18.1728L99.3218 18.1508L99.4158 18.0878L99.4678 18.0848L99.5828 18.1388L99.6588 18.2298L99.4977 18.3958ZM74.9058 18.0558L75.0248 18.1798L74.9537 18.3228L74.8568 18.2868L74.6017 18.2888L74.5057 18.2998L74.3907 18.3838L74.3187 18.3868L74.3677 18.2548L74.5837 18.0548L74.7188 18.0848L74.9058 18.0558ZM107.485 18.9458L108.189 18.9878L108.544 18.9598L108.893 18.9958L109.035 19.0668L109.278 19.2818L109.209 19.4228L109.167 19.7148L109.291 19.9948L109.493 20.2758L109.659 20.5758L109.693 20.7218L109.63 21.0318L109.573 21.1848L109.372 21.4408L109.262 21.7198L109.333 22.0638L109.372 22.4108L109.365 22.7288L109.401 23.0418L109.51 23.3598L109.98 24.2298L110.254 24.8198L110.342 24.4898L110.32 24.1238L110.418 23.9918L110.555 23.9218L110.726 23.9948L110.774 24.1428L110.787 24.4668L110.935 25.1028L111.125 25.1318L111.331 25.0348L111.365 25.2288L111.357 25.5888L111.453 25.8748L111.538 25.9868L111.876 26.2188L112.029 26.2618L112.476 26.3178L112.813 26.3358L113.136 26.2528L113.344 26.0398L113.532 25.8088L114.181 25.2768L114.369 25.0218L114.55 24.6318L114.613 24.5488L115.259 24.1268L115.333 23.9768L115.425 23.6868L115.566 23.4068L115.671 23.2618L116.295 23.1248L116.942 23.0508L117.585 22.7928L117.862 22.5708L117.876 22.4248L117.735 22.1688L117.729 22.0558L117.877 21.9478L118.45 21.6228L119.112 21.2888L119.644 21.0588L119.938 21.0608L120.209 21.2638L120.498 21.4298L122.011 21.9178L122.253 22.0698L122.464 22.2718L122.767 22.4118L123.105 22.4788L123.412 22.6098L123.703 22.7778L124.347 23.0918L125.211 23.4728L125.432 23.4948L126.236 23.4768L126.375 23.5488L126.507 23.6508L126.629 23.6738L127.55 23.7448L127.691 23.8178L127.825 23.9188L127.9 24.1948L128.535 24.2018V24.7428V25.3098L128.536 25.8768V26.4448V27.0128L128.537 27.5808V28.1488V28.7168V29.2848V29.8528L128.538 30.4218V30.9908V31.5598V32.1288V32.6978L128.539 33.2678V33.8378V34.4078V34.6508L128.452 34.9488L128.258 35.3948L128.224 35.7558L128.384 36.0368L128.54 36.2198V36.6898V37.2608L128.541 37.8328V38.4048V38.9768V39.5488V40.1218L128.542 40.6948V41.2678V41.8408V42.4148L128.543 42.4518L128.397 42.3568L128.01 42.0428L127.659 41.6848L127.432 41.3508L127.176 41.0468L126.086 40.1458L125.81 39.8498L125.754 39.7678L125.78 39.6908L125.906 39.5348L126.129 39.0838L125.896 39.3628L125.619 39.5838L125.215 39.5978L124.819 39.6518L124.452 39.7848L124.079 39.8308L123.892 39.7658L123.78 39.5998L123.721 39.4298L123.695 39.2488L123.538 39.5408L123.23 39.7008L122.809 40.0378L122.689 39.9678L122.617 39.8398L122.593 39.7068L122.674 39.5648L122.732 39.4148L122.817 39.0538L123.005 38.8408L123.125 38.4298L123.203 38.2838L123.243 38.1378L123.134 37.9718L122.949 37.9158L122.822 37.8148L122.676 37.5358L122.584 37.4418L122.417 37.3268L122.289 37.1938L122.431 37.0928L122.618 37.0518L122.771 37.0578L123.047 37.1208L123.172 37.1238L123.493 37.0208L123.312 37.0528L123.133 37.0488L122.563 36.8688L122.21 36.6818L121.877 36.3068L121.873 36.2348L122.108 36.1668L122.615 36.0878L122.458 35.8968L122.229 35.7298L122.149 35.4338L121.993 35.2508L121.655 34.9518L121.422 34.6418L121.225 34.0118L121.023 33.5358L121.073 33.3638L121.243 33.2408L120.985 33.2268L120.752 33.1388L120.876 32.9078L121.146 32.7708L120.9 32.8058L120.66 32.8728L120.551 32.8858L120.438 32.8648L120.378 32.7718L120.37 32.6398L120.405 32.4068L120.364 32.1808L120.151 32.0758L119.974 31.9148L119.874 31.8548L119.744 31.8588L119.617 31.7508L119.515 31.5948L118.245 30.9178L118.17 30.7248L118.052 30.8088L117.935 30.8508L117.789 30.7398L117.636 30.6658L117.469 30.6778L117.315 30.6178L117.153 30.5838L116.984 30.5788L116.317 30.3708L115.685 30.0418L115.17 29.8998L114.853 29.7148L114.523 29.5648L113.785 29.4188L113.037 29.3198L112.766 29.3168L112.539 29.3488L112.321 29.3418L111.083 28.6278L110.874 28.3028L110.894 28.1128L110.95 27.9558L111.455 27.9108L111.1 27.8648L110.954 27.8858L110.661 28.0148L110.503 28.0238L110.279 27.9378L110.065 27.8298L109.714 27.9298L109.535 27.7658L109.473 27.5928L109.379 27.5138L109.247 27.5218L109.069 27.5848L108.892 27.5738L108.778 27.4548L108.696 27.2998L108.575 27.1888L108.429 27.1038L108.189 26.9028L108.064 26.6278L108.079 26.1528L108.117 25.9828L108.354 25.7058L108.522 25.4428L108.314 25.4138L108.126 25.5348L108.047 25.6588L108.015 25.8088L107.994 26.3078L107.843 26.4528L107.615 26.4408L107.682 26.7328L107.589 27.0098L107.324 27.3358L107.303 27.4838L107.345 27.6448L107.285 27.8028L106.857 28.2588L106.714 28.2808L106.398 28.2778L106.071 28.3498L105.919 28.2438L105.795 28.1058L105.702 27.9418L105.572 27.6048L105.468 27.2568L105.793 26.8308L105.681 26.4458L105.461 26.1148L104.905 25.6568L104.329 25.2218L104.067 25.1338L103.638 25.0948L103.502 25.0528L103.369 24.8898L103.27 24.7018L103.539 24.6208L103.998 24.3998L104.259 24.4108L104.967 24.5308L105.184 24.6398L105.386 24.7038L105.869 24.3388L106.252 23.8618L106.491 23.7578L106.694 23.7228L106.901 23.7688L107.312 23.9348L107.635 24.0128L107.865 24.0278L107.985 24.1768L108.121 24.2438L108.152 24.0188L108.27 23.7588L108.499 23.6778L108.62 23.6588L108.696 23.5918L108.679 23.3508L108.376 23.3208L108.541 23.1138L108.688 23.0128L108.739 22.9118L108.742 22.7858L108.149 23.0288L107.524 23.1308L107.155 23.1028L106.787 23.0998L106.051 23.2618L105.772 23.2558L105.121 23.1898L104.761 23.1108L104.483 23.1718L104.214 23.1768L103.933 22.9908L103.694 22.7588L103.575 22.5938L103.417 22.4738L103.347 22.3128L103.172 21.7068L103.156 21.2728L102.873 21.2648L102.598 21.2218L101.369 20.8098L101.221 20.9108L101.048 20.9628L100.875 20.9818L100.704 20.9608L100.533 20.8968L100.548 20.7828L100.674 20.5048L100.799 20.4018L100.971 20.3218L101.08 20.1738L101.258 19.7308L101.272 19.5798L101.252 19.4258L101.267 19.3088L101.377 19.2478L101.84 19.1038L102.802 18.8858L103.045 18.7558L103.246 18.5478L103.48 18.4218L103.587 18.2938L103.711 18.1908L104.455 17.9158L104.776 17.8938L105.104 17.9258L105.753 18.0888L106.372 18.3518L106.909 18.6978L107.485 18.9458ZM26.1008 17.8548L26.3638 18.1258L26.4268 18.2228L26.2968 18.3728L26.1927 18.5848L26.1328 18.6298L25.9318 18.5488L25.7897 18.7568L25.6957 18.4238L25.4918 18.2128L25.6188 17.9968L25.6647 17.9808L25.7267 17.9878L25.7908 18.0448L26.1008 17.8548ZM90.9108 17.8108L91.2347 18.2278L91.0167 18.6228L91.1667 18.8438L91.5757 18.8578L91.6697 18.9408L91.7418 19.0408L91.7888 19.1768L91.6827 19.2858L91.4548 19.3858L91.1918 19.2418L91.1227 19.1078L91.0687 19.0578L90.7147 19.1598L90.6157 19.1698L90.5477 18.9828L90.6328 18.7148L90.3857 18.5938L90.1588 18.3168L90.1508 18.2058L90.2418 18.0128L90.2297 17.8588L90.3588 17.8468L90.5947 18.0548L90.6968 17.8588L90.7977 17.7768L90.9108 17.8108ZM90.0208 18.3018L89.8447 18.3738L89.6537 18.3728L89.6118 18.0758L89.6747 17.6988L89.8527 17.6348L90.1337 17.7148L90.0297 17.8098L90.1068 18.0118L90.0208 18.3018ZM24.0308 17.8918L23.6658 17.9888L23.2587 17.9188L23.3088 17.7518L23.5048 17.5568L23.6788 17.5648L23.9957 17.6928L24.1077 17.8078L24.0308 17.8918ZM100.021 16.9328L100.507 17.0518L100.617 17.0328L101.322 17.3388L101.433 17.4908L101.394 17.5938L101.498 17.7318L101.268 17.9418L101.157 17.9648L101.045 17.8858L100.82 17.8418L100.56 17.9278L100.395 17.8628L100.255 17.6708L100.007 17.5538L99.6558 17.1478L99.4838 17.1628L99.5287 17.3218L99.6777 17.4268L99.8738 17.7358L99.9868 17.7658L100.103 17.7548L100.26 17.8838L100.252 18.0828L99.8417 18.1608L99.6998 18.0148L99.6688 17.7498L99.4387 17.8388L99.3497 17.9308L99.2828 17.9438L99.1298 17.6678L98.6918 17.6528L98.4008 17.5068L98.5447 17.3538L98.5657 17.2058L98.7548 17.1258L98.9457 17.1968L99.1387 17.0898L99.2758 17.1168L99.3768 17.0488L99.7648 17.0058L100.021 16.9328ZM9.21973 18.3998L9.05273 18.5288L8.79974 18.4038L8.88477 18.2248L8.92572 17.9778L9.07776 17.7818L9.12872 17.5518L8.83673 16.9228L8.98175 16.9018L9.09674 16.9698L9.28973 17.3878L9.45776 17.6388L9.39075 17.9788L9.21973 18.3998ZM26.9557 17.4118L27.0367 17.4578L27.1368 17.3128L27.3218 17.5108L27.4357 17.6098L27.5917 17.7088L27.4387 17.7128L27.3757 17.8038L27.3358 17.8218L26.7407 17.5028L26.3597 17.6058L26.0988 17.5128L26.0248 17.4488L26.1647 17.2738L26.2938 16.8728L26.5547 16.9738L26.6177 17.0978L26.6017 17.1348L26.7728 17.2098L26.9557 17.4118ZM96.4728 17.4428L96.3508 17.4508L96.2488 17.2878L95.9708 17.1068L95.7988 16.7948L96.4528 17.3098L96.4728 17.4428ZM90.5917 16.9378L90.5778 17.0238L90.4907 16.9038L90.4318 16.8748L90.4948 16.5748L90.5278 16.5238L90.5787 16.7288L90.5917 16.9378ZM26.7048 16.7548L26.7288 16.8238L26.5967 16.7458L26.5167 16.6988L26.4628 16.6558L26.1708 16.2748L26.2958 16.2988L26.6207 16.6338L26.7048 16.7548ZM22.7618 15.4108L22.4468 15.4268L22.3547 15.3908L22.3937 15.1288L22.4897 14.9708L22.6328 14.9738L22.7917 15.2098L22.7618 15.4108ZM90.4977 15.1308L90.3967 15.1618L90.3677 15.1508L90.3378 15.0388L90.3937 14.8488L90.5118 14.8468L90.5618 14.8778L90.5718 15.0178L90.4977 15.1308ZM90.3647 14.7148L90.2687 14.8068L90.1777 14.7758L90.1227 14.6578L90.1407 14.5728L90.2167 14.5178L90.3118 14.5588L90.3647 14.7148ZM23.2267 15.0688L23.1688 15.1068L22.9297 14.7528L22.9897 14.5488L23.0477 14.4968L23.1797 14.6218L23.2838 14.7518L23.3597 14.9068L23.2267 15.0688ZM24.2897 14.6888L24.3047 14.7688L24.0477 14.6078L24.0408 14.4908L24.0737 14.4368L24.2267 14.5618L24.2897 14.6888ZM25.4418 14.5958L25.2657 14.6778L25.0447 14.4228L25.0527 14.3638L25.0737 14.3188L25.1147 14.2898L25.2488 14.4218L25.4078 14.4688L25.4418 14.5958ZM22.0408 14.8398L21.9877 14.9468L21.8837 14.8678L21.3358 14.7478L21.1508 14.7348L20.6768 14.6028L20.5328 14.5328L20.4297 14.4408L20.4647 14.2718L20.5347 14.1698L20.5767 13.8858L20.6968 13.7698L20.9318 13.9808L21.1927 14.1628L21.3438 14.2458L21.8047 14.4318L21.9678 14.5248L22.0408 14.8398ZM23.1528 13.9988L23.1697 14.1518L22.9827 14.1148L22.8478 13.9348L22.9587 13.8068L23.0287 13.7608L23.0988 13.9308L23.1528 13.9988ZM22.4297 14.4958L22.3478 14.5758L22.2057 14.5568L22.0568 14.4628L21.8627 14.2938L21.6448 14.1428L21.3688 14.0478L21.1957 14.0188L21.1268 13.9838L21.1927 13.6908L21.3748 13.6728L21.9628 13.9448L22.1528 14.0928L22.4297 14.4958ZM24.8397 13.6298L25.0178 13.7518L25.1638 13.6718L25.1578 13.7758L25.1287 13.8758L24.9567 14.1628L24.6688 14.0968L24.6027 14.0038L24.5817 13.9348L24.6238 13.8918L24.6467 13.7508H24.7708L24.8397 13.6298ZM26.4127 13.5308L26.4297 13.7398L26.5897 13.8418L26.6307 13.9958L26.6027 14.2428L26.4528 14.5278L26.3857 14.6028L26.1868 14.5448L26.1207 14.4498L26.0947 14.3758L26.1227 14.3228L25.9758 14.2558L26.0707 14.1468L26.0057 13.9938L25.5988 14.0898L25.4808 14.0928L25.4598 13.9188L25.4767 13.8488L25.7897 13.6288L25.9767 13.5878L26.1777 13.6318L26.4127 13.5308ZM20.3558 14.1608L20.2258 14.2448L20.0698 14.1128L19.9418 13.9218L19.8748 13.7228L19.8137 13.3968L19.7977 13.1628L19.8757 13.0258L19.9327 13.0308L20.1627 13.1698L20.3148 13.4058L20.3987 13.4798L20.4158 13.6968L20.3597 13.9448L20.3558 14.1608ZM6.47577 12.8368L7.08374 13.6208L7.33075 13.7258L7.65875 14.0818L7.73877 14.2058L7.65576 14.4558L7.58374 15.1698L7.42676 15.3478L7.04376 15.2598L7.03973 15.1348L6.81873 14.5968L6.41876 14.2968L6.26178 14.2808L6.15875 13.9738L5.95673 13.6108L5.34674 12.9468L5.80975 12.9518L6.03473 12.7898L6.08673 12.6608L6.12378 12.6278L6.47577 12.8368ZM20.5377 12.8528L20.5588 13.2108L20.3497 13.1168L20.1868 12.9748L19.9257 12.8698L19.6097 12.8358L19.3777 12.7428L19.2158 12.5768L19.2087 12.4998L19.2247 12.4378L19.2767 12.3888L20.4758 12.7108L20.5377 12.8528ZM83.3937 14.1468L82.8588 14.6198L82.6957 14.8488L82.5527 15.0948L82.3417 15.3678L82.0997 15.6088L81.9788 15.6798L81.6797 15.8098L81.5078 15.8598L81.1838 15.8768L80.2078 16.0688L79.8878 16.0908L79.5687 16.0828L78.9647 16.0348L78.8387 16.0098L78.5978 15.7618L78.3257 15.5658L78.0858 15.5448L77.8408 15.5658L76.0757 15.5798L75.4587 15.6168L74.8447 15.7038L74.5098 15.6638L74.1788 15.5658L73.9288 15.5308L73.6768 15.5408L72.5187 15.6888L72.2267 15.6748L71.6407 15.4858L71.3007 15.4478L70.9658 15.4988L70.6547 15.6688L70.5367 15.7828L70.2147 16.1728L70.0328 16.4568L69.8937 16.8108L69.7758 17.1718L69.7128 17.4678L69.7087 17.7778L69.7648 18.1258L69.8517 18.4698L69.9487 18.7328L70.3508 19.3408L70.4327 19.4268L70.8698 19.5978L71.1287 19.8178L71.3738 20.4278L71.5497 20.7398L71.7208 20.7438L71.9127 20.7218L72.2468 20.7618L72.5767 20.8418L72.8987 20.6548L73.0787 20.3008L73.2598 20.0378L73.6937 19.5378L73.9407 19.3068L74.0978 19.2308L74.2587 19.2638L74.3948 19.3958L74.5527 19.5008L74.8768 19.5578L75.2037 19.5228L75.5518 19.3598L75.6768 19.2598L75.7808 19.1338L76.0757 19.0308L76.7767 19.0298L77.1378 19.0668L77.7838 19.0258L77.7748 18.9338L77.6498 18.8358L77.6177 18.7568L77.7377 18.7058L78.1537 18.5918L78.5778 18.5108L78.8868 18.5688L79.1617 18.7278L79.2678 18.8918L79.3148 19.0888L79.2087 19.5998L79.1567 19.7188L78.9368 19.7798L78.7297 19.7118L78.5248 19.4478L78.2347 19.3508L77.8237 19.4308L77.6818 19.5068L77.5557 19.6118L77.3237 19.8858L77.1307 20.1948L76.7117 20.6758L76.2288 21.0938L75.9948 21.2538L75.7327 21.3608L74.8937 21.6378L74.6727 21.8438L74.5007 22.1108L74.3107 22.2018L74.0908 22.2308L73.9257 22.1808L73.5917 22.0298L73.4818 22.1538L73.4628 22.3428L73.6268 22.4098L73.8928 22.6188L74.0978 22.9138L74.2288 22.9768L74.5217 23.0728L74.6448 23.1648L74.8647 23.4178L75.2117 24.0058L75.3298 24.3238L75.5228 24.5838L76.1088 25.0248L76.1417 25.1498L76.1058 25.2958L76.1508 25.4278L76.3608 25.6808L76.4108 25.8448L76.1818 26.0528L76.1688 26.3528L76.0278 26.7568L75.9968 26.8928L76.0007 27.0168L76.0997 27.1318L76.2147 27.2228L76.3727 27.2708L76.5107 27.3498L76.7767 27.6648L76.9158 27.7478L77.0037 27.8628L76.9948 28.0338L77.1157 28.1338L77.2267 28.3128L77.3978 28.3558L77.4767 28.3048L77.5317 28.2278L77.6718 28.2568L77.7537 28.3818L77.8018 28.5418L77.8177 28.7178L77.8107 29.0518L77.7407 29.1718L77.5878 29.1658L77.3127 29.0278L77.2997 29.1278L77.3187 29.2238L77.1788 29.2558L77.0187 29.2418L76.6168 29.2548L75.8748 29.4628L75.6147 29.5858L75.4457 29.8088L75.4338 29.9638L75.4988 30.2888L75.3998 30.4028L75.0598 30.4458L74.5848 30.3588L74.2977 30.2718L74.1378 30.1988L73.9297 29.9798L73.8508 29.6998L74.0048 28.8668L74.0477 28.7598L74.1227 28.6648L74.2017 28.5138L74.2208 28.3358L73.9938 28.1188L73.6517 28.0328L73.3627 27.8518L72.2448 26.8358L72.1818 26.7378L72.1797 26.5698L72.2247 26.4128L72.5917 25.8578L72.6387 25.7518L72.6838 25.3138L72.6727 24.9528L72.6318 24.5918L72.4578 24.3648L72.1467 24.2958L71.8257 24.2848L71.5128 24.3568L71.2048 24.5388L70.6368 24.9208L70.4108 25.1438L70.3907 25.4328L70.5208 25.7158L70.6887 25.9738L70.7787 26.2568L70.9028 27.2598L70.8987 27.3728L70.7527 27.6648L70.6948 28.3168L70.7578 29.2378L70.8577 29.8028L70.8148 30.1098L70.5488 30.7698L70.4678 31.1318L70.4617 31.2808L70.7748 31.9708L70.8467 32.2438L70.8848 32.5268L70.5518 32.3878L70.3978 32.3948L70.2407 32.4368L69.8937 32.4818L69.5408 32.4878L69.4177 32.5398L69.1677 32.7238L69.0157 32.7978L68.8837 32.8118L68.4357 32.5818L68.1708 32.3318L67.9268 32.0608L67.8818 31.7508L67.9667 31.4328L68.0878 31.0928L68.3287 30.5278L68.3168 30.1488L68.3998 29.8378L68.5377 29.5368L68.5878 29.2588L68.6207 28.1708L68.5867 28.0738L68.2557 27.4278L68.2178 27.3198L68.2158 27.1458L68.2518 26.9788L68.2587 26.8298L68.1827 26.7148L68.0488 26.6098L67.8868 26.5638L67.5438 26.6088L66.8558 26.7828L66.6528 26.6298L66.5007 26.3938L66.4017 26.0638L66.3447 25.7188L66.3707 25.3948L66.4728 25.0818L66.3907 24.8628L66.2637 24.6248L66.2628 24.5018L66.3348 24.3948L66.4587 24.3048L66.6108 24.2528L66.7527 24.1578L67.1298 23.8388L67.2498 23.5578L67.2587 23.2118L67.3547 22.8818L67.5468 22.5768L67.7748 22.2948L67.8478 22.0038L67.7368 21.5418L67.7808 21.3318L67.7427 21.0848L67.7388 20.8408L67.8798 20.3818L68.2977 19.4428L68.7057 18.9438L68.8677 18.8128L69.0798 19.0448L69.2407 19.3178L69.2438 19.0708L69.1957 18.8338L69.0338 18.2688L68.8928 17.1668L68.9318 17.0628L69.0748 17.0798L69.2208 16.9828L69.2968 16.8098L69.1458 16.4008L69.1387 16.2558L69.4307 15.6808L69.6688 15.4718L69.7728 15.3428L69.8328 14.9918L69.9567 14.8598L70.1127 14.7648L70.3187 14.5218L70.4297 14.2158L70.4977 14.1928L70.5778 14.1818L70.7017 14.4488L70.8408 14.5568L71.1227 14.6438L71.3638 14.5408L71.4307 14.4068L71.5217 14.2918L71.6677 14.1718L71.7908 14.0348L71.9277 13.7178L72.1088 13.4288L72.2327 13.3278L72.3818 13.2648L72.5477 13.2258L72.7078 13.2208L73.0627 13.4018L73.2687 13.4378L73.4797 13.4248L73.6127 13.4548L73.7137 13.5368L73.8057 13.7008L73.9188 13.8428L74.0237 13.9128L74.1387 13.9458L74.9117 13.8878L75.5878 14.0478L76.5098 14.0838L76.8257 14.1778L77.1298 14.3008L77.5007 14.5168L77.6368 14.5648L77.7888 14.5528L77.9777 14.3488L78.1257 14.3048L78.2758 14.2968L78.8698 14.3348L80.4658 14.5848L80.7017 14.5508L81.6638 14.0718L82.0497 13.6178L82.3948 13.4918L82.5107 13.2858L82.5807 13.0398L82.7028 12.9738L82.9918 12.9038L83.1058 12.8308L83.3107 12.5278L83.5527 12.2598L83.6718 12.1788L84.0137 12.2218L84.1647 12.3388L84.3568 12.7328L84.3237 12.7988L84.0967 12.9948L84.0308 13.0778L83.7797 13.6318L83.6077 13.9038L83.3937 14.1468ZM18.3387 11.1258L18.4897 11.3548L18.5217 11.5028L18.4108 11.6728L18.3698 11.9338L18.0427 12.1388L17.7568 12.0898L17.6638 12.0168L17.4827 11.6208L17.5007 11.2848L17.6138 11.1568L17.8798 11.1768L18.1498 10.9928L18.3387 11.1258ZM91.3757 14.5568L91.5798 14.6188L91.7917 14.6018L91.8967 14.4768L91.9257 14.3148L92.0328 14.0138L92.2797 13.8098L92.4528 13.7778L92.5757 13.6918L92.5547 13.4688L92.5677 13.2498L92.7507 13.0158L93.3157 12.6898L93.6387 12.5738L94.0577 12.5368L94.1047 12.6618L94.0568 12.8398L94.1378 13.1088L94.0978 13.8368L94.0018 13.9398L93.5687 14.1908L93.0958 14.3918L92.9628 14.4758L92.8458 14.6758L92.8558 14.8748L93.2418 15.1398L93.8408 15.3878L93.9637 15.5038L94.0438 15.6988L94.0657 15.9168L94.2108 16.0208L94.4138 16.0708L94.5477 16.1738L94.6498 16.3188L93.6417 15.9798L93.3777 15.8308L93.0598 15.8128L92.7448 15.7678L92.4238 15.6378L92.0787 15.6068L91.9138 15.7008L91.8497 15.8848L91.8107 16.0908L91.8868 16.3468L91.8798 16.5028L91.8148 16.7838L92.0648 17.6148L92.3777 18.2748L92.8387 18.9618L93.0668 19.1978L93.3218 19.4108L92.9078 19.3478L92.7828 19.1188L92.2587 18.8908L92.1578 18.7548L91.8157 18.1028L91.7158 17.9808L91.4008 17.7588L91.2618 17.5958L91.2147 17.3758L91.2498 17.1448L91.2318 16.8248L91.2438 16.5068L91.3088 16.1188L91.1957 15.9818L91.0488 15.8538L90.8777 15.5568L90.8267 15.2188L90.8408 15.0248L90.9108 14.8528L91.0057 14.7038L91.0267 14.5578L90.7808 14.3468L90.5228 13.7448L90.4998 13.4328L90.8278 12.8318L90.8207 12.5398L90.8857 12.3668L90.9208 12.1828L91.0928 11.7828L91.3718 11.4418L91.8458 10.9638L92.0258 10.8598L92.2288 10.7918L92.2468 10.9088L92.2147 11.0128L91.8647 11.4988L91.8177 11.6088L91.8088 11.8128L91.9758 11.9338L92.1578 12.1808L92.1927 12.5088L92.1998 12.8588L92.1597 13.2108L92.0928 13.3288L91.8057 13.6828L91.1528 14.0978L91.0967 14.2008L91.1017 14.3148L91.2217 14.4528L91.3757 14.5568ZM6.06177 11.1338L6.04578 11.1968L5.75574 10.9038L5.42773 10.7408L5.56372 10.6988L5.83478 10.7438L5.94275 10.7858L6.04675 10.9318L6.06177 11.1338ZM93.3998 11.1998L92.9557 11.2478L92.8547 11.1148L92.7377 10.5148L93.0527 10.0348L93.4498 9.75281L93.7208 9.68182L93.8157 9.67783L94.0577 10.0238L93.8738 10.7188L93.6617 11.0738L93.3998 11.1998ZM84.8497 9.52682L84.8207 9.58881L84.7167 9.26181L84.8038 9.09781L84.9288 9.15781L84.9598 9.21582L84.8408 9.37183L84.8497 9.52682ZM3.61975 10.3398L3.44373 10.3658L3.27374 10.3058L3.13275 10.1458L2.37872 9.68182L2.14478 9.67484L1.98077 9.55582L1.78076 9.51483L1.56873 9.20483L1.52374 9.03882L1.67773 8.95782L1.77478 8.78781L2.02576 8.86282L2.31177 9.16281L2.60272 9.27481L2.68176 9.33182L2.82373 9.49783L3.48877 9.90582L3.56073 10.0448L3.60675 10.1838L3.61975 10.3398ZM38.4868 8.81781L38.3497 8.96381L38.2037 8.87283L38.4297 8.57681L38.4827 8.55682L38.4868 8.81781ZM29.7108 8.93683L29.5938 8.94781L29.5588 8.86481L29.5637 8.72183L29.5538 8.60782L29.5198 8.52283V8.37982L29.6277 8.45081L29.7108 8.51782L29.8068 8.56583L29.8848 8.59781L29.9257 8.61981L29.8488 8.82181L29.7108 8.93683ZM31.1827 8.11581L31.1788 8.30783L30.9847 8.19482L30.9468 7.98181L31.0107 7.91281L31.1437 7.94983L31.1827 8.11581ZM63.1017 7.77081L63.0668 7.86282L62.8267 7.63782L62.7637 7.47482L62.7927 7.34781L63.0417 7.33682L63.1658 7.41681L63.1017 7.77081ZM85.5527 7.33682L85.4827 7.42181L85.1417 7.26581L85.1588 7.01883L85.1127 6.89682L85.0208 6.76883L84.9838 6.64383L85.0217 6.50681L85.2318 6.68182L85.3497 6.95981L85.5118 7.22382L85.5527 7.33682ZM88.9037 6.40781L88.8577 6.43982L88.7568 6.36481L88.6937 6.28183L88.6978 6.19882L88.7698 6.15683L88.9158 6.28381L88.9188 6.35382L88.9037 6.40781ZM88.5317 6.11182L88.5388 6.22983L88.3688 5.96182L88.3027 5.64481L88.4377 5.75781L88.5887 5.99182L88.5317 6.11182ZM63.7368 5.24081L63.8307 5.50781L63.8447 5.60983L63.3237 5.74982L63.0098 5.42181L63.0767 5.28882L63.3478 5.29483L63.7368 5.24081ZM36.8837 6.62781L36.4998 6.73083L36.2778 6.58682L36.5178 6.40982L36.6027 6.39783L36.6588 6.36282L36.6788 6.29083L36.2448 6.17383L36.1207 6.07083L36.0027 5.80881L36.0057 5.64182L36.5637 5.20081L36.6937 5.15381L36.7147 5.33682L37.0997 5.79883L37.1168 6.10681L37.1017 6.21783L36.8837 6.62781ZM60.0007 4.75482L60.1017 4.81482L60.2418 4.81281L60.4078 4.76883L60.8157 4.81082L61.5377 4.81982L62.0347 4.92484L62.5208 5.22183L62.7628 5.28183L62.8668 5.28381L62.8438 5.30682L62.6517 5.38782L62.5607 5.54782L62.8257 5.79282L62.8438 5.95581L63.0488 6.10181L63.2997 6.32883L63.3098 6.40283L63.3948 6.50482L63.4377 6.62982L63.2607 6.75381L63.0237 6.77682L62.8478 6.65982L62.6868 6.51382L62.6448 6.69482L62.5198 6.79883L62.0637 6.76883L61.7377 6.76981L61.4138 6.81482L61.5757 6.84283L61.7228 6.90082L62.2277 7.36282L62.3358 7.53381L62.1588 7.87381L62.2448 8.01282L62.4398 8.09283L62.6777 8.26181L62.8467 8.27881L62.9688 8.37482L62.9738 8.54083L63.0447 8.69083L62.8527 8.75183L63.0427 8.79181L63.2128 8.8688L63.1198 8.94681L63.0477 9.04181L63.1257 9.09283L63.3588 9.17981L63.4608 9.26083L63.5137 9.47781L63.7418 9.83282L64.1578 10.2908L64.2488 10.4578L64.2477 10.6118L64.1788 10.7438L63.9418 10.8978L63.7527 11.1018L63.7297 11.1758L63.4717 11.2698L63.5897 11.3388L63.6838 11.4328L63.8627 11.7158L64.2897 12.1758L64.5048 12.3478L65.3878 12.9718L65.8577 13.2438L66.4578 13.8658L66.7687 14.0098L66.8298 14.1828L66.5698 14.4488L66.1918 14.5818L65.5668 14.6528L64.9398 14.5598L64.6157 14.4838L64.3337 14.3308L64.1118 14.0238L63.8177 13.8578L63.9307 14.0438L64.0018 14.2338L63.9647 14.4408L63.8497 14.6028L63.6517 14.7218L63.4398 14.8188L63.3497 14.8868L62.8118 15.9698L62.7247 16.2628L62.5607 17.4788L62.5577 17.8228L62.7997 18.4658L62.8207 18.8028L62.8688 18.9488L62.8367 19.0698L62.7228 19.1418L62.2607 19.3378L61.9348 19.5008L61.6697 19.7328L61.4557 20.0218L61.2678 20.2308L61.0178 20.3308L60.8358 20.3158L60.6898 20.2198L60.5867 20.0338L60.5278 19.8308L60.4897 19.9808L60.4968 20.1278L60.5828 20.2848L60.6157 20.4508L60.5657 20.6198L60.4587 20.7548L60.1688 20.9018L60.0087 21.0278L59.9777 21.2508L59.9008 21.3758L59.7897 21.4728L59.3807 21.6948L59.2888 21.7838L59.2217 21.8968L59.4398 21.8788L59.6398 21.8968L59.6547 22.1178L59.7178 22.2828L59.6378 22.6438L59.3298 22.8878L59.4838 22.9388L59.6227 23.0188L59.9318 23.0778L60.0358 23.3338L59.9897 23.6438L59.9338 23.9218L59.7117 23.9988L59.5737 23.9478L59.4368 23.9528L59.3358 24.0368L59.3098 24.1808L59.5007 24.1098L59.4897 24.4698L59.4377 24.8208L59.3748 25.0148L59.2578 25.1728L59.0807 25.2238L58.9138 25.1048L58.8798 25.2428L58.9307 25.3588L59.1688 25.6408L59.0228 25.7028L58.9167 25.7988L58.8688 25.9388L58.6097 26.2598L58.4948 26.4958L58.4457 26.7478L58.3248 26.9478L56.3657 27.8198L54.7808 28.5538L54.6667 28.5038L54.5897 28.3918L54.5358 27.2508L54.3397 26.6678L54.3107 26.3388L54.0867 26.6318L53.9498 26.6018L53.8018 26.5268L53.6907 26.4308L53.6818 26.3048L53.8018 25.9428L53.6567 26.1418L53.4988 26.2948L53.3348 26.2758L53.1927 26.1998L53.1407 26.0818L53.0657 26.0638L52.7188 26.3858L52.2618 26.5588L52.0068 26.5558L51.8068 26.4568L51.8168 26.2108L51.7958 25.9708L51.7397 25.8298L51.6168 25.7788L51.5037 25.7968L51.1757 25.9218L51.0588 25.9068L50.9918 25.9698L50.1238 25.0958L49.9487 25.8038L49.3488 26.1798L48.9067 26.3988L48.4678 26.3168L48.0228 26.1768L47.5787 26.3458L47.0967 26.7598L46.9637 26.8228L46.8248 26.8218L46.7228 26.7678L46.7578 26.4538L46.7618 26.1398L46.7258 25.4408L46.6877 25.3028L46.5488 25.1108L46.3647 24.9718L46.2628 25.0728L46.1697 25.2118L45.8038 25.2058L45.4468 25.0948L45.1428 25.1578L44.5388 25.4348L44.2188 25.4778L44.0468 25.4148L43.9368 25.2658L43.9998 25.1288L44.1328 25.0238L43.8848 25.1068L43.6738 25.2468L43.5817 25.3368L43.4827 25.2918L43.2188 24.9758L42.6667 25.0938L42.5928 25.1298L42.4567 25.2378L42.3257 25.1838L42.2607 25.0688L42.2377 24.4088L41.9567 23.1398L41.8798 22.4918L41.8177 22.3388L41.4957 22.1058L41.5068 21.7718L41.6747 21.4918L41.7098 21.1658L41.6617 20.8118L41.5607 20.4658L41.4338 20.2048L41.2518 19.9818L41.0107 19.7318L40.7137 19.5448L40.0737 19.3348L39.7368 19.3538L39.6108 19.2708L39.5267 19.1638L39.5607 18.9538L39.6747 18.8098L39.8278 18.7738L39.8467 18.6918L39.5217 18.5228L39.2507 18.2928L39.1658 18.1548L39.1398 18.0028L39.1417 17.6518L39.2197 17.4298L39.2628 17.3098L39.3458 16.9388L39.5228 16.8258L39.4948 16.7578L39.4188 16.7068L39.3088 16.5848L39.2178 16.4448L39.0107 16.2068L38.6458 15.9208L38.5837 15.4268L38.5367 14.6988L38.5668 14.3678L38.6838 13.7488L38.8868 13.5538L39.0477 13.4998L39.1688 13.4168L39.0687 13.4048L38.9827 13.4358L38.8287 13.4568L38.9557 12.9028L39.0128 12.7428L39.2678 12.4328L39.5668 12.1588L39.6927 11.8358L39.8627 11.5528L40.5657 11.2608L40.3127 11.6268L40.3408 11.7598L40.4028 11.8778L40.5848 11.9608L40.6368 12.4118L40.8657 12.6678L41.0958 12.9018L41.2657 13.0168L41.4528 13.1838L41.5837 13.3388L41.7217 13.4688L41.9297 13.5958L42.4927 14.1368L42.7277 14.2958L42.9028 14.4548L43.0267 14.5108L43.3337 14.4658L44.2407 14.0778L44.4037 14.0528L44.6987 13.9858L45.2197 14.0068L45.7708 14.1388L45.9498 14.1428L46.1198 14.0638L46.3558 14.0868L46.5757 14.1278L46.6857 14.0938L47.0057 13.8108L47.4418 13.7268L47.5828 13.4468L47.6918 13.1828L47.7438 12.9018L47.9257 12.7888L48.1807 12.6908L48.5588 12.5668L49.8698 12.5448L49.9968 12.5988L50.0237 12.7428L49.9968 12.8518L50.0488 12.9168L50.2228 12.9228L50.3837 12.9888L51.0367 13.2148L51.3148 13.2848L51.4697 13.2668L51.7758 13.4688L51.9427 13.3998L52.1638 13.2578L52.3738 13.0668L52.5618 12.9158L52.8348 12.8568L53.1887 12.8648L53.6068 12.8128L53.9218 12.7318L54.2737 12.8658L54.3677 12.8238L54.4288 12.6928L54.6108 12.4058L54.6918 12.2128L54.7618 11.8428L54.8107 11.7548L54.9448 11.7038L55.0817 11.6338L55.1177 11.5228L55.1677 11.3938L55.1268 11.2858L55.0488 11.1948L54.9667 10.8858L54.9927 10.7448L55.0438 10.6398L55.1848 10.5868L55.5568 10.3598L55.8868 10.0938L56.0677 9.96381L56.1467 9.87982L56.1517 9.75781L56.0078 9.63083L55.8698 9.56982L55.8597 9.42282L55.8647 9.32083L55.9067 9.22482L55.8857 9.13181L55.8848 8.99283L55.9728 8.84283L56.1757 8.62082L56.3358 8.47681L56.5137 8.56583L56.7208 8.52481L56.9177 8.45282L57.0267 8.19083L57.0438 8.06583L57.0178 7.96582L57.0858 7.59283L57.1027 7.53882L57.2318 7.30383L57.2448 7.14581L57.1718 6.77881L57.2178 6.50082L57.2388 5.92581L57.3157 5.82281L57.4047 5.52481L57.5488 5.21381L57.8397 5.04483L57.9918 4.82281L58.0588 4.78082L58.1588 4.77881L58.5107 4.94083L58.8267 4.76083L59.1127 4.73981L59.3488 4.76382L59.4818 4.83783L59.6127 4.89081L59.8948 4.71582L60.0007 4.75482ZM88.8038 5.66782L88.6907 5.72583L88.5087 5.70483L88.4888 5.56281L88.6738 5.30783L88.7958 5.03882L88.6658 4.97183L88.5388 4.79984L88.5338 4.59982L88.6378 4.22983L88.7917 4.25983L88.9398 4.41983L89.0007 4.71982L89.0978 4.94781L88.8917 5.25781L88.8038 5.66782ZM3.70074 2.32281L4.04474 2.34781L4.68378 2.19583L5.03473 2.21082L5.36572 2.32083L5.65973 2.38382L6.39172 2.30283L6.52972 2.32382L6.66174 2.38681L6.77374 2.48682L7.10876 2.85083L7.67474 3.29883L7.83777 3.58582L7.93073 3.90881L7.98975 3.98383L8.62976 4.60083L8.69873 4.85883L8.60876 5.21582L8.79474 5.49982L9.41473 5.76682L9.78076 5.96082L9.85876 6.07983L9.91272 6.22183L10.1157 6.43182L10.3698 6.56882L11.1627 6.92981L12.2028 7.68381L12.7938 8.04181L13.2828 8.58582L13.4598 8.84583L13.6058 9.12683L13.9028 9.53583L14.4078 10.0408L14.5358 10.1948L14.6718 10.4178L14.8287 10.6248L15.0167 10.8148L15.2407 10.9608L15.4697 11.0078L15.8387 11.3728L16.0377 11.4868L16.0068 11.2008L15.8387 10.9508L15.8417 10.8008L15.8707 10.6658L16.0078 10.5528L16.1727 10.5208L16.4827 10.6248L16.9858 11.0578L17.1978 11.3098L17.3568 11.6578L17.4907 12.0188L17.6907 12.1988L17.9667 12.2618L18.2737 12.2878L18.5557 12.3988L19.2158 12.8988L19.4348 13.1338L19.6008 13.4098L19.7147 13.7368L19.7858 14.0798L19.8298 14.1588L20.2537 14.5728L20.4767 14.7478L20.7488 14.8328L21.5438 14.9258L21.8228 15.0688L22.0547 15.3068L22.1517 15.5488L21.9868 15.7628L21.3657 16.0908L20.7028 16.3178L21.3478 16.2398L21.6738 16.1448L21.9738 15.9968L22.2708 15.8078L22.7427 15.5438L22.9177 15.4898L23.1238 15.5088L23.3107 15.5838L23.5908 15.8428L23.8547 16.1168L24.0518 16.4358L24.1747 16.7908L23.9487 16.9768L23.6207 17.1138L23.1697 17.4568L23.1218 17.5928L23.2147 17.6798L23.1047 17.9318L23.3577 18.0878L23.3958 18.2198L23.1768 18.4088L23.1978 18.5258L23.4617 19.0258L23.5878 19.1398L23.9907 19.3938L24.6047 19.6508L24.9448 19.7688L25.3307 19.8598L25.4957 19.8578L25.7847 19.8158L25.8438 19.9158L25.9678 20.4078L26.0278 20.7198L26.1168 21.3828L26.2288 21.6578L26.2217 21.9938L26.3688 22.2798L26.6718 22.4628L26.9927 22.6118L27.1448 22.7578L27.1428 22.9778L27.0908 23.1518L26.9827 23.2868L26.6487 23.5738L26.5887 23.6978L26.5417 24.0138L26.5988 24.1588L26.7327 24.1668L26.8367 24.0908L27.2368 23.6668L27.3447 23.5928L27.4957 23.5328L27.6498 23.4948L28.3807 23.4918L28.6918 23.5588L28.9667 23.6968L29.2098 23.8698L30.1008 24.9748L30.5078 25.5848L30.5397 25.7368L30.5468 25.8948L30.4777 26.0168L30.1077 26.4338L30.0607 26.5488L29.9457 27.0028L29.9667 27.3298L30.0897 27.4668L30.1887 27.6158L30.1807 27.7508L29.9368 28.4228L29.9117 28.5378L30.0657 29.6308L30.0767 29.9268L30.0458 30.3018L30.0677 30.9058L29.8677 32.7738L29.8307 32.8848L29.6777 33.1708L29.4767 33.1688L29.3137 33.1188L29.2007 33.0098L29.1378 32.8748L29.0458 32.7638L28.5598 32.4188L28.4327 32.4758L27.9387 32.9038L27.8077 32.9668L27.6428 32.9148L27.3828 32.7868L26.5677 32.3368L26.5178 32.4808L26.5068 32.6758L26.6688 33.1658L26.6918 33.3798L26.5438 33.4218L26.4608 33.4128L26.1218 33.1288L25.8088 32.8138L25.4537 32.3878L25.1937 32.1858L24.9598 31.9598L24.2997 31.1018L24.1277 30.9708L23.1047 30.3658L22.8987 30.2218L22.6368 29.9718L22.3558 29.7488L21.7388 29.3978L20.6688 28.5078L20.2037 27.9968L19.6868 27.1728L19.5178 26.9628L18.6487 26.3448L18.1747 25.9708L17.9767 25.7558L17.5157 25.0068L17.3807 24.7548L17.2108 24.5318L16.9318 24.3508L16.6857 24.1388L16.1978 23.4618L16.0438 23.1918L15.9277 22.8998L15.9487 22.3148L14.9138 20.5438L14.6537 19.9918L14.4127 19.2258L14.3597 19.1488L13.7947 18.4628L13.5958 18.2428L13.3538 18.0368L13.1567 17.7958L12.7667 17.0128L12.6218 16.7958L12.4188 16.6358L11.6807 16.3398L11.4058 16.1748L11.1887 15.9408L11.0557 15.6418L10.9097 15.0078L10.5607 14.0448L10.1708 12.7548L9.90674 12.1768L9.60577 11.7228L9.51776 11.6178L8.17773 10.8008L7.94873 10.6798L7.70575 10.6078L7.35876 10.5558L7.09375 10.3448L6.98578 9.96582L6.92474 9.45782L6.85876 9.15482L6.78577 8.98282L6.22577 8.62381L6.00574 8.33981L5.82275 8.02682L5.65576 7.78482L5.03973 6.94882L4.82874 6.72983L4.56775 6.57681L3.79474 6.41483L3.56775 6.27582L3.19275 5.80081L2.96576 5.55881L2.28577 5.02582L1.13678 3.91083L0.901733 3.63281L0.725769 3.34283L0.582764 3.03183L0.0927734 2.16983L0.132751 1.99582L0.20575 1.81482L0.194763 1.66483L0.140747 1.51682L0.151733 1.38382L0.297729 1.30481L0.624756 1.20383L0.963745 1.21582L1.27777 1.25882L1.58173 1.34183L1.87378 1.52283L2.39575 1.98083L2.69275 2.13983L3.02277 2.21683L3.70074 2.32281ZM0.527771 0.689819L0.472778 0.768829L0.305725 0.727814L0.121765 0.472809L0.189758 0.423828L0.302734 0.449829L0.518738 0.50882L0.53772 0.603821L0.527771 0.689819Z" fill="#FDA5A5"/>
</svg>
