<svg width="83" height="89" viewBox="0 0 83 89" fill="none" xmlns="http://www.w3.org/2000/svg">
<path d="M72.397 87.8342L72.225 88.0652L71.889 87.3572L71.745 87.3142L71.74 86.9772L71.818 86.8442L72.207 86.6952L72.309 86.7782L72.507 87.4342L72.397 87.8342ZM71.958 86.3572L71.691 86.6232L71.575 86.4632L71.623 86.3522L71.736 86.2912L71.842 86.2052L71.958 86.3572ZM71.141 84.8912L70.923 84.8942L70.859 84.7732L70.767 84.6482L70.837 84.5272L70.952 84.4962L71.115 84.6922L71.153 84.8312L71.141 84.8912ZM71.406 84.3882L71.274 84.4922L71.241 84.4782L71.222 84.3982L71.217 84.3422L71.193 84.2412L71.18 84.0632L71.285 83.9142L71.39 83.9452L71.333 84.0972L71.406 84.3882ZM13.959 83.7892L13.919 83.8242L13.878 83.8372L13.85 83.8332L13.835 83.7982L13.843 83.7722L13.879 83.8022L13.927 83.7742L13.981 83.6852L13.994 83.6562L14.005 83.6722L13.994 83.7232L13.959 83.7892ZM70.294 83.8442L70.378 83.9492L70.223 83.9312L70.079 83.7722L70.117 83.6232L70.171 83.5622L70.294 83.8442ZM69.302 81.3422L69.179 81.3582L69.103 81.2622L69.094 81.1502L69.164 81.0772L69.23 81.0392L69.296 81.0492L69.362 81.2382L69.302 81.3422ZM68.504 77.3292L68.419 77.4262L68.13 77.3502L68.151 77.0582L68.083 76.7722L68.133 76.6522L68.35 76.4472L68.526 76.3572L68.648 76.6342L68.705 76.9052L68.504 77.3292ZM13.153 75.4902L13.132 75.5082L13.13 75.4562L13.156 75.3732L13.186 75.3182L13.195 75.3242L13.187 75.3782L13.172 75.4512L13.153 75.4902ZM69.038 74.9812L68.901 75.0382L68.764 74.9672L68.871 74.8522L68.889 74.6182L69.029 74.7482L69.021 74.8962L69.038 74.9812ZM69.948 73.1142L70.073 73.5062L69.847 73.3352L69.774 73.2122L69.887 73.1292L69.948 73.1142ZM69.106 70.7502L69.017 70.9362L68.999 70.5382L69.041 70.4882L69.086 70.4742L69.143 70.5112L69.106 70.7502ZM69.121 74.5412L69.059 74.6082L68.968 74.5332L68.707 74.0222L68.662 73.6942L68.59 73.5802L68.682 73.4172L68.797 73.3632L68.865 73.1792L68.889 72.8992L68.99 72.6702L69.041 72.6062L69.251 72.6042L69.304 72.5752L69.275 72.3562L69.153 72.2612L69.11 72.2002L69.115 71.6752L69.147 71.4632L69.223 71.3102L69.169 70.9942L69.205 70.8762L69.356 70.7102L69.423 70.3562L69.361 70.2502L69.505 69.7042L69.497 69.3382L69.685 68.9722L69.979 68.8052L70.072 68.8012L70.084 69.1142L70.112 69.2172L69.942 69.4022L70.104 69.6432L70.083 69.7302L70.018 69.9212L69.911 70.1092L69.762 70.1862L69.646 70.4362L69.58 70.5302L69.801 70.7932L69.872 71.6852L69.71 71.9292L69.517 71.9782L69.562 72.5722L69.527 72.7052L69.336 72.9962L69.3 73.1232L69.193 73.2432L69.238 73.3922L69.331 73.4572L69.333 73.5792L69.247 73.8922L69.24 74.2492L69.121 74.5412ZM29.821 12.9862L29.814 12.9752L29.649 12.7302L29.821 12.9862L29.729 13.2562L29.748 13.4702L29.918 13.7062L30.056 13.8712L29.921 14.0932L29.841 14.3502L29.931 14.4652L29.889 14.8342L29.929 14.9032L30.024 14.9322L30.172 14.9072L30.285 15.0872L30.183 14.9252L30.172 14.9072L30.325 14.8092L30.456 14.7902L30.534 14.8182L30.638 14.5392L30.73 14.4992L30.908 14.5762L31.26 15.1022L31.558 15.5462L31.621 15.6072L31.644 15.6302L31.697 15.6812L31.991 15.9112L32.194 16.0562L32.471 16.0042L32.837 15.9942L33.054 16.1362L33.179 16.2352L33.185 16.2492L33.202 16.2522L33.642 16.6002L33.832 16.5742L33.958 16.6742L33.994 16.9192L33.935 17.1742L33.949 17.2942L34.145 17.3172L34.562 17.4852L34.93 17.6342L35.121 17.6812L35.326 17.7912L35.508 17.9672L35.863 18.1932L36.177 18.3662L36.246 18.6002L36.122 18.5502L35.958 18.5762L35.791 18.6802L35.712 18.7462L35.331 19.1492L35.131 19.2732L34.952 19.4542L34.539 19.9992L34.3 20.5072L34.126 20.9842L34.129 21.3212L34.065 21.7162L33.887 21.9412L33.778 22.0172L33.649 22.3562L33.556 22.7512L33.61 22.8792L33.832 23.0512L34.048 23.2192L34.323 23.4012L34.587 23.5742L34.757 23.5962L34.804 23.4982L34.866 23.4042L35.06 23.4542L35.296 23.6232L35.45 23.7582L35.518 23.8032L35.926 24.0302L36.264 24.2172L36.692 24.4542L36.796 24.5992L36.888 24.7532L37.09 24.9572L37.581 25.3182L38.001 25.5772L38.343 25.7872L38.611 25.9342L38.735 25.9112L38.871 25.8322L38.99 25.7872L39.129 25.8292L39.339 25.9412L39.832 26.2832L40.292 26.5502L40.793 26.5022L40.926 26.5452L41.02 26.7872L41.083 27.0322L41.643 27.1942L42.011 27.2672L42.432 27.4002L42.645 27.4992L42.869 27.3752L42.91 27.2662L43.087 27.2022L43.381 27.2302L43.929 27.4202L44.158 27.4772L44.35 27.2972L44.707 27.2142L44.894 27.1202L45.284 27.3202L45.988 27.5702L46.351 27.7262L46.437 27.8792L46.476 28.0242L46.473 28.3762L46.562 28.5352L47.268 28.8922L47.501 29.0432L47.689 29.0922L47.795 29.0982L47.868 29.1432L47.931 29.3462L47.981 29.3932L48.117 29.4432L48.265 29.4722L48.724 29.2962L49.038 29.1632L49.262 29.1972L49.407 29.3452L49.428 29.5612L49.512 29.7892L49.672 29.9002L49.844 29.9122L50.27 29.7582L50.613 29.8762L50.927 29.9192L51.277 29.9932L51.413 30.0492L51.775 30.2372L52.218 30.4272L52.389 30.4062L53.102 30.0522L53.163 30.0952L53.308 30.4332L53.525 30.5542L53.864 30.6602L54.218 30.4652L54.497 30.5212L54.835 30.5392L55.159 30.4452L55.44 30.4212L55.849 30.5912L55.939 30.5522L56.017 30.4432L56.176 29.9552L56.317 29.5232L56.304 29.2652L56.175 28.8862L55.844 28.3922L55.82 28.2422L55.931 27.3792L56.054 26.8802L56.159 26.6442L56.275 26.3072L56.296 26.1512L56.284 26.0102L56.171 25.9242L56.141 25.8172L56.169 25.7272L56.259 25.6772L56.635 25.6142L57.059 25.4792L57.228 25.4072L57.355 25.3352L57.485 25.2212L57.606 25.2262L57.986 25.3912L58.119 25.4952L58.189 25.8102L58.246 25.9322L58.196 26.2522L57.968 27.0262L58.013 27.3152L58.202 27.5262L58.367 27.6732L58.34 27.7322L58 27.9812L57.939 28.1142L58.014 28.2442L58.149 28.3542L58.21 28.4592L58.273 28.7852L58.446 28.8772L58.788 29.0872L59.089 29.2402L59.606 29.1382L59.752 29.2072L60.006 29.2792L60.204 29.3012L60.319 29.3552L60.383 29.4072L60.374 29.4732L60.385 29.5412L60.668 29.5592L60.817 29.5982L61.32 29.5282L61.825 29.4322L62.057 29.1412L62.16 29.1202L62.45 29.0072L62.736 29.1312L63.05 29.3002L63.22 29.3512L63.555 29.3782L63.881 29.3592L64.661 29.2782L65.09 29.3202L65.484 29.0782L65.565 29.0792L65.738 29.2662L66.171 29.2832L66.401 29.1932L66.649 29.1242L66.807 29.1022L66.934 29.1002L67.087 29.1182L67.232 29.0562L67.298 28.9312L67.283 28.7422L67.179 28.5362L67.088 28.4152L67.07 28.3512L67.098 28.2022L67.178 27.9922L67.325 27.7522L67.217 27.5192L67.066 27.2522L66.955 27.2262L66.675 27.2882L66.372 27.2762L66.133 27.1152L65.955 26.9132L65.912 26.7442L65.964 26.5372L66.043 26.3472L66.06 26.2762H66.287L66.601 26.3182L66.839 26.3712L67.03 26.3692L67.377 26.1252L67.535 26.1102L67.717 26.0642L67.796 26.0182L67.851 26.0542L68.05 26.0842L68.257 26.0722L68.442 26.0052L68.628 25.9002L68.958 25.6802L69.023 25.5542V25.4382L68.961 25.3612L68.898 25.3242L68.923 25.2232L69.062 25.0532L69.567 24.7972L69.997 24.4812L70.233 24.2442L70.341 23.9572L70.478 23.6452L70.606 23.5222L70.911 23.4442L71.765 23.3292L72.034 23.2032L72.431 22.9692L72.631 22.7852L72.742 22.6362L72.754 22.4702L73.018 22.4182L73.248 22.1492L73.527 21.8782L74.018 21.6492L74.453 21.3412L74.604 21.3902L74.762 21.5362L74.846 21.6972L74.864 21.7792L75.42 21.8812L75.508 21.8652L75.917 22.0092L76.294 22.1832L76.502 22.2262L76.604 22.2212L76.691 22.1672L76.793 22.0142L76.897 21.9032L76.962 21.8582L76.959 21.6822L77.505 21.3382L77.995 21.0912L78.417 20.9112L78.541 20.9852L78.678 21.1222L78.865 21.4712L78.978 21.5562L79.264 21.5072L79.317 21.5462L79.272 21.6712L79.078 21.8262L78.826 21.9652L78.662 22.0792L78.716 22.4582L78.703 22.5882L78.774 22.6292L79.292 22.2532L79.541 22.1792L79.63 22.2702L79.657 22.4712L79.862 22.8852L79.949 23.0952L79.428 23.5952L79.237 23.8532L79.244 23.9442L79.234 24.0342L79.101 24.1622L79.108 24.2132L79.215 24.2942L79.346 24.3552L79.409 24.3532L79.517 24.2322L80.008 24.0612L80.149 24.0932L80.495 24.3552L80.655 24.3702L81.07 24.4482L81.336 24.3492L81.531 24.4402L81.936 24.7682L82.029 24.8282L81.995 25.0272L81.974 25.2462L82.077 25.4202L82.089 25.5742L82.066 25.7152L81.985 25.8122L81.76 25.8662L81.569 26.0342L81.265 26.2772L81.021 26.4712L80.844 26.6432L80.78 26.8232L80.8 27.0502L80.851 27.2872L81.417 28.1552L81.412 28.3052L81.233 28.3472L80.995 28.2492L80.79 28.1092L80.559 27.7372L80.373 27.6262L80.188 27.6022L79.088 27.7932L78.855 27.8472L78.492 27.9862L78.238 28.2652L78.053 28.5202L77.863 28.6232L77.585 28.8212L76.814 29.4292L76.369 29.6912L76.078 29.7872L75.874 29.9252L75.764 30.1492L75.681 30.3102L75.657 30.7052L75.708 31.1912L75.818 31.5012L75.877 31.5662L75.886 31.6572L75.775 31.8242L75.629 31.9672L75.558 32.0552L75.493 32.4972L75.364 32.7142L75.126 33.0332L74.915 33.2742L74.584 33.4612L74.458 33.6122L74.337 33.8912L74.266 34.1272L74.262 34.2122L74.3 34.2872L74.438 34.3702L74.605 34.4502L74.685 34.5752L74.696 34.7262L74.572 35.0892L74.349 35.5922L74.094 35.9902L73.831 36.3692L73.768 36.4932L73.532 36.9582L73.326 37.5972L73.187 38.0262L73.067 38.3202L72.919 38.3332L72.74 38.2392L72.303 38.1142L72.024 38.0132L71.821 37.9222L71.68 37.9262L71.486 37.9852L71.289 38.0262L71.172 37.9822L70.901 37.7172L70.818 37.7472L70.765 37.8762L70.948 38.6322L71.067 38.9132L71.047 39.3822L71 39.9572L70.93 40.5842L70.883 40.7292L70.767 40.8952L70.614 40.9402L70.475 40.8752L70.364 40.8902L70.327 40.9952L70.359 41.2662L70.223 41.5762L70.123 41.8412L70.149 42.0982L70.197 42.3592L70.356 42.9232L70.357 43.1292L70.326 43.3142L70.243 43.3912L70.1 43.3782L70.022 43.4542L69.963 43.5702L69.802 43.9972L69.648 44.0422L69.493 43.9782L69.261 43.6932L69.119 43.6102L69.029 43.6152L68.989 43.6902L68.926 43.8602L68.863 43.9742L68.708 44.0742L68.67 43.8642L68.587 42.7722L68.524 42.4242L68.473 41.9412L68.398 41.7932L68.302 41.5282L68.196 41.2992L68.107 41.2022L68.05 40.7752L68.029 40.2522L68.03 40.0042L67.905 39.4912L67.783 38.9092L67.618 38.9332L67.52 38.7922L67.449 38.7952L67.217 38.9262L67.032 38.8832L66.895 38.9012L66.894 39.1692L66.917 39.4542L66.865 39.5572L66.503 39.8912L66.402 40.1152L66.412 40.3502L66.457 40.6642L66.393 40.8242L66.236 40.9712L66.025 41.0482L65.839 41.0122L65.72 40.8842L65.609 40.5582L65.51 40.3802L65.406 40.3382L65.325 40.3862L65.314 40.5912L65.32 40.7602L65.294 40.7792L65.236 40.7532L65.17 40.6702L64.997 39.8522L64.75 39.2212L64.735 38.9792L64.825 38.6672L64.936 38.1862L65.229 37.8862L65.267 37.7592L65.315 37.6582L65.386 37.6382L65.762 37.6662L65.888 37.6182L65.999 37.4762L66.161 37.3622L66.323 37.3162L66.452 37.2992L66.659 37.4072L66.745 37.3452L66.808 37.1452L66.898 36.9472L66.956 36.8512L67.095 36.8082L67.272 36.7982L67.331 36.7612L67.379 36.6942L67.423 36.4312L67.649 35.8422L67.729 35.5802L67.741 35.5342L67.734 35.2422L67.798 35.2002L68.173 35.3432L68.337 35.3412L68.426 35.2822L68.455 35.1752L68.407 35.0502L68.14 34.8312L67.666 34.5362L67.231 34.3552L66.427 34.3822L65.631 34.4392L65.398 34.4102L65.107 34.3282L64.392 34.3402L63.528 34.3852L63.199 34.3602L63.037 34.3632L62.712 34.3902L62.182 34.3062L61.815 34.1982L61.49 34.0792L61.104 33.9722L61.011 33.9732L60.957 33.9342L60.92 33.8392L60.907 33.7162L60.987 33.1462L60.916 32.2802L60.981 31.9642L60.665 31.2522L60.557 31.1202L60.411 31.1142L60.318 31.2062L60.281 31.3732L60.334 31.5602L60.218 31.7682L59.985 31.8352L59.713 31.7652L59.487 31.6672L59.196 31.4552L58.977 31.1562L58.958 30.8252L58.859 30.6122L58.724 30.5082L58.625 30.4792L58.536 30.5022L58.458 30.6182L58.526 30.7332L58.619 30.8952L58.588 31.0052L58.505 31.0222L58.381 30.9752L58.189 31.0002L58.003 30.9162L57.892 30.9092L57.782 30.8782L57.775 30.6872L57.606 30.4452L57.32 30.1742L57.039 30.0062L56.904 30.0292L56.836 30.2142L56.852 30.2832L56.951 30.3172L57.093 30.4242L57.123 30.5362L57.102 30.6342L56.927 30.8132L56.803 30.9832L56.526 31.2302L56.29 31.5132L56.228 31.7272L56.139 31.9192L56.104 32.1302L56.166 32.2762L56.28 32.3682L56.576 32.4352L56.886 32.7192L57.136 33.1022L57.277 33.2182L57.533 33.3472L58.026 33.3622L58.099 33.4672L58.169 33.7482L58.266 33.8472L58.517 33.9792L58.538 34.0762L58.477 34.1882L58.366 34.2762L58.161 34.3322L57.966 34.3542L57.77 34.3182L57.479 34.2962L57.149 34.2942L56.915 34.9932L56.748 35.2382H56.653L56.398 35.1192L56.289 35.1382L55.995 35.7582L55.954 35.9072L55.934 36.0192L56.09 36.2582L56.277 36.4552L56.5 36.5322L56.675 36.4732L56.817 36.5522L56.983 36.7502L57.268 36.8812L57.671 36.9442L57.9 37.1002L57.928 37.2352L57.908 37.3722L57.872 37.7282L57.833 37.9332L57.616 38.4712L57.461 38.9342L57.541 39.1542L57.599 39.2442L57.654 39.3132L57.828 39.4862L57.949 39.6572L57.845 40.0942L57.902 40.2092L58.135 40.2862L58.386 40.3452L58.474 40.4172L58.256 40.8602L58.302 41.1682L58.394 41.4572L58.46 41.9292L58.47 41.9792L58.452 42.0972L58.595 42.4632L58.816 43.1762L58.833 43.4422L58.82 43.7232L58.755 44.1922L58.534 44.1902L58.731 44.5032L58.794 44.7282L58.821 45.0422L58.584 45.0812L58.416 45.0462L58.276 44.7712L58.211 45.0212L57.961 45.2522L57.871 45.1392L57.819 45.0182L57.809 44.8042L57.947 43.9872L57.919 43.8952L57.857 43.8342L57.72 43.8012L57.669 43.6352L57.46 44.5072L57.552 44.8632L57.51 45.0252L57.12 45.1612L56.725 44.8342L56.675 44.7292L56.652 44.9132L56.581 45.1372L56.211 45.0962L56.028 44.9212L56.147 44.6232L56.376 43.9032L56.419 43.5822L56.112 43.3462L55.852 43.2012L55.703 42.8732L55.76 43.2332L55.899 43.3612L56.101 43.4512L56.315 43.6352L56.161 43.8592L56.011 43.9982L55.724 44.5262L55.374 44.8212L54.966 45.0432L53.626 45.3692L53.345 45.5012L52.934 45.9072L52.668 46.2922L52.619 46.6822L52.769 47.1032L52.891 47.7612L52.993 47.8952L52.85 48.1352L52.601 48.3902L52.395 48.7332L52.414 48.9212L52.361 49.0482L51.655 49.4692L51.507 49.7152L51.313 49.9592L51.081 49.8192L50.945 49.8212L51.132 50.0152L51.108 50.1432L51.042 50.2182L50.864 50.2882L49.844 50.5972L49.064 50.8902L48.845 50.8782L48.885 50.7892L49.022 50.7102L49.008 50.3742L48.865 50.3122L48.741 50.2882L48.147 50.6982L47.907 51.1032L47.957 51.1802L48.092 51.1612L48.491 50.9322L48.677 50.9972L48.69 51.0872L48.084 51.4372L46.809 52.5692L46.749 52.7922L46.583 53.0442L46.354 53.2812L45.943 53.8542L45.155 54.7052L44.936 55.0222L43.674 55.6762L43.444 55.8702L42.926 56.5062L42.394 57.0262L41.773 57.4572L40.696 58.0062L40.041 58.5252L39.836 58.8702L39.823 58.9932L39.893 59.1602L40.013 59.3162L40.04 59.4402L39.981 59.6622L39.949 59.7852L39.757 60.0892L39.428 60.3062L38.363 60.7592L38.222 60.7452L37.353 60.6552L37.028 60.7372L36.894 60.9492L36.595 61.8262L36.309 62.0592L36.206 62.2702L36.165 62.4162L35.993 62.4122L35.845 62.3472L35.737 62.3942L35.613 62.1002L35.405 62.0402L35.233 62.0192L34.499 62.3152L34.242 62.5532L33.702 63.6742L33.568 64.3962L33.695 65.1922L33.883 65.8272L33.92 66.1142L33.897 66.4862L33.801 66.6672L33.733 66.8812L33.823 67.3222L34.05 67.8992L34.105 68.1432L34.11 68.3942L34.281 68.9702L34.166 68.8662L34.075 68.6232L33.859 68.3132L33.594 68.6222L33.74 68.8442L34.234 69.1082L34.38 69.3242L34.062 71.2452L33.821 71.9262L33.525 72.3722L33.368 72.5442L33.017 73.2522L32.773 74.1032L32.724 74.4302L32.834 74.7962L32.709 75.0122L32.553 75.1772L32.85 75.1032L32.952 75.3012L32.99 75.5062L32.994 76.7222L32.961 77.9882L32.732 78.0402L32.481 78.0532L32.259 78.0172L32.1 77.9682L31.704 78.0352L31.491 78.1752L31.32 78.4072L31.332 78.8032L30.598 79.7992L30.44 80.1312L30.382 80.4502L30.477 80.6172L30.665 80.7882L30.91 80.8572L31.383 80.9262L31.61 81.0172L31.764 81.1862L31.207 81.0062L30.552 80.9702L28.986 81.4322L28.574 81.7562L28.344 82.0372L28.186 82.6792L28.159 83.1082L27.973 83.4652L27.16 84.0132L26.646 84.1822L26.451 84.3282L25.845 84.1392L25.184 83.6592L24.906 83.4012L23.925 82.1612L23.746 82.0042L23.548 81.4732L23.517 81.2752L23.462 81.1962L23.369 81.1422L23.324 81.0602L23.103 80.4522L23.013 79.8182L22.872 79.1092L22.99 79.1582L23.154 79.3912L23.236 79.7302L23.246 80.2042L23.369 80.2592L23.479 80.2142L23.164 79.1222L22.89 78.8512L22.818 78.8332L22.741 78.6582L22.733 78.4382L22.757 78.3342L22.538 77.9762L22.461 77.7632L21.975 76.6802L21.756 75.9032L21.417 75.0382L21.198 74.7352L20.857 74.0672L20.571 73.7562L20.268 73.3392L20.03 73.1542L19.937 73.0572L19.232 71.6102L19.015 70.8092L18.831 70.4312L18.74 70.1432L18.493 68.9122L18.491 68.6922L18.461 68.4512L18.285 67.9292L17.976 67.3642L17.887 67.0122L17.888 66.8752L17.692 66.3252L17.65 66.0742L17.518 65.8422L17.364 65.6292L17.204 65.4582L16.827 64.9002L16.692 64.7642L16.435 64.4022L16.252 63.7332L16.018 63.4712H16.386L16.161 63.2232L16.055 63.0612L15.937 62.9612L16.108 62.7112L15.828 62.7182L15.68 62.5682L15.477 62.0982L15.108 61.5662L15.045 61.2822L14.719 60.3872L14.443 58.2342L14.19 57.2732L14.21 56.9972L13.904 56.1632L13.755 55.6032L13.694 55.1282L13.613 54.8162L13.54 54.1962L13.423 54.0002L13.41 53.8822L13.488 53.5992L13.707 53.1622L13.788 52.8852L13.693 52.4952L13.494 52.9052L13.308 53.0202L13.219 52.7142L13.218 52.3022L13.195 52.2032L13.244 52.0652L13.736 52.1282L13.176 51.8752L13.11 51.7272L13.089 51.6162L13.209 51.4112L13.005 51.2382L12.923 50.7082L12.863 50.5872L12.84 50.4892L12.956 49.7562L13.438 48.3132L13.474 47.9862L13.432 47.5212L13.325 47.1512L13.279 46.7592L13.25 46.6582L13.075 46.6222L12.909 46.4772L12.717 45.8952L12.893 45.7042L13.029 45.5992L12.842 45.6432L12.688 45.6252L12.98 45.3562L13.241 45.1502L13.836 44.9112L14.089 44.7582L13.715 44.8962L13.323 44.9482L12.491 44.9202L12.63 44.3762L12.775 44.1942L12.932 44.0922L12.701 44.1232L12.433 44.0802L12.519 43.5272L12.73 43.4072L12.957 43.3842L13.239 43.3052L12.937 43.2142L12.624 43.1702L12.247 43.2612L11.901 43.1942L11.48 43.1952L11.648 43.2692L11.828 43.4372L11.738 43.7372L11.653 43.9242L11.422 44.0532L11.233 44.2482L11.18 44.4192L11.073 44.5392L11.258 44.6242L11.448 44.6852L11.558 44.8242L11.688 45.0252L11.681 45.4162L11.183 46.3352L11.011 46.5402L9.76398 47.0942L9.27502 47.3952L8.23102 47.7862L7.82501 47.8592L7.375 47.7812L6.71698 47.4842L5.71301 46.7232L5.45197 46.4722L4.64899 45.4932L4.07001 44.9742L3.63098 44.4912L3.08698 44.0332L2.57397 43.4152L2.46497 43.1332L2.50299 42.8462L2.69397 42.6902L2.91797 42.7532L3.09497 42.9952L3.21997 43.1032L3.32501 43.1472L4.091 42.7762L4.388 42.7912L4.591 42.6052L4.84802 42.6462L5.37201 42.3562L5.59198 42.3382L5.854 42.2802L6.276 41.5452L6.59198 41.0772L6.797 40.9792L6.78497 40.8652L6.72797 40.7162L6.57501 40.7542L6.46802 40.8962L6.38898 41.0682L6.30902 41.1712L6.06097 41.0762L5.89398 41.0922L5.68799 41.1482L4.935 41.4222L4.625 41.6682L4.41498 41.7172L3.21198 41.4462L2.03601 40.8242L1.54102 40.4102L1.22797 39.8812L0.914978 39.2502L1.01801 39.0732L1.50397 38.6932L1.92401 38.3942L1.547 38.5272L1.13898 38.7122L0.937012 38.8412L0.708008 39.1122L0.403992 39.1732L0.283997 38.7712L0.208008 38.3792L0.401978 38.2472L0.537964 38.1642L0.813965 38.0942L1.11597 38.0442L1.39001 38.0462L1.77698 38.0522L1.78796 37.1322L1.82001 37.0512L1.875 37.0042L1.93799 36.9842L1.99097 36.9982L2.07001 37.1362L2.16901 37.1282L2.27399 37.0482L2.508 37.1082L2.69598 37.0672L2.88599 37.1212L3.21002 37.1222L3.79498 37.1002L4.12 37.1072L4.33002 37.2532L4.56 37.4142L4.80902 37.4372L5.16998 37.4182L5.41498 37.3562L5.539 37.2062L5.63202 37.0622L6.16699 36.8522L6.729 36.6812L6.89099 36.6622L6.94202 36.7622L6.91699 36.9292L6.98199 37.0882L7.20801 37.1892L7.367 37.2142L7.51001 37.1912L7.61597 37.1402L7.84399 36.8902L7.96198 36.8332L8.11499 36.8372L8.28699 36.7172L8.28998 36.6252L8.18097 36.5812L8.08801 36.4492L8.10602 36.3422L8.07898 36.1902L8.09802 36.0462L8.17102 35.9382L8.29901 35.8342L8.22302 35.6192L8.02698 35.2072L7.82202 34.6792L7.60498 34.2392L7.33002 33.8532L7.18799 33.5692L7.203 32.9422L7.17902 32.8152L7.08398 32.7372L6.95697 32.6942L6.77802 32.7582L6.617 32.7702L6.271 32.7562L6.10101 32.6922L5.63898 32.0612L5.578 31.8132L5.57599 31.5582L5.729 31.1142L5.776 30.7002L5.797 30.3142L5.77197 30.2052L5.67902 30.0752L5.52399 29.9792L5.10901 29.9562L4.61597 29.8282L4.237 29.6032L3.97302 29.4672L3.90198 29.3782L3.87 29.2742L3.93896 28.8052L4.05798 28.2762L4.14502 28.1142L4.29498 27.9462L4.40601 27.8322L4.58398 27.6812L5.065 27.1752L5.49597 26.4782L5.763 25.9912L5.90198 25.8462L6.04401 25.7222L6.25098 25.5722L6.49097 25.4352L6.729 25.4412L6.95502 25.5662L7.12299 25.7122L7.17999 26.0352L7.29901 26.2442L7.427 26.3702L7.59698 26.4312L7.81396 26.4162L8.68298 26.0462L8.979 25.9712L9.68896 25.9252L10.176 25.7822L10.607 25.6322L10.66 25.3632L10.826 24.9522L11.332 24.4162L11.475 24.1772L11.628 23.7192L11.791 23.3012L11.932 23.1272L12.728 22.6672L13.507 22.2442L13.635 22.0522L14.139 21.1722L14.427 20.5732L14.502 20.3802L14.669 19.8592L14.85 19.3392L15.09 19.2182L15.625 19.0202L16.049 18.8262L16.267 18.6042L16.398 18.4102L16.374 18.2182L16.257 17.9902L16.281 17.8542L16.302 17.7202L16.611 17.4472L17.19 16.6382L17.538 16.2332H17.653L18.016 16.0172L18.361 15.7732L18.341 15.6622L18.298 15.5182L18.1 15.4542L18.037 15.2812L18.086 15.0332L18.252 14.3662L18.218 14.1742L18.016 13.5542L18.061 13.3832L18.144 13.2072L18.37 12.9732L18.661 12.7782L19.593 12.3162L19.782 12.2652L20.105 12.1482L20.303 11.9012L20.327 11.6902L20.24 11.5592L20.047 11.3832L19.684 11.2242L19.356 11.0852L18.799 11.1002L18.51 10.9812L18.431 10.8982L18.391 10.6042L18.447 10.1062L18.36 10.0622L18.236 10.1212L17.942 10.0622L17.581 10.0692L17.443 9.93024L17.511 9.76321L17.49 9.54022L17.436 9.32822L17.38 9.28421L17.207 9.23322L16.938 9.04922L16.721 8.82224L16.594 8.66821L16.555 8.56223L16.567 8.49222L16.725 8.29523L16.913 8.01822L16.982 7.78021L17.003 7.60724L16.95 7.48022L16.777 7.32422L16.592 7.18723L16.518 7.06824L16.515 6.88821L16.584 6.66324L16.801 6.49323L17.186 6.33221L17.286 6.13223L17.273 5.98422L17.168 5.94022L16.897 5.93921L16.441 5.88821L16.364 5.80621L16.312 5.69623L16.311 5.58722L16.408 5.46323L16.524 5.30621L16.503 5.15323L16.369 4.98022L16.048 4.85422L16.004 4.67523L16.054 4.52621L16.16 4.31323L16.253 4.16522L16.472 3.74323L16.738 3.65121L17.064 3.51422L17.424 3.36322L17.979 3.47623L18.249 3.53223L18.795 3.66122L19.253 3.76923L19.721 3.80023L19.915 3.79224L20.129 3.92023L20.658 4.13922L21.088 4.25421L21.379 4.25323L21.808 4.05923L22.022 3.88123L22.31 3.68622L22.679 3.69421L23.477 3.39322L23.626 3.44522L23.863 3.46222L24.149 3.28824L24.296 3.08221L24.319 2.97821L24.39 2.90222L24.696 2.77121L25.003 2.58923L25.086 2.34921L25.137 2.18622L25.473 1.97623L25.823 1.75723L26.189 1.52823L26.605 1.26721L26.957 1.04623L27.245 0.865234L27.277 0.904236L27.39 0.986237L27.512 1.02621L27.655 0.949219L27.834 0.885223L27.928 0.921234L27.941 1.02524L27.834 1.51321L27.843 1.70422L28.022 2.10123L28.254 2.74423L28.472 3.34622L28.6 3.74023L28.727 3.90121L29.256 4.06622L29.692 4.20123L29.951 4.42221L30.237 4.63422L30.437 4.76422L30.532 4.93121L30.552 5.08124L30.534 5.18222L30.425 5.31522L29.923 5.65723L29.863 5.76523L29.848 5.90723L29.947 6.33023L30.009 6.59521L30.027 7.12723L30.06 7.63223L30.238 7.86221L30.384 8.01022L30.473 8.14423L30.653 8.32922L30.804 8.46622L30.933 8.54721L30.996 8.72821L30.959 8.94122L30.905 9.12622L30.922 9.22623L31.026 9.29721L31.185 9.48224L31.206 9.75223L31.195 9.93823L31.258 10.1052L31.275 10.2902L31.226 10.7512L31.234 10.9592L31.095 10.9722L30.976 11.0432L30.807 11.3332L30.612 11.4092L30.391 11.4322L30.163 11.2542L29.976 11.0682L29.925 10.9652L29.878 10.7692L29.777 10.6412L29.583 10.7012L29.288 10.7282L28.969 10.7712L28.91 10.8142L28.904 10.8972L28.982 11.0732L29.048 11.3022L29.088 11.6222L29.174 11.8342L29.201 11.9012L29.712 12.5372L29.846 12.6662L29.874 12.7512L29.821 12.9862Z" fill="#212121"/>
</svg>
