<svg width="90" height="56" viewBox="0 0 90 56" fill="none" xmlns="http://www.w3.org/2000/svg">
<path d="M60.2555 21.9041L60.2045 22.545L60.0345 23.069L59.4755 24.1581L59.2425 24.832L58.7915 26.75L58.6525 28.002L58.6195 28.59L58.5805 28.673L58.6225 28.759L58.5145 30.056L58.5725 31.16L58.5355 31.3311L58.3715 31.6631L58.2565 32.122L58.3015 32.326L58.2995 32.467L58.4675 33.164L58.5215 33.687L59.0225 34.5811L59.3035 34.893L59.6525 35.1631L59.7805 35.315L59.7175 35.694L59.5755 35.885L59.5145 36.189L59.4445 35.938L59.4715 35.612L59.5825 35.437L59.5865 35.3091L59.3815 35.172L59.0065 34.7231L58.5485 33.927L58.8745 35.198L58.9865 35.401L59.0735 35.485L59.2195 35.574L59.2575 35.712L59.2585 35.814L59.6605 36.694L60.1155 37.6021L60.1395 37.85L60.3215 38.155L61.4805 39.425L62.1895 40.371L62.4355 41.267L62.5835 41.5461L62.6565 41.928L63.1205 42.356L63.2625 42.632L63.5115 42.785L63.7125 43.247L64.0905 43.517L64.0005 43.522L63.6695 43.386L63.6915 43.476L63.9695 43.6671L64.5145 43.855H64.6505L64.4355 43.757L64.2535 43.625L64.3175 43.606L64.6985 43.7701L65.7635 43.824L66.2325 44.207L66.8405 44.372L67.1675 44.8611L67.5475 45.371L67.7905 45.3951L67.9795 45.397L68.5495 45.311L69.4355 44.9901L69.7405 44.833L70.3355 44.62L71.2465 44.5811L71.5285 44.6411L72.2095 44.508L72.5345 44.345L72.6475 44.1971L72.7005 44.088L73.3315 43.932L73.4565 43.901L74.0955 43.873L74.4045 43.815L74.7675 43.781L75.0295 44.011V44.123L74.8545 44.229L74.9365 44.332L75.2475 44.502L75.8175 44.571L76.0025 44.544L76.2655 44.293L76.7285 44.05L76.7185 43.767L76.6355 43.612L76.5015 43.6021L76.4695 43.515L76.5635 43.307L76.5395 43.237L76.2515 43.437H76.1855L76.2175 43.3441L76.2775 43.2701L77.1215 42.834L77.3375 42.655L77.6295 42.497L78.2345 41.9041L78.3635 40.786L78.4845 40.59L78.8855 40.246L78.9285 40.142L78.9545 39.9081L78.9435 39.319L78.9655 38.855L78.9485 38.33L79.0205 37.8611L79.0855 37.73L79.3155 36.978L79.7935 36.6451L80.6225 36.25L80.8125 36.185L83.4535 35.767L83.8245 35.665L84.2785 35.394L84.6105 35.302L85.2155 35.3091L85.4015 35.273L85.4385 35.2361L85.4395 35.199L85.5515 35.162L85.9015 35.198L86.5555 35.362L86.7935 35.403L87.3785 35.593L88.0225 35.669L88.1145 35.636L88.1995 35.578L88.2645 35.467L88.1975 35.37L88.1345 35.377L88.0255 35.429L87.8955 35.4341L87.6405 35.354L87.6915 35.287L87.9515 35.293L88.1185 35.261L88.3655 35.144L88.6285 35.2321L88.9745 35.62L89.2205 35.743L89.2405 36.3051L89.2775 36.4081L89.3675 36.556L89.2445 36.991L89.1065 37.35L88.9335 37.644L88.5595 38.1071L88.1055 38.4771L87.5435 39.298L87.4155 39.682L87.4185 39.9901L87.5135 40.287L87.4865 40.397L87.4175 40.508L87.3035 40.498L87.0815 40.64L86.7955 41.062L86.7895 41.19L86.9145 41.308L87.0775 41.251L87.2895 41.246L87.4085 41.211L87.5335 41.22L87.5055 41.462L87.3715 41.634L87.2865 41.688L87.1345 41.717L86.9645 41.815L86.8775 41.905L86.8855 42.1841L86.9795 42.2061L87.1795 41.998L87.2955 42.008L87.3185 42.096L87.0595 42.8091L86.8925 43.54L86.6665 43.963L86.5865 44.578L86.4675 44.84L86.3295 45.099L86.2485 45.0851L86.0305 44.5941L85.8075 44.468L85.7585 44.349L85.8855 43.7531L85.8275 43.423L85.7095 43.436L85.5615 43.617L85.3645 43.774L85.3685 44.001L85.1425 44.3781L85.0865 44.502L84.8715 44.4731L84.6215 44.489L84.4485 44.58L84.2715 45.037L83.8295 45.6801L83.6535 45.991L83.5095 46.0981L83.3965 46.14L83.2705 46.067L82.9685 45.8911L82.7355 45.975L82.6545 46.177L82.6575 46.432H82.0675L81.0655 46.431L79.7895 46.4301L78.5595 46.429L77.5295 46.428L77.5255 47.001L77.5225 47.508L77.5195 48.078L76.9515 48.073L76.3505 48.0681L76.3985 48.125L76.6045 48.2321L76.8715 48.487L77.1865 48.884L77.5685 49.2L78.0175 49.435L78.3125 49.665L78.4555 49.89L78.5275 50.0811V50.239L78.6915 50.364L78.9845 50.4471L79.1365 50.588V50.703L79.0435 50.9641L79.0165 51.252L79.0525 51.5121L78.8425 51.5161H78.3335L77.5585 51.517H76.8455H76.2835L75.4345 51.518L75.2015 51.918L74.8145 52.582L74.4635 53.183L74.1695 53.688L74.1215 53.821V53.929L74.4855 54.401L74.4185 54.5381L74.2915 54.61L74.2505 54.721L74.2585 54.901L74.1725 55.14L74.2005 55.3051L74.2465 55.508L74.1705 55.6841L74.1085 55.854L74.0355 55.928L73.9525 55.864L73.2045 55.08L72.4245 54.217L72.1175 53.935L71.8205 53.721L71.4205 53.323L70.3705 52.448L69.8285 52.048L69.3185 51.569L68.8605 51.303L68.4095 51.13L68.2085 51.03L68.0325 50.899L67.9345 50.8911L67.8855 51.069L68.0435 51.1581L68.2325 51.234L68.3815 51.239L68.5385 51.302L69.0015 51.545L69.0775 51.67L67.7605 51.1841L67.2245 51.139L67.1665 51.063L67.4335 50.8091L67.3505 50.717L67.2555 50.704L66.9685 50.88L66.8625 50.892L66.8435 50.776L66.8565 50.6671L66.6715 50.507L66.5545 50.513L66.4585 50.625L66.2085 50.836L66.2165 50.919L66.7065 51.009L66.8755 51.06L66.8365 51.116L66.4165 51.1151L65.8965 51.211L64.9705 51.798L64.1085 52.05L62.8685 52.614L62.3215 52.643L62.0345 52.733L61.2005 52.517L60.1435 51.987L58.5435 51.82L57.4655 51.125L56.3955 50.8391L55.7165 50.1711L55.3075 50.142L55.0445 50.035L54.0725 49.793L53.1115 49.633L52.1745 49.048L51.5615 48.862L51.0315 48.629L49.8645 48.231L49.4315 48.01L49.0225 47.668L48.3555 47.314L48.0705 47.018L47.7525 46.912L47.2975 46.354L47.0605 46.119L46.8595 46.009L46.6445 45.971L46.0235 46.0161L45.0965 45.769L44.6685 45.7061L43.7735 45.342L42.5855 44.935L42.1965 44.467L41.8635 44.03L41.2635 43.454L40.8895 43.208L40.2405 42.916L39.8805 42.679L39.3255 42.497L38.3835 42.035L38.0845 41.639L37.9095 41.287L37.4085 40.859L36.8595 40.06L36.7175 39.765L36.6115 39.312L36.4845 39.049L36.3345 38.843L36.4115 38.6931L36.6905 38.508L37.1545 38.466L37.4825 38.2661L37.5255 38.101L37.5045 37.9991L37.2945 37.747L37.0335 37.6801L36.8305 37.6761L36.7785 37.58L36.9315 37.475L37.1065 37.229L37.3645 36.929L37.5465 36.652L37.5805 36.261L37.5575 35.87L37.6265 35.539L37.0015 35.157L36.9285 34.994L36.7315 34.5551L36.3905 34.045L36.4005 33.024L35.9895 32.116L35.5645 31.664L35.3445 31.506L34.7475 30.803L34.2765 30.394L33.8155 29.623L33.3595 29.132L32.7795 28.307L32.3605 27.8951L30.4515 26.5H30.5585L31.1185 26.843L31.2125 26.815L31.2255 26.648L31.1615 26.448L31.0575 26.4001L30.9085 26.445L30.7075 26.403L30.6065 26.337L30.3055 26.295L29.9285 26.062L29.7665 25.82L29.7485 25.544L29.2075 24.955L29.0025 24.626L29.1075 24.6501L29.2515 24.782L29.3975 24.82L29.5675 24.821L29.6905 24.768L29.6465 24.67L29.5305 24.588L28.7425 24.277L28.4825 24.0591L27.8365 23.695L27.6835 23.567L27.5815 23.215L27.4235 23.198L27.2845 23.2961L26.9035 23.392L26.8065 23.28L26.7925 23.172L27.0615 23.058L27.3085 22.725L27.3035 22.609L27.1675 22.743L26.9615 22.892L26.7495 22.975L26.4345 23.044L26.2725 22.994L26.1315 22.919L25.9045 22.6281L25.7905 21.6801L25.9905 21.351L26.2245 21.0251L26.4235 20.832L26.5385 20.978L26.6565 20.996L26.5735 20.8311L26.3775 20.677L26.3085 20.523L26.3015 20.382L26.2085 20.12L25.6285 19.569L25.0865 19.6111L24.8655 19.592L24.6585 19.382L24.4825 19.028L24.3965 18.731L24.3855 18.573L24.3335 18.414L23.3985 18.1541L23.1175 17.931L22.8355 17.6501L22.7185 17.4211L22.6085 17.252L22.5185 16.9561L22.4545 16.6111L22.5585 16.164L22.6945 15.948L22.0515 15.787L21.8005 15.78L21.5975 15.871L21.4145 15.754L21.0345 15.6241L20.5825 15.155L20.0515 14.303L19.4675 14.0291L19.2795 13.7321L19.0405 13.4641L18.8315 13.132L18.7995 12.987L18.7365 12.906L18.4445 12.674L18.1165 12.281L18.0315 11.965L17.9435 11.481L17.7245 11.31L17.5095 11.231L17.4675 11L17.4805 10.871L17.4075 10.626L16.9635 10.0381L16.7385 9.55405L16.6145 9.40305L16.4985 9.18204L16.4395 8.72903L16.2555 8.16504L15.8995 7.48605L15.6025 7.02805L15.4545 6.56604L15.5205 6.09503L15.4705 5.80405L15.4325 5.73605L15.4625 5.64105L15.5615 5.69403L15.6445 5.60904L15.6345 5.30804L15.5305 5.21704L15.2425 5.12305L15.1155 5.05804L14.4155 4.93503L14.0145 4.76404L13.9885 4.36603L13.8005 4.18304L13.6335 4.07004L13.1055 3.83505L13.0225 3.95505L12.9515 4.17703L12.7315 4.22504L12.5395 4.23505L12.2175 4.08105L11.4185 3.49405L11.2495 3.40005L11.0005 3.35004L10.8755 3.25204L10.3355 2.94205L10.4435 3.10706L10.5995 3.27805L10.7385 3.77505L10.5755 4.13303L10.4805 5.38104L10.5845 5.62903L10.8185 6.02603L10.9805 6.65503L11.0305 7.12305L11.1765 7.49405L11.1305 8.36404L11.1865 8.62805L11.4095 9.06104L11.8225 9.46704L11.9085 9.68005L12.4505 9.98904L12.7805 10.39L13.4345 10.936L13.6405 11.166L14.2305 12.015L14.2495 12.267L14.3585 12.576L14.6895 12.5121L14.8375 12.747L14.8205 12.855L14.8605 12.938L15.0335 12.92L15.1825 12.984L15.4965 13.897L15.6645 14.022L15.8805 14.075L16.1215 14.1761L16.1375 14.409L16.1285 14.595L16.3325 14.864L16.2975 15.228L16.4625 15.536L16.4375 15.834L16.5055 16.069L17.0145 16.601L17.6415 17.023L17.7725 17.576L18.0285 18.0811L18.2905 18.208L18.5545 18.4171L18.5215 18.635L18.5405 18.768L18.8945 19.165L18.9515 19.67L19.2565 20.001L19.3425 20.027L19.4095 19.975L19.1875 19.643L19.0805 19.427L19.0665 19.087L19.1415 19.0421L19.7745 19.58L19.8415 19.981L20.0535 20.208L20.0695 20.514L20.1985 20.696L20.2375 20.9601L20.4415 21.3951L20.4465 21.998L20.5545 22.437L20.9535 23.11L21.2765 23.251L21.3345 23.5811L21.6705 24.433L22.0585 24.894L22.2515 25.285L22.2775 25.528L22.1325 25.888L22.1165 26.138L22.3275 26.9001L22.6425 27.29L22.9955 27.384L23.0565 27.44L23.0285 27.544L23.1465 27.6371L23.2795 27.518L23.3445 27.349L23.2775 27.152L23.2655 27.009L23.3255 26.906L23.4405 26.8911L24.1145 27.411L24.2275 27.6111L24.4775 27.8441L24.7075 28.131L24.8065 28.3571L24.9905 28.544L25.0855 28.978L25.5545 29.172L25.8035 29.53L25.8205 29.757L25.6995 30.337L25.5945 30.504L25.2165 30.751L24.9415 31.044L24.6755 31.225L24.3935 31.3351L24.1615 31.31L23.9375 30.9731L23.6715 29.952L23.4935 29.737L23.3685 29.416L23.1605 29.1501L22.4105 28.747L22.0325 28.321L21.6655 28.036L21.2705 27.623L20.1945 26.938L19.7485 26.5891L19.4545 26.243L19.2655 26.248L19.1195 26.284L19.0635 26.189L19.0555 26.009L18.9905 25.892L18.3615 25.37L18.2315 25.0811L18.2045 24.745L18.3465 23.879L18.4095 23.371L18.3695 23.109L18.3035 23.073L18.2435 22.931L18.2295 22.5121L18.0775 22.056L17.5065 21.119L17.0895 20.9341L16.7185 20.799L15.7015 19.968L15.4255 19.552L15.3585 19.315L15.3235 18.833L15.1835 19.112L14.9965 19.319L14.5655 19.304L14.0815 19.537L13.7935 19.3181L13.6375 19.069L13.4005 18.7701L13.1345 18.711L12.9645 18.703L12.6455 18.332L12.3875 18.2141L12.0185 18.168L11.7045 17.98L11.6075 17.774L11.5555 17.483L11.4385 17.311L10.9455 16.97L10.5445 16.593L10.1665 16.351L10.0555 16.153L10.0465 16.017L10.6445 16.0551L11.3555 16.2L11.6965 16.159L11.9085 16.019L12.1115 15.918L12.1435 16.027L12.1065 16.225L12.3015 16.407L12.5695 16.554L12.7595 16.54L12.5745 16.379L12.4615 16.0511L12.5125 15.933L12.5095 15.769L12.2445 15.806L12.2075 15.7231L12.4345 15.4731L12.6945 14.815L12.8185 14.165L12.5465 13.595L12.0875 13.199L11.0915 12.036L10.4965 11.437L10.3245 11.2141L10.1665 11.109L9.68152 10.972L9.27452 10.636L8.56152 10.16L8.25652 9.91403L8.04652 9.33704L7.87952 9.25803L7.93253 8.85803L7.85953 8.14905L7.73952 7.96704L7.35352 7.79004L7.26152 7.30704L7.24252 6.84705L7.16753 6.52603L6.51053 5.98505L6.47353 5.72305V5.47403L6.40652 5.22705L6.05553 4.71005L5.63152 4.25803L5.48352 4.04205L5.46552 3.60403L5.31552 3.48605L5.37253 3.45605L5.51152 3.46704L5.59052 3.40903L5.59952 3.10303L4.96152 2.62204L4.77753 1.95905L4.43752 1.60706L4.35753 1.48004L4.17451 0.852051L4.97752 0.781036L5.78052 0.710052L6.58353 0.639038L7.38652 0.568054L8.18951 0.49704L8.99252 0.426056L9.79552 0.355042L10.5985 0.284027L10.9195 0.248047L10.7415 0.748047L10.6075 0.935028L11.9385 1.42505L13.2695 1.91403L14.6005 2.40204L15.9315 2.88904L17.2625 3.37604L18.5935 3.86203L19.9245 4.34705L21.2555 4.83105L22.2475 4.82904L23.2395 4.82703L24.2315 4.82504L25.2235 4.82303L26.2155 4.82104L27.2075 4.81903L28.1995 4.81705L29.1915 4.81503L29.1935 4.44705L29.1945 4.07904L29.1965 3.71005L29.1985 3.34103L29.8155 3.34503L30.4325 3.34903L31.0495 3.35205L31.6665 3.35605L32.2835 3.35904L32.9005 3.36304L33.5175 3.36703L34.1345 3.37103L34.1565 3.37704L34.1825 3.39005L34.4325 3.67105L34.6885 4.11105L34.9905 4.41803L35.3385 4.59204L35.9315 5.10403L36.7695 5.95303L37.4375 6.51703L37.9365 6.79904L38.2705 7.04105L38.4415 7.24405L38.6715 7.68405L39.1055 8.69705V9.16104L39.2715 9.60004L39.6035 10.168L39.8935 10.502L40.1415 10.603L40.4125 10.804L40.7065 11.105L41.0455 11.307L41.4295 11.41L41.9595 11.6801L42.6355 12.116L43.0995 12.338L43.3505 12.3481L43.5705 12.208L43.7585 11.919L43.9435 11.733L44.1255 11.6501L44.1995 11.517L44.1655 11.333L44.2885 10.9211L44.5685 10.2791L44.9025 9.93103L45.2915 9.87704L45.5455 9.75604L45.6655 9.56805L45.8735 9.54803L46.1705 9.69504L46.6535 9.79004L47.3225 9.83203L47.7175 9.81805L47.8385 9.74603L47.9015 9.75003L47.9065 9.82904L48.0055 9.86304L48.1985 9.85104L48.3665 9.96103L48.5825 10.31L49.3245 10.868L49.3885 11.0591L49.6465 11.334L50.1225 11.757L50.3915 12.121L50.4545 12.427L50.6975 12.91L51.1205 13.569L51.3085 13.924L51.2625 13.975L51.2955 14.16L51.4085 14.479L51.6175 14.7491L51.9245 14.97L52.2345 15.366L52.5475 15.937L52.9275 16.371L53.3735 16.6671L53.6255 16.9431L53.6845 17.198L53.6805 17.416L53.6125 17.597L53.6415 17.769L53.7665 17.932L53.8085 18.132L53.7595 18.409L53.7625 18.487L53.7985 18.55L54.1945 19.026L54.3985 19.41L54.5605 20.022L54.5615 20.027L54.7415 20.393L55.0015 20.5421L55.4005 20.5981L55.7035 20.725L55.9105 20.924L56.1725 21.044L56.4875 21.0851L56.7895 21.217L57.0795 21.438L57.6195 21.583L58.4095 21.653L59.0105 21.833L59.4235 22.123L59.6045 22.182L59.6535 22.186L59.6765 22.142L59.7075 22.06L59.8675 21.966L60.2555 21.9041ZM11.0075 3.58405L10.9145 3.59805L10.7405 3.44705L10.7535 3.30804L10.7915 3.29404L10.9655 3.41605L11.0245 3.52304L11.0075 3.58405ZM15.3255 12.174L15.3055 12.23L15.0185 12.032L14.3685 11.358L14.1325 11.0201L14.0935 10.8611L14.1135 10.507L14.3365 10.549L14.5945 10.786L14.7065 11.006L14.7115 11.257L15.1935 11.376L15.2615 11.919L15.3255 12.174ZM17.9985 12.324L17.7875 13.076L17.5715 13.064L17.1255 12.827L17.0785 12.679L17.2495 11.8051L17.3795 11.69L17.7685 11.5721L17.8295 11.6801L17.8705 11.938L17.9985 12.324ZM1.04852 12.526L0.928528 12.648L0.606522 11.9821L0.603516 11.821L0.697525 11.741L0.853516 11.756V11.923L0.984528 12.064L1.03552 12.202L1.04852 12.526ZM9.67052 15.298L9.63252 15.4001L9.15852 15.189L9.41852 14.82L9.38052 14.432L9.49352 14.351L9.59653 14.479L9.73253 14.9731L9.67052 15.298ZM21.0935 21.72L21.1285 21.832L21.1095 21.864L20.9945 21.786L20.8005 22.25L20.7435 22.2921L20.8605 21.657L20.9835 21.566L21.1195 21.548L21.0935 21.72ZM18.4075 26.273L18.3505 26.307L18.1105 25.952L18.0745 25.708L17.9765 25.605L17.7345 25.523L17.9435 25.026L18.1205 23.995L18.1985 24.1841L18.0115 25.228L18.0205 25.364L18.1075 25.491L18.2015 25.7061L18.2125 25.938L18.3775 26.1541L18.4075 26.273ZM22.5895 24.866L22.6695 25.2101L22.5255 25.159L22.3375 24.972L22.2085 24.733L22.2205 24.626L22.2455 24.606L22.5125 24.747L22.5895 24.866ZM19.4135 26.7401L19.3755 26.885L18.5305 26.312L18.7335 26.258L18.9695 26.298L19.4135 26.7401ZM24.7285 27.4821L24.6675 27.492L24.5235 27.33L24.4605 26.931L24.4895 26.889L24.7605 27.383L24.7555 27.444L24.7285 27.4821ZM33.9975 35.177L33.9155 35.424L33.7035 35.325L33.6275 35.17L33.6125 34.916L33.7305 34.873L33.9015 34.981L33.9365 35.053L33.9975 35.177ZM89.5335 36.291L89.5835 36.436L89.5345 36.419L89.4705 36.31L89.4245 36.174L89.4635 36.1711L89.4975 36.218L89.5335 36.291ZM88.9005 39.084L88.7545 39.177L88.6755 38.849L88.7915 38.5291L88.9325 38.345L89.2105 38.324L89.3945 38.263L89.4175 38.3441L89.2665 38.592L88.9005 39.084ZM21.6145 43.707L21.4455 43.769L21.1965 43.588L21.2625 43.445L21.4045 43.3481L21.5375 43.5291L21.6145 43.707ZM75.5865 43.896L75.2705 43.9641L75.2145 43.9001L75.8515 43.599L75.9605 43.612L75.9985 43.653L75.6685 43.7961L75.5865 43.896Z" fill="#FDA5A5"/>
</svg>
