<svg width="287" height="238" viewBox="0 0 287 238" fill="none" xmlns="http://www.w3.org/2000/svg">
<path d="M79.1746 15.7198V18.0598V20.3688V22.6468V24.8958V27.1158V29.3068V31.4708V33.6078V35.7188V37.8048V39.8668V41.9038V43.9178V45.9088V47.8778V49.8248V51.7508V53.6558V55.5408V57.4058V59.2508V61.0778V62.8868V64.6778V66.4508V68.2058V69.9448V71.6668V73.3738V75.0638V76.7388V78.3988L79.8466 78.6308L80.5126 78.8608L80.7166 78.4018L81.4346 78.7538L82.0616 79.0608L82.4616 78.6668L82.8946 78.2398L83.4786 78.2098L84.1336 78.1758L84.5706 78.1538V78.5178L84.4086 79.1198L84.2736 79.6208L84.6716 80.1278L85.1616 80.3938L85.6196 80.6428L85.8256 81.3288L86.3266 81.8568L86.7076 82.2568L87.0736 82.6398L87.5966 83.1858L87.9626 83.5678L88.4506 84.0748L88.7406 84.3758L88.8796 84.9598L89.0466 85.6588L88.9436 86.0708L89.1746 86.1368L89.6266 85.6749L90.0516 85.3878L90.5766 85.0328L90.9306 84.7928L91.5886 84.7808L91.9026 84.0818L91.9036 83.0968L92.2366 83.1138L92.4326 82.9798L92.5186 82.6888L92.3096 82.2908L92.9396 82.1048L93.3956 81.9698L94.0466 81.6028L94.6826 81.2438L94.9856 81.5218L95.2856 81.7898L95.8746 82.4348L95.9146 82.5898L95.8746 82.8918L95.8166 83.1928L96.1746 84.0348L96.2776 84.1288L96.5716 84.2448L96.9226 84.5228L97.0776 84.7628L97.5856 85.1448L97.6716 85.3028L97.7196 85.5588L97.8026 85.7788L97.8976 85.9358L97.9896 86.1598L98.2096 86.4238L98.6286 86.7178L98.9196 86.9218L99.3266 87.2068L99.7386 87.7878L100.097 88.2908L100.505 88.7868L100.445 89.1818L100.858 89.7898L101.293 90.5608L101.627 91.2418L101.864 91.6218L102.149 92.1698L102.497 92.8388L102.893 93.5978L103.196 94.0828L103.591 94.7598L103.786 95.1628L103.653 95.4378L103.489 95.7778L103.997 95.9388L104.349 96.0499L104.261 96.4258L104.145 96.9218L104.543 97.1168L104.813 97.2498L104.757 97.5088L104.906 97.8008L104.93 98.2838L105.415 98.2528L105.629 98.2388L105.919 98.4528L106.301 98.7348L106.684 98.9988L107.011 99.2238L107.44 99.3568L107.969 99.5478L108.229 99.9378L108.711 100.105L108.891 100.648L109.448 100.847L109.776 100.714L109.894 100.935L109.987 101.189L110.012 101.509L109.981 101.821L109.842 102.081L109.737 102.361L109.667 102.662L109.64 102.984L109.657 103.328L109.713 103.628L109.884 104.182L109.941 104.521L109.948 104.746L109.569 105.536L109.438 105.911L109.45 106.079L109.174 106.469L108.667 107.013L108.437 107.326L108.323 107.222L107.667 107.141L107.429 106.446L107.303 105.905L107.112 105.433L107.117 105.326L107.291 105.01L107.947 104.75L107.953 104.646L107.709 104.577L107.65 104.464L107.583 103.949L107.601 103.496L107.584 103.195L107.475 102.579L107.311 102.201L106.888 101.461L106.852 101.274L107.038 101.039L107.154 100.82L106.439 101.201L105.463 101.6L105.045 101.878L104.957 101.989L104.927 102.083L105.003 102.345L104.991 102.429L104.906 102.584L104.805 103.02L104.593 103.481L104.486 103.576L104.105 103.404L104.003 103.257L103.812 102.654L103.856 102.493L103.995 102.357L104.184 102.064L104.422 101.612L104.877 100.459L105.174 100.454L105.698 100.225L104.876 100.11L104.753 100.05L104.643 99.8918L104.545 99.6358L104.378 99.3508L104.065 99.2508L103.928 99.1458L103.721 98.7988L103.582 98.6428L103.506 98.4498L103.493 98.2198L103.434 98.1038L103.219 98.0618L103.103 97.9828L103.071 97.3868L102.643 97.2338L102.468 97.1018L102.186 96.7278L102.108 96.5458L102.083 96.3938L102.152 95.9798L102.123 95.9018L101.873 95.9438L100.323 95.3008L100.405 94.4478L100.118 93.3168L99.8096 92.8568L99.8706 92.6768L99.9366 92.5818L100.075 92.5798L100.67 92.9148L101.23 93.3108L101.302 93.2528L100.407 92.4108L100.183 92.1588L100.127 91.8548L100.124 91.6918L100.195 91.6068L101.034 91.6828L101.084 91.6198L100.233 91.3718L100.059 91.3728L99.8726 91.7288L99.7846 91.8128L99.6016 91.7958L99.5396 91.7408L99.3236 91.3098L99.1176 91.0088L98.7346 90.5918L98.6626 90.2938L98.6436 89.8548L98.6946 89.4388L99.0076 88.4848L99.1346 88.3188L99.1676 88.2148L99.0706 88.2309L98.9786 88.3218L98.7196 88.7658L98.4526 89.4918L98.2346 89.7388L98.0976 89.6788L97.8906 89.3838L97.4586 89.0228L96.9586 88.9298L96.6426 88.5598L96.1756 87.5258L96.1126 87.0088L96.0526 86.8818L95.7996 86.7138L95.6436 86.4648L95.4036 85.1948L95.0866 84.3068L95.0076 83.8358L95.0336 83.3678L94.9926 83.3158L94.8836 83.6808L94.8556 83.8708L94.6556 83.9248L94.8436 84.2938L94.8906 84.4778L94.7966 84.4628L94.6046 84.5088L94.9306 85.1358L95.0766 86.1038L95.2926 86.8178L95.4326 87.3948L95.4956 87.8318L95.5876 88.2488L95.8396 89.1658L95.8736 89.3478L95.8436 89.4958L95.7606 89.6718L95.6166 89.7378L95.1646 89.6178L94.9946 89.3918L94.7506 88.9758L94.4086 88.7838L93.5616 88.8788L93.4936 88.8468L93.4966 88.5068L93.5936 87.8998L93.5156 87.6538L93.0776 86.7568L93.0846 86.5808L93.6926 86.1668L93.3976 86.1358L93.1596 86.2978L93.0676 86.1938L92.9236 85.6148L92.8306 85.3988L92.7846 85.3528L92.7586 85.9038L92.8596 86.1928L92.8746 86.3598L92.8586 86.5928L92.7956 86.7598L92.6846 86.8608L92.5736 86.8858L92.3686 86.7698L92.1406 86.5508L91.9416 86.4478L91.8676 86.3608L91.7736 86.1188L91.6196 85.9348L90.8766 85.7018L90.4336 85.4258L90.3966 85.4988L90.5346 85.7928L90.5476 85.9668L90.4356 86.0198L90.2356 86.2988L90.2936 86.3368L90.5046 86.2448L90.7406 86.2558L91.1306 86.4249L91.4846 86.6468L91.6126 86.7708L91.6656 86.9548L91.7096 87.0198L92.0556 87.2338L92.0726 87.3458L91.8496 87.6798L92.3096 87.6428L92.5766 87.7618L92.9186 88.2778L93.0346 88.5648L93.0506 88.9318L92.9796 89.0378L92.8436 89.1118L91.9096 89.2318L91.5726 89.6728L91.5026 89.6788L91.2456 89.5588L90.7796 89.2068L90.1986 88.8718L88.8736 87.8748L88.8376 87.8278L88.8156 87.6348L88.7246 87.5358L88.5446 87.4518L88.2946 87.1978L87.9756 86.7738L87.7786 86.4418L87.7036 86.2028L87.5176 85.9288L86.9176 85.3559L86.6036 85.1358L86.3266 85.0108L86.0856 84.9838L86.0206 84.9068L86.1316 84.7808L86.1486 84.7068L85.6166 84.5878L85.1116 84.3178L83.8306 83.5568L83.1686 83.0788L82.7826 82.8498L82.6176 82.7208L82.5446 82.6158L82.6376 82.5058L82.8956 82.3918L83.0706 82.2618L83.3466 81.7748L83.3676 81.6178L83.2196 81.2628L83.1536 80.9388L83.1566 80.7588L83.1956 80.5788L83.2376 80.4618L83.3546 80.3488L83.4366 80.2918L83.5386 80.3308L83.8636 80.7768L83.9096 80.9388L83.8946 81.5468L83.9876 82.2558L84.0176 82.2038L84.0476 81.9698L84.0666 81.5218L84.1036 81.3058L84.1736 81.0958L84.2916 80.9848L84.6586 81.0488L84.8276 81.0108L84.1136 80.6888L83.6646 80.0838L83.5836 80.0208L83.3376 79.9938L83.0776 80.2388L82.4086 81.0358L82.2206 81.1758L81.3796 81.6158L80.8096 81.7038L80.1676 81.6348L79.6206 81.4918L78.2486 80.7958L78.0346 80.6338L78.3536 80.2018L78.3666 80.0668L78.2556 79.6258L78.1636 79.4998L78.0336 79.4298L77.9966 79.4798L77.9956 79.6108L78.0306 79.8538L77.9256 79.9818L77.6926 80.1198L77.2996 80.2598L76.0816 79.9038L74.8336 79.6088L73.7196 79.5478L72.1466 79.7828L71.3076 80.0188L70.8186 80.0418L70.3476 79.9998L70.3086 79.8348L70.5236 79.7378L70.5116 79.6178L70.2396 79.2438L69.8266 79.0168L69.2726 78.9368L68.9556 78.8268L68.8756 78.6878L68.6796 78.5558L68.3676 78.4298L68.2306 78.2028L68.3396 77.4988L68.4456 77.0758L68.5516 76.7848L68.8196 76.3018L68.7266 76.3378L68.3376 76.6918L67.9986 77.0568L67.6846 77.5308L67.4976 77.7478L67.2576 77.9478L66.8826 77.9008L66.3736 77.6048L65.9376 77.4518L65.5746 77.4428L65.4306 77.3918L65.6786 77.1268L65.8216 76.9138L66.0166 76.5718L66.0596 76.4048L64.7286 76.3498L64.6796 76.1688L64.6776 76.0358L64.6356 75.9258L64.4426 75.8438L64.1726 75.9068L63.7356 76.1208L63.5466 75.9578L63.6136 75.8668L63.7566 75.7998L64.0476 75.4888L63.6546 75.3278L63.4536 75.1428L63.3556 74.9908L63.3626 74.4418L63.4666 74.0888L64.3486 73.7458L64.0696 73.6118L63.5126 73.6578L63.1386 73.9498L62.6946 74.3698L62.3966 74.5268L62.2446 74.4208L62.0436 74.3838L61.7936 74.4168L61.6256 74.5238L61.5396 74.7058L61.4396 74.8288L61.3266 74.8918L61.2446 74.8708L61.1246 74.6848L60.8726 74.5688L60.7486 74.4268L60.6776 74.5158L60.5916 74.7838L60.5006 74.9198L60.0746 75.0588L59.8406 75.0328L59.5606 74.6968L59.5206 74.5798L59.6156 74.2878L60.2306 73.1278L60.1686 73.1348L59.9696 73.3178L59.5726 73.7818L59.3956 73.9198L59.0906 73.9378L58.9486 73.8878L58.7766 73.9258L58.5746 74.0498L58.4436 74.1858L58.3816 74.3328L58.4236 74.3578L58.7276 74.1898L58.9006 74.1448L58.9486 74.2268L58.7116 74.7478L58.5676 75.2448L58.4306 75.3698L58.2126 75.3488L57.9736 75.3978L57.9706 75.5368L58.4156 75.9318L58.5766 75.9878L58.7826 76.1288L58.8146 76.2688L58.7366 76.6458L58.6786 76.7938L58.5846 76.8708L58.2216 76.8578L58.1036 76.8968L57.8596 77.1328L57.7376 77.3278L57.7816 77.3448L57.9926 77.1838L58.2996 77.0978L58.7026 77.0858L59.0026 77.0008L59.1996 76.8408L59.3916 76.8858L59.5786 77.1358L59.6346 77.3548L59.5586 77.5428L59.4046 77.6768L59.1716 77.7568L59.0246 77.8768L58.9626 78.0368L58.9276 78.2738L58.9196 78.5868L58.9786 79.1498L58.9336 79.2258L58.8456 79.2678L58.7156 79.2748L58.5986 79.4068L58.3246 80.1528L58.2276 80.2338L58.1126 80.1538L58.0106 80.1628L57.9216 80.2598L57.7266 80.3338L57.4256 80.3848L57.1676 80.3658L56.7146 80.2048L56.5296 80.0908L56.3856 79.9038L55.9786 80.1018L55.8716 80.0158L55.6186 79.4988L55.5636 79.5298L55.5146 80.0868L55.4376 80.2818L55.1866 80.6838L55.0496 81.3738L55.0076 81.3948L54.9606 81.2948L54.8056 80.6778L54.7236 80.5418L54.4966 80.8978L54.4716 81.0268L54.5316 81.4858L54.4786 81.5548L54.0196 81.3078L53.9066 81.2958L53.8766 81.3378L54.0336 81.6928L54.0156 81.8208L53.3656 82.5048L53.1966 82.4808L53.0906 82.4128L52.9736 82.4238L52.5606 82.6778L52.4466 82.6668L52.2906 82.5168L52.2186 82.5228L52.1796 82.6798L52.1746 82.9858L52.0216 83.2758L51.5296 83.7438L51.3996 83.9588L51.3006 84.2528L51.2266 84.2808L50.9376 84.0918L50.6036 83.9688L50.5576 84.0298L50.6596 84.2088L50.6386 84.3188L50.4936 84.3598L50.3106 84.3438L50.0886 84.2708L49.7776 84.3528L49.3786 84.5898L49.0456 84.5828L48.5806 84.1928L48.4526 84.1638L48.4116 84.0538L48.5026 83.7378L48.6346 83.4978L48.7316 83.3878L49.1726 83.0798L49.6776 82.9668L49.9946 82.7808L50.3806 82.3978L50.5846 82.1098L50.9856 81.3648L50.9556 81.3068L50.8656 81.2658L49.9836 81.9728L49.8536 82.0378L49.6786 82.0328L48.9736 81.7618L48.8246 81.6458L48.7226 81.3058L48.9186 80.5298L49.0556 80.1538L49.3996 79.5718L49.8496 78.9488L50.0056 78.5438L50.2396 77.4558L50.2256 76.9598L50.1206 76.3538L50.1166 75.9928L50.2146 75.8788L51.2476 75.3148L51.7366 74.8908L52.6856 74.2628L52.9436 74.2678L53.1336 74.4838L53.3546 74.6568L53.6066 74.7858L53.9306 74.7728L54.3266 74.6158L54.9546 74.6758L56.2446 75.0888L56.5186 75.1118L56.5296 75.0598L56.3306 74.7708L55.4416 74.6028L55.0666 74.4348L54.0136 73.6938L53.7736 73.4068L53.8706 73.2728L54.1286 73.1618L54.2166 73.0548L54.2536 72.8678L54.4016 72.6128L54.6606 72.2868L55.0566 71.9718L55.8056 71.5018L55.5126 71.4818L54.9736 71.5688L54.7776 71.6578L54.4176 71.9938L54.2776 72.2298L54.0766 72.6898L53.9906 72.7768L53.6166 72.8428L52.5976 72.8888L52.4256 72.6538L52.3306 72.6158L52.2046 72.6488L51.2686 73.2488L50.9336 73.5538L50.6946 73.9018L50.3246 74.1558L49.8246 74.3168L49.4506 74.5158L49.0566 74.9128L48.9226 75.2168L48.9146 75.3598L49.0106 75.8088L48.9126 75.8928L48.6856 75.9278L48.3206 76.2248L47.5496 77.1048L47.4486 77.4228L47.4526 77.5318L47.5776 77.7798L47.4906 77.9408L47.2736 78.1948L46.7906 78.5958L46.4736 78.7478L46.2676 78.7558L46.0696 78.6988L45.7176 78.4408L45.4326 78.4248L45.4146 78.4608L45.8026 78.7368L46.1976 79.0908L46.4436 79.3848L46.5406 79.6178L46.5446 79.8578L46.4556 80.1038L46.1766 80.5308L45.9036 80.6578L45.2046 80.7858L44.9796 80.8878L44.9096 80.9668L45.3896 81.1468L45.4326 81.2388L45.3666 81.5948L45.2396 81.7108L44.8396 81.9228L44.4816 81.9848L44.4266 81.9438L44.4936 81.6648L44.4746 81.5958L44.3396 81.5388L44.1486 81.6448L43.6716 82.0558L43.6206 82.1228L43.7926 82.2328L43.7566 82.3238L43.4986 82.6178L43.3916 82.8138L43.2186 83.0128L42.4486 83.6208L42.5076 83.7688L42.3076 84.2958L42.1956 84.7608L42.3316 84.9558L42.9776 85.1838L43.2906 85.2388L43.6596 85.3978L44.3276 85.8258L44.5506 86.1048L44.5836 86.2358L44.5626 86.3788L44.4826 86.5718L44.2736 86.9358L43.7686 87.4758L43.5406 87.6288L43.1956 87.7488L43.0826 87.8358L42.6396 88.3448L42.5196 88.6188L42.5386 88.8578L42.4536 89.0248L41.8836 89.3528L41.9036 89.4108L42.1106 89.4358L42.0346 89.7248L42.0006 90.1248L41.9016 90.1918L41.5456 90.1888L41.0926 90.3438L41.0606 90.3878L41.0526 90.6749L39.8686 90.8848L39.6096 91.4268L39.4746 91.5928L39.0106 91.9858L38.7266 92.1438L38.4016 92.2398L38.2316 92.3728L38.2156 92.5428L38.1236 92.6898L37.8426 92.9328L37.7046 93.2378L37.6046 93.2858L37.0816 93.3588L36.9776 93.4558L36.9266 93.8668L36.8296 93.8798L36.6436 93.7838L36.4016 93.8578L35.8576 94.3218L35.7386 94.4888L35.7516 94.5778L35.8356 94.6658L35.9646 94.9408L35.9566 95.1258L35.7476 95.6408L35.6736 95.7208L35.4196 95.8478L35.3156 96.1318L35.0816 96.1008L34.8926 96.1548L34.7686 96.3438L34.6346 96.4528L34.4896 96.4809L34.3066 96.6308L34.0876 96.9008L33.8836 97.0728L33.6966 97.1468L33.5146 97.1658L33.3376 97.1278L33.1786 97.1588L33.0376 97.2588L32.8996 97.4148L32.7896 97.8568L32.6506 98.0538L32.5626 98.0878L32.3826 98.0588L32.1106 97.9658L31.8346 97.9988L31.3886 98.2698L31.2466 98.4738L31.5276 98.5188L31.6666 98.5768L31.6636 98.6338L31.5176 98.6888L31.2676 98.6848L31.1176 98.7318L30.9356 98.8478L30.4776 98.9728L30.3036 99.0618L29.9586 99.5698L29.9166 99.6848L29.9606 99.7098L30.1546 99.6568L30.3826 99.7408L30.5006 99.8478L30.5766 99.9798L30.6486 100.234L30.6926 100.272L30.2546 100.698L30.1306 100.879L30.0506 100.946L29.9976 100.894L29.9436 100.42L29.9106 100.339L29.8066 100.331L29.7066 100.481L29.4876 101.041L29.2486 101.323L27.4536 102.043L27.1956 102.209L27.1446 102.515L27.0706 102.78L26.9516 102.99L26.8126 103.123L26.7826 103.028L26.7966 102.283L26.7596 102.135L26.5786 102.04L26.4986 102.053L26.3896 102.095L26.2096 102.257L26.0996 102.297L25.9626 102.284L25.7286 102.443L25.1726 102.952L24.8096 103.078L24.7136 103.183L24.5586 103.461L24.4556 103.563L24.3036 103.572L24.1016 103.489L23.9396 103.548L23.8166 103.75L23.6916 103.83L23.3386 103.681L23.1826 103.783L22.9806 104.043L22.7696 104.214L22.5496 104.297L21.9776 104.383L21.7476 104.328L21.7006 104.253L21.7116 103.922L21.8036 103.683L21.8886 103.57L22.0026 103.47L22.1696 103.458L22.4816 103.533L22.4456 103.453L22.3326 103.358L22.0456 103.193L21.7606 103.109L21.5976 103.163L21.3686 103.289L21.2126 103.435L21.1306 103.601L21.0276 104.141L20.9676 104.287L20.2976 105.234L20.0346 105.525L19.7746 105.503L19.6486 105.613L19.4716 105.848L19.3076 105.961L19.1576 105.951L19.0406 105.906L18.9576 105.827L18.9716 105.753L19.0836 105.684L19.0436 105.496L18.8516 105.186L18.7206 105.018L18.4716 104.998L18.4326 105.139L18.5166 105.857L18.5036 106.019L18.3486 106.223L17.9406 106.451L17.8136 106.429L17.4466 105.98L17.0986 105.891L17.0756 106.037L17.1536 106.336L17.0666 106.614L16.8156 106.873L16.6246 106.998L16.4936 106.99L16.4866 106.809L16.6036 106.454L16.6336 106.158L16.5766 105.92L16.5836 105.738L16.6526 105.611L17.1136 105.257L17.3076 105.204L17.4116 105.291L17.5406 105.306L17.6966 105.248L17.7946 105.135L17.8356 104.966L18.0346 104.75L18.3916 104.485L18.8006 103.996L19.2606 103.28L19.7996 102.661L20.4186 102.14L21.0896 101.725L22.4416 101.154L22.5456 101.189L22.4216 101.375L22.5056 101.491L22.6386 101.506L23.1336 101.414L23.3306 101.294L23.3886 101.41L23.3196 101.556L23.0226 101.704L23.0306 101.827L23.4636 102.402L23.5996 102.489L23.7126 102.478L23.7606 102.404L23.7246 101.989L23.8706 101.91L24.1696 101.89L24.3646 101.944L24.4556 102.071L24.6266 102.176L24.8776 102.26L25.0336 102.234L25.0946 102.099L24.9876 101.938L24.5066 101.584L24.3726 101.436L24.3406 101.229L24.4086 100.964L24.5596 100.57L24.7936 100.047L25.0056 99.6808L25.4346 99.2648L25.7236 99.0588L26.4566 98.4268L27.8656 97.7808L28.2136 97.3648L28.6866 96.9048L28.8896 96.7918V96.9698L28.9546 97.1288L29.2706 97.2348L29.4766 97.2718L29.5716 97.2398L29.5976 97.0708L29.5556 96.7638L29.5446 96.4738L29.5656 96.2008L29.6116 95.9848L29.8226 95.5998L30.1366 95.1608L30.5656 94.6498L30.8366 94.4178L31.0916 94.2938L31.3386 94.0698L31.7636 93.5388L31.8996 93.4518L32.2046 93.3468L32.3166 93.3928L32.3816 93.5268L32.4616 93.6098L32.7706 93.6848L32.9766 93.5668L32.9426 93.5038L32.7756 93.4628L32.6686 93.3858L32.5676 93.0688L32.3626 92.8778L32.3166 92.6608L32.3536 92.3228L32.5296 91.5268L32.5586 90.7048L32.7156 90.2318L33.0306 90.0608L33.7296 89.9438L33.3206 89.7298L33.1686 89.7288L32.9026 89.6278L32.8016 89.1098L32.8036 88.7328L32.9796 88.2948L33.6306 87.5538L34.3436 87.0388L34.2466 86.9968L34.1586 86.8438L34.4876 85.8078L34.8086 84.8788L34.3756 85.6708L33.8746 86.2748L32.4046 86.9738L31.4046 87.5578L30.9306 87.6968L30.6176 87.5488L30.3736 86.9888L30.2336 86.7888L30.0546 86.4228L30.1306 85.9448L30.2726 85.6138L30.5846 85.5598L30.9366 85.7198L31.2416 85.7338L30.8486 85.4068L30.2816 85.1208L30.0246 85.2138L29.8276 85.6768L29.5646 85.9938L29.3336 85.8808L29.1966 85.7518L29.2916 86.1388L29.1166 86.7268L29.0506 87.1328L29.3006 88.2008L29.2546 88.6258L28.7996 88.8208L28.4286 88.4718L27.6556 87.1198L27.3856 86.7328L26.7796 86.0928L26.5796 86.1838L26.3246 86.4998L26.0776 86.5868L25.4256 86.1208L25.1216 85.7648L24.8346 85.3318L24.3946 85.5708L24.0106 85.8548L23.5606 86.3068L23.2596 86.3028L22.4416 86.6898L22.3546 86.6978L22.2396 86.9058L22.1266 86.9988L22.0336 87.3988L20.9276 87.7088L19.8346 87.5358L20.2166 87.3158L20.6436 87.1428L21.0146 86.7258L20.8566 86.1668L20.8296 85.8818L20.8336 85.5208L21.2386 85.0128L20.8176 85.0138L20.5466 85.1958L20.2936 84.8138L20.1746 84.0598L20.4646 83.6118L20.5986 83.2658L20.7126 82.7898L20.7206 82.3798L20.4966 81.6838L19.8526 80.2008L19.5596 79.0868L19.0576 78.4908L19.4326 77.5108L19.8506 76.6138L20.3906 76.2108L20.3476 76.1508L20.0496 76.1538L19.8536 76.2068L19.6806 76.4998L19.4976 76.7228L18.9266 77.8638L18.5586 78.4178L18.3196 78.5758L18.7046 78.7898L18.7636 78.9698L18.8376 79.3788L18.7386 79.8738L18.6396 80.1468L18.1856 80.1248L17.7776 80.5218L16.8196 80.9528L15.5256 81.1988L14.8896 81.1698L14.2276 80.6678L14.2326 80.3758L14.2596 80.1228L13.3086 79.2518L12.7706 78.3798L12.3836 78.3608L12.0476 78.1278L11.6506 77.7648L11.6856 77.4718L11.7486 77.2648L11.5046 77.1198L11.1926 77.1338L10.8296 77.0338L11.7776 75.8978L12.1036 75.1328L12.3696 75.0238L12.7146 75.1418L13.1906 75.4438L13.5916 75.5768L13.7366 75.7188L13.8846 75.9858L13.7286 76.4328L13.5856 76.7458L13.7616 76.6618L14.2606 76.1768L14.6326 75.7498L14.8106 75.7938L14.9266 75.8688L15.1336 76.3088L15.3896 76.7558L15.9546 76.3298L16.2566 75.7978L16.0016 75.5648L15.6896 75.4258L14.8936 75.2448L15.0876 75.0918L15.5986 75.1088L15.7906 74.9628L15.5886 74.7598L15.3356 74.5778L14.6466 75.1828L13.3926 75.1528L12.5166 74.7988L11.6416 74.8608L11.5036 74.7908L11.3336 74.6018L11.8266 74.1508L12.1756 73.9008L12.1946 73.7558L11.9916 73.7378L11.6106 73.8578L11.4406 73.6498L11.4686 73.2878L11.4056 73.3208L11.2546 73.5188L11.0416 73.4208L10.8566 73.2508L10.9526 73.0768L11.1406 72.8368L11.0576 72.8008L10.8896 72.8518L10.7256 73.1648L10.7616 73.4178L10.7576 73.7808L10.4776 73.8468L10.2376 73.8038L10.0646 73.4388L9.88561 72.6548L9.40161 72.4458L9.28261 72.0478L9.58861 71.5348L9.45361 71.2698L9.12761 71.1838L8.75561 71.4428L8.59061 71.2128L8.56061 70.9598L8.54761 70.5958L8.65161 70.5568L8.73761 70.6288L9.48461 70.4268L9.55661 70.3278L8.96461 70.0188L8.79961 69.6938L9.04461 69.5088L9.48661 69.4928L10.1066 69.2998L9.84561 68.9538L9.79061 68.7638L9.73861 68.4518L9.84161 67.9208L10.5706 66.6978L11.2806 65.6718L11.5016 65.4348L11.8266 65.3068L12.1296 65.4058L12.4456 65.6268L12.5056 65.5318L12.3986 65.4418L12.2636 65.0198L12.7026 64.8538L12.9596 64.3758L12.9786 64.2368L12.6996 64.4358L12.4086 64.7628L12.3356 64.4338L12.2606 63.6758L12.3886 62.9568L12.4886 62.6328L12.7316 62.3248L13.4316 62.2008L13.5556 62.2628L13.5806 62.1168L13.1596 61.6608L13.3326 61.3038L13.4846 61.1178L14.3306 60.8278L14.7926 60.9178L15.3726 61.2558L15.7096 61.6758L15.6606 61.8908L15.5776 62.0158L15.4036 62.1548L15.3386 62.2628L15.3696 62.3488L15.6186 62.0988L16.0256 61.7948L16.2536 61.9268L16.4336 62.1668L16.6326 62.1628L17.2656 61.9568L17.5866 61.7388L17.9796 61.1698L18.5016 60.8018L19.2366 59.6338L19.4526 59.1528L19.7036 59.0788L19.9306 59.1208L20.0886 59.5158L20.3196 59.6308L21.6346 59.5348L22.3066 59.3538L22.7736 58.9708L23.2596 58.3238L23.5406 57.8888L23.6756 57.3208L23.5016 56.5828L23.3236 55.9678L23.0896 54.5538L22.4366 53.6138L21.9726 53.3318L21.6776 53.3718L21.8906 52.7688L22.5126 52.8338L22.9176 52.7158L23.2456 52.4248L23.3526 52.2038L23.5146 51.7518L23.4586 51.2688L23.3716 51.0058L23.1456 50.7158L22.8766 50.2908L22.6886 50.1488L22.5296 50.1578L21.7456 51.0108L21.2746 51.0268L20.9226 50.8708L20.6166 51.3548L19.7636 51.7788L19.3076 52.2058L18.4626 53.2618L18.2516 53.7378L17.9816 53.7588L17.7866 52.8348L16.8676 51.9488L16.5896 52.2508L16.7426 52.5288L16.9506 52.7268L17.2936 52.8128L17.1456 53.0808L17.0336 53.4368L16.6896 53.1028L16.0746 52.6168L15.4376 52.3658L13.7796 52.3938L12.6916 52.8928L12.5916 52.7888L12.4866 52.7478L12.3046 52.8668L12.2266 53.0698L12.1076 53.1968L11.8856 53.2418L11.4376 53.1668L10.5736 52.8568L8.61861 52.4008L8.10661 52.1198L7.66861 51.4488L7.67761 50.9918L7.87261 50.7978L7.85361 50.1408L7.47361 49.9658L6.69861 49.0158L6.41361 48.6098L6.47561 48.5648L6.61461 48.6748L6.87961 48.7578L7.52961 48.6258L7.75261 48.0068L8.23461 47.8298L8.67861 47.9168L8.57861 47.7488L8.46561 47.6168L7.30961 47.2998L7.15261 47.3968L5.07961 46.8328L3.44261 45.8488L3.30861 45.6598L3.15961 45.2378L3.38061 44.8198L3.60261 44.6218L3.61261 44.8518L3.64861 45.0778L4.58661 44.5528L5.07761 43.8618L6.00661 43.7398L6.22261 43.5488L6.51161 43.1758L6.92361 42.5368L7.50661 42.1998L7.90361 41.8968L8.42061 41.7168L8.86161 42.0158L8.99761 42.0568L9.79761 42.1178L10.0606 41.9888L10.1726 41.8928L10.2566 41.7408L9.47061 41.1988L9.55061 40.8968L9.65061 40.6838L10.5676 40.0488L11.2726 39.8388L11.6496 39.8538L12.7436 39.0298L13.3426 38.7938L14.4716 38.6368L15.3996 38.5958L15.6506 38.8908L15.1516 38.8288L14.9326 38.8828L15.0886 38.9838L15.2646 39.1988L15.2136 39.4698L14.9076 40.2708L14.9326 40.9098L14.7336 41.1168L14.5406 41.4078L15.4906 42.3208L16.9606 42.3788L17.7606 42.2138L18.2226 42.4858L18.6006 42.5478L19.6466 42.4078L20.4346 42.6018L20.7636 42.5278L21.4926 41.1628L21.7776 40.9478L22.0876 41.1858L22.4916 41.3788L22.7496 41.2388L22.9596 41.5918L22.8606 40.8558L22.7176 40.5788L21.5276 40.0698L20.7316 40.3228L20.4826 40.0358L20.5656 39.4658L19.7136 38.0538L19.3586 37.7658L18.9386 37.7518L18.7246 37.2578L18.5456 36.6218L18.9076 36.3608L19.2356 36.2428L19.5386 36.4488L19.8816 37.2848L20.2006 37.4078L20.1076 38.2368L20.5036 38.9978L21.3976 39.7018L22.1136 39.4428L22.6196 39.4508L22.9216 39.5988L23.6616 40.2288L24.0376 40.3078L25.2126 39.9778L25.2246 39.3578L25.1256 38.9078L24.8496 38.6248L24.0556 38.6778L23.4376 38.2118L22.9116 38.3398L21.9386 39.0528L21.4516 38.7728L21.1456 38.3918L20.6516 38.0038L20.5896 37.2678L21.0036 36.4198L21.3096 36.0148L21.0356 35.7188L20.3466 35.5108L19.1506 35.7238L19.0946 35.4328L19.1006 35.1188L18.6136 35.7338L18.1136 35.6048L17.4396 35.6708L15.9516 35.1288L15.4216 34.4578L15.1996 33.9118L14.7986 32.4058L14.2866 31.4578L10.7476 28.1968L9.13761 27.3678L8.36261 26.4458L7.87661 26.2178L7.41261 26.1248L6.81761 25.8258L7.21761 25.4578L7.49261 25.3328L7.20661 25.7178L7.42361 25.8148L7.76961 25.5928L7.95661 25.3268L8.23061 24.1938L8.51361 22.4658L8.43761 21.7808L10.4006 21.9188L11.7076 21.8028L12.1406 21.6468L13.7886 21.3818L14.2156 21.1898L15.0076 20.5988L15.9406 19.5498L16.7406 18.1618L16.8676 17.7868L16.9186 17.8828L16.9906 17.8228L17.0756 17.2928L17.1806 16.0398L17.5776 14.8488L19.2666 12.1038L20.0506 11.0038L20.3116 10.5018L20.5836 10.1348L20.7756 10.4838L20.8666 10.5878L20.9196 10.7518L20.7586 10.8278L20.4966 11.1838L20.1306 11.4218L20.0426 11.5438L20.2576 11.5168L20.9006 11.2578L21.2636 10.9438L23.0676 10.3608L24.0456 9.39383L24.0836 9.17784L25.5346 7.95984L25.7356 8.00684L25.9666 8.15384L25.5646 8.95784L25.8476 9.16783L25.5966 10.1228L26.1226 10.1378L26.2406 10.5758L26.2696 10.1988L26.2636 9.65683L26.3056 9.12283L26.3836 8.75284L26.7536 8.91983L27.5866 8.52184L26.5776 8.47183L25.9726 7.59784L25.6366 7.59084L26.7616 6.30084L27.7896 5.51683L28.0216 5.53183L28.1336 5.67784L28.1576 5.91484L27.9356 6.06883L27.7176 6.34683L27.8176 6.59184L27.9666 6.62683L28.4606 6.42584L28.6816 6.17383L29.7346 6.19583L30.0436 6.01584L30.1176 5.83684L31.4816 5.80084L31.7316 5.67484L32.5846 4.97884L33.3736 4.13184L33.7366 3.66783L34.3596 2.47983L34.8936 1.70284L35.7716 0.923828L35.9816 1.02083L35.6966 1.17584L35.4986 1.50583L35.7716 1.94383L37.6206 2.84283L38.0856 2.89183L38.2716 3.42784L38.1166 3.94284L37.6396 4.51283L36.6796 5.09483L36.9736 5.31384L37.1656 5.82983L37.4496 5.89284L37.9106 5.69884L38.2716 5.38184L39.0186 4.34483L39.2536 3.76384L39.4296 3.61684L40.0556 3.75684L40.4096 4.05583L40.8136 4.58484L40.6656 5.09483L40.5006 5.38184L41.0236 5.77783L41.6036 5.86084L42.1566 6.17883L42.9336 5.52783L43.5426 5.38884L44.1136 5.40984L44.8566 5.05383L46.1136 5.53883L46.4336 5.41284L46.9376 5.49684L47.4736 5.78883L47.6626 6.09984L47.0886 6.75684L46.9956 7.43184L47.1956 7.71283L47.5586 7.76083L47.6046 8.15384L47.8306 8.25183L48.9646 8.22284L48.8776 8.40984L48.8226 8.63484L48.4716 9.13184L50.4926 9.41084L50.7636 9.13583L51.1816 9.02684L52.0696 8.64684L52.4036 8.81284L52.7976 9.20084L53.1616 9.28183L53.5016 9.20284L54.2936 8.64883L55.2086 8.62184L55.5836 8.80284L55.9796 8.72383L57.1716 9.35783L57.6106 9.43184L58.1976 10.2528L58.5006 10.2768L58.8436 9.92883L59.1416 9.93983L59.4326 10.2728L59.9086 10.3748L60.1306 10.8988L60.3696 11.0888L62.1726 11.4768L63.0656 11.2998L64.3666 11.3458L64.9936 11.5938L65.6516 11.5618L66.7266 12.4608L67.2966 12.6008L67.4076 12.8078L69.0306 13.0258L69.5986 12.5588L70.5886 12.4348L71.4796 12.0408L71.9846 12.0448L72.5726 12.1428L72.7986 12.0958L72.9616 11.9238L74.3946 12.6018L75.1966 13.3738L75.5476 13.9418L77.2256 14.7508L77.7106 15.2018L78.0426 15.6978L78.2376 15.7508L78.3746 15.6058L78.9606 15.6478L79.1746 15.7198ZM8.70961 41.3258L8.60161 41.3648L8.60761 41.2588L8.92761 40.9758L9.51761 40.6248L9.49561 40.7008L9.18061 40.9728L8.70961 41.3258ZM59.7296 75.3998L59.3746 75.4468L59.2116 75.3738L59.1886 75.2948L59.2556 75.0038L59.2506 74.8808L59.4296 74.8348L59.6356 74.9728L59.6956 75.1158L59.7296 75.3998ZM48.2506 78.0498L48.1156 78.0708L48.2966 77.7908L48.4226 77.2438L48.5916 77.3198L48.6256 77.4198L48.3466 77.9808L48.2506 78.0498ZM60.4936 77.5468L60.4926 77.6958L60.4046 77.8398L60.4886 78.1028L60.3426 78.5538L60.2866 78.8398L60.2086 79.0198L60.1306 79.0888L60.0516 79.0478L60.0346 78.9488L60.0806 78.7908L59.8956 78.7958L59.8386 78.4018L59.9416 78.2768L59.9786 78.1088L59.9906 77.9948L60.1116 77.4918L60.1546 77.4568L60.1686 77.5768L60.2076 77.6118L60.2716 77.5628L60.3676 77.3388L60.4086 77.3128L60.4936 77.5468ZM64.0426 77.5518L64.1056 77.7078L64.6456 77.6698L64.8006 77.6978L64.8626 77.7698L64.7896 77.8748L64.5816 78.0138L63.9736 78.2578L63.4796 78.5778L63.4156 78.5478L63.3256 78.1978L63.2346 78.0558L63.1786 77.8578V77.7838L63.2696 77.6468L63.4506 77.4468L63.5786 77.3748L64.0426 77.5518ZM67.6216 78.1898L67.5316 78.3278L67.2866 78.2788L67.1556 78.1908L67.5936 77.8268L67.6656 77.8998L67.6216 78.1898ZM8.63761 77.9268L8.89561 78.2078L9.03261 78.2238L9.46461 78.1388L9.62361 78.1988L9.77661 78.3198L9.87161 78.5048L9.88961 78.8288L9.81961 79.1178L9.84061 79.5248L9.82561 79.6998L10.0546 79.9298L10.1266 80.2408L10.1636 80.5748L9.66561 80.6858L9.16761 80.7038L8.73761 80.9298L8.64961 81.0968L8.71861 81.3438L8.60061 81.4068L8.49161 81.3528L8.28361 81.1238L8.05561 81.0148L7.25661 80.8458L6.25361 80.1788L5.82161 80.0408L5.38361 79.5508L4.98761 78.9258L5.24561 78.8248L5.50561 78.7738L6.67161 78.8668L6.81761 78.4178L6.96761 78.3058L7.33761 78.1788L7.68361 77.9288L7.83861 77.9348L7.99661 78.0308L8.32461 77.8818L8.49861 77.8498L8.63761 77.9268ZM60.2766 81.1318L59.9666 81.2128L59.8936 81.0478L60.0566 80.6368L60.1866 80.4038L60.2836 80.3488L60.6396 79.8838L61.0346 79.5448L61.3976 79.0478L61.7656 78.3368L61.8336 78.0708L62.0046 78.0428L62.2856 78.2178L62.4596 78.4638L62.3786 78.6588L61.4476 79.6668L61.3696 79.7978L61.2856 80.1388L61.2086 80.2578L61.0856 80.3118L60.9966 80.4598L60.9406 80.7028L60.8256 80.8298L60.6516 80.8408L60.5316 80.9078L60.4646 81.0308L60.2766 81.1318ZM59.4736 79.7218L59.3266 79.8938L58.7716 79.7898L58.8866 79.4508L59.3106 79.2368L59.7746 79.5698L59.4736 79.7218ZM69.1736 81.1038L69.0386 81.1358L69.2406 80.7698L69.5116 80.3648L69.7666 80.1108L70.0986 80.0048L70.0616 80.1898L69.6286 80.5318L69.1736 81.1038ZM23.2786 87.8958L23.0726 87.9818L22.8546 87.9388L22.6826 87.4058L22.8146 87.3888L23.0906 87.0368L23.7016 86.7518L23.8516 86.7198L23.2786 87.8958ZM46.9456 88.3898L46.8626 88.4238L46.6576 88.2598L46.5226 88.0858L46.6116 87.9528L47.0086 87.6728L47.1986 87.6678L47.2766 87.7118L47.3076 87.7988L47.2926 87.9278L47.2076 88.0888L46.9456 88.3898ZM47.1386 89.0568L47.2406 89.0998L47.3466 88.7818L47.4216 88.7718L47.7536 89.0408L47.9576 88.9809L48.0886 89.3118L48.2066 89.3418L48.3156 89.3018L48.3816 89.3248L48.3586 89.6738L48.1156 90.0268L48.0026 90.1158L47.8446 90.0248L47.7856 89.9908L47.6816 89.8348L47.6026 89.6378L47.5556 89.6348L47.3706 89.8668L47.3746 89.9818L47.4516 90.1538L47.4406 90.2608L47.2386 90.3118L47.0406 90.2848L46.7986 90.4348L46.7406 90.3418L46.7036 90.0788L46.6286 90.1088L46.5146 90.4308L46.3896 90.6348L46.1626 90.8038L46.1126 90.8858L45.9466 90.8968L45.7006 91.0028L45.5486 90.9848L44.6426 90.6358L44.4296 90.5078L45.1746 89.7048L45.5666 89.3928L45.7936 89.4098L46.0206 89.5068L46.1406 89.4908L46.1496 89.1338L45.9386 88.8668L45.9466 88.7558L46.4136 88.5728L46.5886 88.5988L46.7816 88.6928L46.9646 88.8448L47.1386 89.0568ZM96.9166 90.1138L97.6296 90.2348L98.1516 90.2078L98.6286 90.9998L98.9216 91.6368L99.0936 92.0818L99.1916 92.5108L99.3226 92.9238L99.3106 92.9818L99.0356 92.7038L98.8376 92.1388L98.7366 91.9178L98.6366 91.8178L98.5316 91.6088L98.3266 91.0668L98.3196 90.9138L98.2286 90.7718L98.1236 90.7128L98.0046 90.7358L97.9636 90.7908L97.9816 91.1658L98.0756 91.5818L98.5906 92.4878L98.9346 93.0018L99.0026 93.1718L99.0476 93.6398L98.8996 93.8508L99.0816 94.2808L99.0746 94.3648L99.0346 94.4468L98.5446 94.6368L98.0956 95.4298L97.6036 95.8928L97.3766 95.9668L97.2676 95.8898L97.1646 95.7128L97.1036 95.4758L97.0856 95.1788L97.2086 94.9908L97.4516 94.0128L97.4586 93.6908L97.1556 93.2428L96.9726 92.8758L96.8736 92.3628L96.7076 90.9988L96.6306 90.5608L96.5226 90.1948L96.3826 89.9018L96.2776 89.5788L96.2056 89.2258L96.2326 89.0888L96.4756 89.2728L96.7676 89.7788L96.9166 90.1138ZM97.9476 89.7568L97.9276 89.8888L97.5446 89.8758L97.1586 89.6818L96.9686 89.4268L97.0066 89.3118L97.3656 89.2048L97.7056 89.4468L97.9476 89.7568ZM93.9696 89.6749L94.3706 90.1928L94.3736 90.3118L94.2916 90.6668L94.0736 90.7668L94.1356 90.9078L94.2976 91.0138L94.4136 90.9258L94.8366 90.4288L94.9666 90.3248L95.0456 90.3138L95.5616 90.4638L96.0126 90.7008L96.1456 90.8898L96.2206 91.2208L96.1006 91.9348L95.7306 92.0588L95.5556 92.0458L95.3686 91.9418L95.0676 92.1898L95.3176 92.3788L96.0776 92.4218L96.3076 92.8218L96.3736 93.1298L96.2096 93.6938L95.7786 93.5378L95.3986 93.2108L94.6196 92.7468L94.4326 92.7258L94.3076 92.8078L94.2736 93.0888L94.2816 93.6968L94.0736 94.0118L93.4596 93.8728L93.2186 93.4128L92.9936 92.6828L92.1466 91.8138L91.9176 91.6398L91.6126 91.1178L91.7346 90.7028L91.7706 90.4628L91.9336 90.3988L92.1716 90.2128L92.3046 89.8098L92.5186 90.1358L92.8046 90.4488L92.8086 90.1548L92.9436 89.9198L93.2246 89.9288L93.3566 89.8798L93.5406 89.6598L93.8066 89.5458L93.9696 89.6749ZM45.7886 91.8988L45.8086 92.1878L45.9226 92.1528L46.3546 91.8559L46.5796 91.7688L46.8726 91.7548L47.1046 91.8908L47.1516 91.9948L47.1306 92.1188L46.9446 92.3698L46.9526 92.5328L47.1526 92.8328L47.6436 92.9958L47.7036 93.0858L47.7016 93.1938L47.3636 93.6888L47.2396 93.8038L47.1516 93.8318L46.5376 93.7428L45.9756 93.5808L45.7486 93.5528L45.6676 93.6059L45.5086 93.7578L45.6226 93.8028L46.1146 93.8388L46.2886 94.0598L46.3646 94.2228L46.4026 94.4018L46.3046 94.4748L46.0946 94.5288L45.8426 94.5278L45.5306 94.7288L45.3586 94.9588L44.7336 95.0168L44.2576 95.3228L44.0906 95.4738L44.0316 95.6538L43.8516 95.7838L43.4466 95.9148L43.6886 96.0318L43.7266 96.1308L43.7306 96.2678L43.6976 96.3858L43.3776 96.9108L42.7736 97.3418L42.6206 97.3218L42.5546 97.2678L42.5006 97.1858L42.4986 97.1028L43.2776 96.2368L43.2466 96.1948L43.0346 96.1658L42.6996 95.9268L42.4626 96.0808L42.4086 96.0748L42.4716 95.8698L42.6256 95.6258L42.5986 95.5568L42.5136 95.4958L42.3186 95.4588L42.0126 95.4468L41.7856 95.5048L41.6386 95.6328L41.6266 95.6868L41.9396 95.6718L42.0246 95.7368L42.1086 95.8578L42.1596 95.9978L42.1786 96.1568L42.1126 96.3698L41.9636 96.6368L41.7446 96.5898L41.2956 95.9948L41.0976 95.1208L40.7136 94.4508L40.6966 94.2898L40.8056 93.8748L41.1926 93.2838L41.6086 93.1218L41.9046 92.8728L42.1916 92.7978L42.3686 92.8038L42.6116 92.9108L42.7096 93.1378L42.6506 93.2438L42.6726 93.2999L42.8426 93.4358L43.0266 93.9108L43.2406 94.3308L43.3836 94.5008L43.5716 94.6059L43.3776 94.2858L43.2626 93.8888L43.2046 93.0948L43.1486 92.8838L43.2576 92.8278L43.5646 92.8588L43.5566 92.7398L43.2326 92.4708L43.0336 92.2478L42.9586 92.0718L42.9626 91.9188L43.1396 91.6928L43.2396 91.6288L43.3436 91.6008L43.5496 91.6488L43.6416 91.7198L43.9056 92.2278L44.0296 92.3858H44.1326L44.2276 92.3018L44.3156 92.1338L44.4066 92.0328L44.4996 91.9998L44.7936 92.0748L44.8916 92.0468L44.9396 91.9198L44.9376 91.6918L45.0106 91.6098L45.0286 91.4418L44.8686 91.1938L45.0526 91.1178L45.6626 91.3068L45.9236 91.5138L45.7886 91.8988ZM44.8276 91.7618L44.7486 91.9078L44.6746 91.8698L44.5176 91.6988L44.1976 91.4488L44.0516 91.2778L44.0426 91.2048L44.1526 91.1238L44.5286 91.3258L44.6886 91.5098L44.8276 91.7618ZM96.1046 94.3688L96.3426 94.9378L96.5156 95.3778L96.6696 95.9058L96.9266 96.9948L97.0466 97.4048L97.0846 97.6288L97.1126 98.2138L97.0736 98.3398L96.9966 98.4548L96.9816 98.6218L97.0526 99.0658L97.0566 99.7388L96.9896 100.117L96.9106 100.174L96.7186 100.05L96.5606 99.8448L96.4446 99.6318L96.1576 98.9568L96.0726 98.6418L96.0676 98.4148L96.1116 98.2488L96.2056 98.1458L96.3686 97.8698L96.3456 97.8258L96.2216 97.8878L95.9686 97.9228L95.7456 97.7048L95.5716 97.5898L95.6066 97.1958L95.5606 97.0848L95.2186 97.2068L95.0906 97.0968L95.0626 96.9488L95.0686 96.7278L95.1336 96.5338L95.4576 96.0428L95.4246 95.9518L95.2666 95.9318L95.0586 95.7638L94.9636 95.2118L94.7396 94.8968L94.6076 94.9258L94.3076 95.8158L94.1596 96.0098L93.7376 96.1348L93.8236 95.8878L93.8636 95.6668L93.7136 94.9958L93.7096 94.7368L93.8096 94.5458L94.1076 94.4658L94.2656 94.3528L94.3886 94.1678L94.4196 93.9878L94.6506 93.5098L94.7586 93.4168L95.0466 93.4228L95.6516 93.9518L95.8356 94.0298L96.1046 94.3688ZM45.4826 95.5418L45.1256 95.7078L45.0626 95.7008L44.8426 96.0368L44.6746 96.1818L44.4526 95.9168L44.5096 95.5048L44.7036 95.2309L45.6856 95.3228L45.7616 95.3998L45.7636 95.4648L45.6916 95.5188L45.4826 95.5418ZM100.605 96.1668L100.792 96.3278L100.894 96.1588L101.083 96.1668L101.435 96.3168L101.644 96.5418L101.762 96.7988L101.772 96.9518L101.736 97.2988L101.762 97.6538L101.747 97.8378L101.7 97.9898L101.621 98.1098L101.535 98.1248L101.262 97.8068L100.949 97.2318L100.711 97.0568L100.701 97.1168L100.766 97.2818L100.961 97.5918L100.996 97.7778L101.133 98.0048L101.194 98.1758L101.229 98.4008L101.228 98.5968L101.19 98.7648L101.127 98.8718L101.038 98.9188L100.56 98.8718L100.275 98.9838L99.9416 98.9208L99.8616 98.8188L99.8116 98.6528L99.7866 98.2488L99.7026 97.6688L99.7226 97.2218L99.5076 96.8168L99.3236 96.5718L99.0586 96.3528L98.8846 96.1348L98.9326 95.9608L99.2036 95.8308L99.6476 95.8618L100.605 96.1668ZM98.8556 96.9798L99.0376 97.3338L99.3016 97.3048L99.4496 97.5728L99.5616 97.9728L99.4796 98.2288L99.3626 98.1718L99.2326 98.3198L99.1526 98.8108L99.1896 99.3018L99.1496 99.7898L98.9986 100.286L98.9676 100.618L98.9086 100.717L98.8436 100.751L98.7596 100.661L98.6376 100.591L98.4836 100.87L98.2956 100.872L98.1396 100.237L98.2786 99.1749L98.5906 98.9578L98.4046 98.6678L98.0126 98.3298L98.0456 98.1418L97.7476 97.5968L97.7306 97.4668L97.7776 97.0108L98.0556 96.6028L98.4236 96.5308L98.6806 96.7058L98.8246 96.8548L98.8556 96.9798ZM102.343 98.6078L102.313 98.6818L101.956 98.6749L101.827 98.6138L101.779 98.3968L101.812 98.1958L101.895 98.0398L101.996 97.7388L102.075 97.2368L102.598 97.7988L102.759 98.0488L102.845 98.3538L102.659 98.4678L102.434 98.5228L102.343 98.6078ZM42.1106 98.6628L41.9726 98.6738L41.7646 98.5398L41.7926 98.3788L42.0886 98.1848L42.3876 98.2148L42.4096 98.3228L42.3956 98.4448L42.3716 98.5148L42.2766 98.5878L42.1106 98.6628ZM40.7796 99.0638L40.5876 99.1838L40.5246 99.1418L40.5156 99.0428L40.5606 98.8848L40.6496 98.7268L40.9456 98.4268L41.2436 98.2278L41.3956 98.2398L41.4476 98.3668L41.2616 98.6298L40.7796 99.0638ZM104.124 100.71L104.066 101.543L103.955 101.496L103.849 101.495L103.633 101.613L103.405 101.561L103.298 101.469L103.259 101.362L103.3 101.114L103.174 100.976L102.748 100.926L102.588 100.867L102.5 100.606L102.479 100.264L102.546 100.136L102.761 100.046L102.928 99.6288L103.021 99.5728L103.375 98.7448L103.553 98.8028L103.864 99.3068L104.254 100.033L104.124 100.71ZM102.251 100.017L102.107 100.033L101.937 99.9558L101.534 99.5448L101.527 99.4238L101.585 99.2858L101.814 99.0338L101.908 98.9728L102.458 98.9998L102.634 99.0668L102.674 99.1848L102.665 99.3048L102.607 99.4258L102.594 99.5518L102.625 99.6838L102.561 99.8148L102.251 100.017ZM100.044 99.5528L100.576 99.6608L101.063 99.6498L101.23 99.8578L101.34 100.077L101.404 100.283L101.422 100.476L101.409 100.612L101.35 100.758L101.363 100.807L102.315 101.284L102.764 101.784L102.943 102.046L103.047 102.267L103.235 102.82L103.631 103.46L103.839 103.654L103.957 103.843L103.891 103.85L103.612 103.71L103.008 103.282L102.958 103.299L102.903 103.531L102.809 103.734L102.67 103.88L102.781 103.923L103.268 103.831L103.678 104.247L103.837 104.322L103.991 104.62L103.996 104.734L103.906 104.954L103.837 105.044L103.86 105.105L103.974 105.136L104.426 105.074L104.507 105.182L104.44 106.038L104.504 106.352L104.503 106.495L104.451 106.684L104.449 106.844L104.49 107.008L104.495 107.154L104.38 107.535L104.259 107.599L104.064 107.602L103.91 107.494L103.694 107.166L103.484 106.656L103.403 106.583L103.127 106.506L103.077 106.445L102.901 106.434L102.776 106.224L102.791 105.948L102.683 105.665L102.696 105.539L102.575 105.486L102.473 105.566L102.526 105.843L102.466 106.057L102.247 105.967L101.881 105.281L101.465 104.729L101.302 104.598L101.345 104.437L101.55 104.352L101.716 104.359L101.75 104.263L101.403 103.727L101.415 103.575L101.541 103.304L101.383 103.191L100.95 103.276L100.797 103.219L100.672 103.001L100.599 102.812L100.224 102.778L100.082 102.801L99.8366 102.514L99.7256 102.333L99.7696 102.24L99.9946 102.077L100.127 102.1L100.38 102.274L100.479 102.268L100.73 102.037L100.768 101.829L100.956 101.657L100.926 101.476L100.822 101.167L100.592 101.081L100.122 101.265L99.7126 101.548L99.5486 101.438L99.5126 101.265L99.9506 100.793L100.143 100.532L100.106 100.377L99.9646 100.176L99.9526 99.6728L100.044 99.5528ZM107.304 103.801L107.206 104.343L107.013 104.896L106.718 105.193L106.51 105.127L106.357 104.887L106.215 104.9L106.064 104.851L105.979 104.652L106.059 104.395L105.988 104.196L105.913 104.37L105.78 104.529L105.445 104.737L105.214 105.133L105.105 105.391L104.969 105.11L104.882 104.443L104.871 104.159L105.114 103.73L105.428 103.322L105.491 102.099L106.489 101.481L106.582 101.513L106.906 101.974L107.251 102.617L107.34 102.906L107.342 103.409L107.304 103.801ZM38.3006 102.153L38.1916 102.31L37.9786 102.299L37.8596 102.248L37.8196 102.11L38.1476 101.694L38.2226 101.638L38.2816 101.654L38.3076 101.826L38.3006 102.153ZM100.777 103.531L100.839 103.67L100.843 103.758L100.437 104.086L100.43 104.154L100.335 104.356L100.25 104.43L100.099 104.649L99.8096 104.885L99.8526 104.176L99.5656 103.763L99.8546 103.554L100.044 103.614L100.358 103.638L100.664 103.456L100.777 103.531ZM23.9346 104.661L23.9776 104.664L24.0636 104.626L24.2456 104.349L24.3056 104.337L24.3066 104.422L24.2206 104.696L24.3666 105.062L24.5026 105.237L24.4886 105.299L24.1476 105.425L23.8876 105.334L23.7506 105.366L23.6256 105.493L23.5406 105.352L23.4816 104.677L23.5016 104.559L23.6436 104.324L23.8266 104.218L23.9056 104.249L23.9716 104.343L23.9886 104.441L23.9346 104.661ZM24.9326 104.548L24.8936 104.936L24.5076 104.689L24.4046 104.566L24.4736 104.475L24.8406 104.452L24.9326 104.548ZM102.019 106.718L102.088 106.784L102.158 106.738L102.272 106.565L102.473 106.599L102.619 106.657L102.708 106.729L102.661 106.981L102.625 107.391L102.542 107.536L102.46 107.74L102.175 107.619L101.944 107.359L101.609 106.911L101.422 106.587L101.407 106.45L101.289 106.351L101.059 105.791L100.929 105.347L100.722 105.296L100.461 105.172L100.36 104.928L100.43 104.714L100.802 104.606L101.361 105.156L101.446 105.389L101.646 105.661L101.684 106.04L101.786 106.188L102.019 106.718ZM26.2136 105.574L26.0426 105.681L25.9886 105.817L25.8586 105.875L25.7496 105.986L25.3816 106.488L25.2206 106.58L25.3986 106.152L25.4266 106.016L25.4296 105.925L25.3746 105.601L25.4816 105.615L25.5696 105.548L25.7476 105.26L25.9076 105.235L26.0796 104.892L26.1726 104.865L26.2186 104.911L26.1426 105.119L26.3076 105.31L26.2656 105.495L26.2136 105.574ZM106.292 105.814L106.579 106.451L106.594 106.674L106.321 106.752L106.106 106.72L105.995 106.647L105.966 106.543L106.036 106.221L105.894 106.032L105.73 105.967L105.584 106.078L105.576 105.76L105.686 105.531L105.625 105.22L105.623 104.985L105.66 104.91L105.808 104.917L106.111 105.16L106.292 105.814ZM27.2176 105.461L27.2026 105.851L27.1616 105.912L27.0866 105.808L26.9286 105.924L26.8426 105.84L26.8796 105.704L26.8676 105.598L26.9846 105.589L27.0126 105.395L26.9916 105.313L27.0496 105.138L27.1326 105.097L27.2176 105.461ZM27.6476 106.338L27.5566 106.363L27.4816 106.31L27.3776 106.033L27.3686 105.916L27.5696 106.003L27.6456 106.205L27.6476 106.338ZM16.1016 106.298L16.3736 107.103L16.4916 107.26L16.6666 107.345L16.9126 107.431L17.0586 107.55L17.1866 107.731L17.2036 107.814L16.4326 107.491L15.9476 107.963L15.8016 108.025L14.4256 108.047L14.1506 108.134L13.9726 108.287L13.6586 108.716L13.4986 108.883L13.3306 108.982L12.9736 109.092L12.5446 109.077L12.3206 109.021L12.2006 108.817L12.0946 108.415V108.303L12.1396 108.11L12.5216 107.844L12.6486 107.703L13.1436 106.786L13.2876 106.66L13.4396 106.629L13.8626 106.693L14.2236 106.424L15.0016 106.014L15.1726 105.965L15.7326 105.956L15.8856 106.02L16.0036 106.135L16.1016 106.298ZM19.4076 106.949L19.3406 106.971L19.1476 106.822L19.0776 106.711L19.0266 106.537L19.4206 106.287L19.5026 106.284L19.5766 106.425L19.5896 106.535L19.4806 106.851L19.4076 106.949ZM18.6886 109.105L18.4456 109.21L18.1876 109.1L17.9666 108.897L17.9416 108.655L18.4336 108.812L18.5386 108.886L18.6886 109.105ZM10.2496 110.374L10.1266 110.41L10.0976 110.361L10.0826 110.151L9.98861 109.817L10.1676 109.696L10.2796 109.668L10.3266 109.719L10.4556 109.969L10.5846 110.035L10.6796 110.088L10.5126 110.164L10.2496 110.374ZM9.46361 110.689L9.35761 110.773L9.27261 110.791L9.20861 110.744L8.91561 110.801L8.85861 110.767L8.72961 110.482L8.72161 110.335L8.77261 110.219L8.90261 110.113L9.11261 110.018L9.31961 110.038L9.67961 110.301L9.84861 110.455L9.88061 110.55L9.75461 110.64L9.46361 110.689ZM7.29161 111.497L7.41261 111.723L7.62161 111.58L7.77561 111.384L7.89561 111.131L7.97361 111.031L8.07661 111.165L8.37061 111.347L8.12261 111.627L7.64661 112.045L7.48661 112.325L7.47661 112.446L7.93861 112.354L8.06761 112.367L8.14961 112.463L8.02361 112.576L7.77261 112.679L7.55461 112.878L7.04861 113.222L6.85761 113.508L6.63161 113.617L6.32361 113.643L5.78161 113.829L5.45261 114.004L5.36961 114.098L5.26561 114.141L5.14161 114.136L5.00861 114.213L4.86461 114.371L4.74461 114.445L4.54861 114.462L4.44661 114.524L4.33261 114.522L4.01961 114.333L3.94161 114.223L4.21861 114.002L4.41861 113.928L4.72361 113.895L5.02261 113.69L5.63861 113.419L5.82961 113.271L5.95261 112.754L6.09261 112.666L6.16761 112.459L6.50861 112.465L6.66461 112.697L6.71961 112.729L6.74661 112.707L6.76161 112.521L6.93661 112.391L6.83561 112.295L6.52061 112.175L6.28661 112.118L6.13361 112.125L6.00961 112.058L5.91361 111.916L5.87061 111.775L5.87861 111.635L5.95661 111.478L6.10361 111.304L6.27161 111.205L6.63461 111.134L6.95661 111.018L7.12661 111L7.25561 111.049L7.29161 111.497ZM8.42961 112.34L8.38961 112.354L8.31761 112.237L8.31461 112.13L8.36061 112.052L8.49161 111.87L8.58461 111.806L8.69961 111.773L8.73061 111.822L8.62961 112.037L8.50361 112.182L8.42961 112.34ZM3.50561 114.121L2.64661 114.622L2.36761 114.988L2.15461 115.34L1.98761 115.532L1.86561 115.565L1.72961 115.658L1.44561 115.903L1.32561 115.933L0.413609 116.504L0.349609 116.513L0.393609 116.364L0.671609 116.153L0.853609 115.96L1.05861 115.642L1.17161 115.524L1.20761 115.364L1.22261 115.04L1.27361 114.917L1.46961 114.673L1.61261 114.54L1.80061 114.494L2.18061 114.535L2.33861 114.41L2.38761 114.316L2.29161 114.23L2.26961 114.081L2.29461 113.823L2.40461 113.594L2.59961 113.394L2.86561 113.238L3.20161 113.126L3.44761 113.121L3.88961 113.357L3.95461 113.465L3.84561 113.701L3.78361 113.923L3.50561 114.121ZM212.832 135.168L213.168 135.116L213.457 135.131L213.748 135.154L213.903 135.188L214.351 135.374L214.643 135.526L215.062 135.808L215.294 135.933L215.406 136.226L215.536 136.601H215.722L215.862 136.381L216.218 136.341L216.686 136.495L217.098 136.933L217.69 137.323L218.052 137.517L218.42 137.516L218.887 137.323L219.384 136.949L219.742 136.884L219.954 136.921L220.075 137.212L220.223 137.323L220.609 137.29L221.414 137.346L222.055 137.267L222.201 137.434L222.331 137.697L222.591 137.78L222.944 137.697L223.499 137.754L223.423 137.796L223.341 137.787L223.234 137.85L223.101 137.984L222.794 138.175L222.314 138.424L221.76 138.652L220.637 139.063L219.937 139.489L219.627 139.744L218.422 141.02L217.695 141.697L216.518 142.645L216.406 142.765L216.399 142.877L216.495 142.982L216.735 143.134L216.922 143.153L217.161 143.122L218.106 142.86L218.504 142.678L218.895 142.372L218.935 142.362L219.098 142.418L219.149 142.445L219.657 142.092L219.824 142.047L219.955 142.056L220.118 142.195L220.156 142.279L220.101 142.441L219.955 142.68L219.884 142.881L219.888 143.044L219.825 143.22L219.665 143.459L219.723 143.523L220.152 143.351L220.215 143.284L220.222 143.244L220.196 143.196L220.245 143.174L220.583 143.409L220.808 143.539L220.997 143.601L221.355 143.526L221.882 143.314L222.332 143.056L222.704 142.75L223.168 142.562L223.725 142.493L224.123 142.385L224.363 142.237L224.685 141.948L224.866 141.863L225.094 141.837L225.265 141.725L225.38 141.527L225.598 141.302L225.918 141.05L226.101 140.948L226.146 140.996L226.163 141.085L226.151 141.216L226.231 141.321L226.402 141.402L226.48 141.509L226.465 141.642L226.511 141.755L226.619 141.849L226.647 142.053L226.597 142.366L226.591 142.569L226.629 142.661L226.667 142.713L226.728 142.663L226.805 142.553L226.833 142.485L226.853 142.416L227.321 142.1L227.412 142.084L227.565 142.166L228.273 142.28L228.552 142.361L228.845 142.542L228.945 142.612L229.304 143.196L229.468 143.424L229.57 143.487L229.628 143.576L229.674 143.782L229.73 143.844L230.256 143.888L230.494 143.851L230.639 143.768L230.8 143.822L230.977 144.012L231.151 144.065L231.322 143.982L231.483 143.984L231.634 144.073L231.704 144.137L231.75 144.134L232.049 143.844L232.409 143.586L232.89 143.307L233.169 143.183L233.246 143.213L233.689 143.12L234.088 143.112L234.617 143.168L235.107 143.103L235.558 142.916L235.957 142.812L236.304 142.79L236.435 142.842L236.35 142.969L236.304 143.186L236.298 143.494L236.268 143.688L236.215 143.77L236.209 143.848L236.249 143.922L236.586 143.97L236.763 144.07L236.966 144.074L237.195 143.983L237.37 144.018L237.492 144.177L237.669 144.206L237.841 144.092L237.962 143.985L238.066 143.938L238.147 143.928L238.233 143.982L238.291 144.073L238.437 144.323L238.509 144.492L238.553 144.743L238.584 144.826L238.58 144.972L238.482 145.071L238.456 145.15L238.515 145.229L238.847 145.251L238.998 145.329L239.054 145.416L239.016 145.512L239.037 145.615L239.118 145.723L239.384 145.887L239.449 145.965L239.43 146.048L239.351 146.101L239.212 146.125L238.196 145.971L237.897 145.946L237.853 146.003L237.825 146.011L237.777 145.996L237.69 145.993L237.646 145.956L237.609 145.853L237.521 145.787L237.38 145.758L237.259 145.836L237.118 146.141L237.14 146.198L237.117 146.393L237.153 146.446L237.151 146.49L237.111 146.527L237.028 146.522L236.902 146.476L236.425 146.015L236.064 145.785L235.617 145.616L235.263 145.533L235.003 145.537L234.789 145.656L234.622 145.888L234.361 146.02L234.006 146.052L233.814 146.115L233.784 146.208L233.656 146.21L233.43 146.122L233.197 146.097L232.956 146.136L232.78 146.227L232.593 146.512L232.556 146.652L232.421 146.774L232.062 146.964L232.044 147.034L231.855 147.25L231.795 147.369L231.796 147.486L231.733 147.479L231.606 147.348L231.601 147.172L231.718 146.95L231.823 146.843L231.915 146.85L231.972 146.751L231.994 146.547L231.961 146.445L231.782 146.485L231.688 146.566L231.569 146.584L231.426 146.538L231.3 146.649L231.191 146.918L231.061 147.094L230.91 147.177L230.808 147.085L230.756 146.818V146.609L230.817 146.356L230.786 146.307L230.722 146.388L230.626 146.599L230.498 147.059L230.416 147.208L230.305 147.271L230.129 147.549L229.889 148.041L229.618 148.518L229.316 148.978L229.134 149.225L229.073 149.26L229.046 149.342L229.031 149.637L228.977 149.837L228.819 149.994L228.406 150.192L228.341 150.327L228.332 150.438L228.066 150.897L227.936 151.178L227.851 151.47L227.878 151.654L228.017 151.729L228.13 151.7L228.216 151.567L228.348 151.446L228.527 151.338L228.657 151.179L228.838 150.792L229.041 150.569L229.149 150.556L229.179 150.562L229.39 150.461L229.56 150.494L229.663 150.646L229.768 150.75L229.791 150.848L229.739 151.066L229.642 151.296L229.501 151.537L229.373 151.898L229.258 152.379L229.234 152.742L229.3 152.987L229.237 153.206L229.045 153.398L228.89 153.655L228.773 153.976L228.707 154.245L228.691 154.463L228.708 154.626L228.78 154.846L228.775 154.957L228.567 155.44L228.492 155.674L228.479 155.859L228.427 156.041L228.268 156.41L228.218 156.615L228.209 156.803L228.245 157.111L228.225 157.215L228.234 157.294L228.273 157.347V157.444L228.232 157.585L228.248 157.694L228.32 157.772L228.366 157.921L228.387 158.14L228.442 158.323L228.531 158.469L228.547 158.682L228.49 158.96L228.461 159.482L228.46 160.247L228.502 160.737L228.588 160.954L228.684 161.114L228.79 161.217L228.912 161.533L229.05 162.063L229.177 162.413L229.295 162.583L229.401 162.677L229.485 162.732L229.547 162.74L229.582 162.823L229.74 162.873L230.029 162.894L230.295 162.861L230.537 162.775L231.307 162.329L231.606 162.086L231.772 161.868L231.933 161.581L232.088 161.225L232.404 160.691L232.558 160.368L232.706 159.958L232.818 159.528L232.893 159.077L232.929 158.608L232.925 158.122L232.849 157.632L232.702 157.137L232.623 156.884L232.592 156.817L232.326 156.181L232.026 155.293L232.03 155.217L232.31 154.686L232.317 154.614L232.287 154.182L232.227 153.965L232.084 153.673L232.089 153.599L232.38 153.226L232.556 152.942L232.716 152.597L232.82 152.194L232.867 151.733L232.866 151.425L232.815 151.271L232.82 151.152L232.881 151.069L233.193 150.961L233.298 150.778L233.32 150.456L233.384 150.296L233.49 150.299L233.588 150.233L233.678 150.098L233.797 150.059L233.945 150.118L234.152 149.918L234.418 149.459L234.622 149.202L234.765 149.148L234.792 149.19L234.704 149.327L234.677 149.478L234.711 149.642L234.681 149.801L234.615 150.018L234.656 150.086L234.542 150.435L234.537 150.609L234.606 150.741L234.688 150.695L234.783 150.47L234.812 150.35L234.773 150.335L234.788 150.239L234.855 150.063L234.915 149.979L234.967 149.989L234.981 150.085L234.958 150.268L234.807 150.699L234.777 150.83L234.811 150.867L234.993 150.597L235.145 150.167L235.261 149.837L235.282 149.657L235.247 149.192L235.254 149.001L235.298 148.869L235.456 148.72L235.727 148.554L235.995 148.465L236.26 148.454L236.445 148.409L236.55 148.33L236.513 148.266L236.335 148.219L236.199 148.115L236.107 147.954L236.076 147.769L236.107 147.561L236.22 147.356L236.416 147.155L236.478 147.008L236.405 146.913L236.489 146.879L236.729 146.906L236.897 146.88L236.992 146.801L237.018 146.811L237.219 146.886L237.578 147.133L237.919 147.277L238.242 147.318L238.478 147.405L238.626 147.538L238.733 147.687L238.798 147.852L238.952 147.945L239.195 147.966L239.386 148.036L239.525 148.155L240.297 148.462L240.62 148.624L240.798 148.782L240.848 148.884L240.833 148.984L240.851 149.091L240.983 149.299L241.033 149.318L241.064 149.418L241.075 149.6L241.114 149.722L241.18 149.784L241.139 149.809L240.901 149.704L240.766 149.736L240.703 149.872L240.693 150.001L240.736 150.122L241.04 150.486L241.119 150.818L241.134 151.219L241.096 151.375L241.064 151.718L241.038 152.248L241.032 152.429L240.932 152.606L240.661 152.86L240.657 152.812L240.592 152.799L240.522 152.838L240.424 153.055L240.34 153.451L240.238 153.666L240.117 153.7L240.044 153.757L240.02 153.837L239.891 153.891L239.656 153.919L239.495 154.039L239.375 154.377L239.38 154.539L239.324 154.74L239.328 154.912L239.391 155.055L239.581 155.198L239.897 155.341L240.086 155.363L240.216 155.303L240.352 155.069L240.484 154.977L240.645 154.938L240.706 154.832L240.971 154.363V154.259L240.874 154.219L240.888 154.19L241.013 154.171L241.121 154.108L241.213 154L241.374 153.92L241.766 153.797L241.976 153.657L242.109 153.634L242.303 153.709L242.557 153.881L242.758 154.132L242.906 154.461L243.093 155.312L243.319 156.679L243.473 157.441L243.556 157.603L243.597 157.684L243.398 158.745L243.238 159.182L242.958 159.435L242.68 159.68L242.333 160.09L241.952 160.292L241.757 160.411L241.715 160.488L241.668 160.464L241.564 160.686L241.471 160.993L241.434 161.23L241.467 161.36L241.388 161.443L241.245 161.599L241.218 161.656L241.228 161.747L241.198 161.791L241.129 161.789L241.076 161.833L240.947 161.996L240.725 162.422L240.683 162.511L240.72 162.577L240.974 162.618L241.147 162.696L241.282 162.813L241.769 163.042L241.918 163.184L242.066 163.262L242.213 163.276L242.314 163.231L242.368 163.127L242.437 163.12L242.521 163.21L242.795 163.308L242.804 163.339L242.044 163.509L241.885 163.588L242.075 163.643L242.267 163.63L242.46 163.548L242.682 163.552L242.877 163.591L242.939 163.558L242.964 163.541L243.296 163.764L243.42 163.797L243.549 163.772L243.682 163.688L243.975 163.579L244.427 163.444L244.862 163.389L245.28 163.414L245.544 163.376L245.786 163.236L246.32 162.776L246.933 162.405L247.942 161.944L249.442 161.389L249.674 161.26L249.909 161.133L250.031 161.06L250.167 160.994L251.211 160.412L251.749 160.068L252.018 159.818L252.302 159.61L252.6 159.444L252.836 159.231L253.011 158.971L253.204 158.777L253.415 158.65L253.529 158.516L253.545 158.376L253.505 158.186L253.411 157.947L253.398 157.759L253.466 157.621L253.481 157.528L253.443 157.48L253 157.343L253.019 156.683L253.013 156.664L253.036 156.656L254.057 156.363L254.708 156.262L255.501 156.235L256.446 156.38L256.813 156.512L257.045 156.68L257.313 156.725L257.617 156.647L258.038 156.621L258.577 156.647L258.865 156.687L258.903 156.74L258.94 156.724L258.977 156.64L259.121 156.547L259.525 156.408L259.579 156.437L259.662 156.367L259.774 156.197L259.98 156.009L260.28 155.803L260.551 155.696L260.794 155.687L260.956 155.637L261.038 155.544L261.063 155.462L261.031 155.391L261.045 155.312L261.059 155.273L261.047 155.241L261.018 155.174L260.995 154.836L260.948 154.677L260.882 154.559L260.798 154.483L260.808 154.404L260.954 154.306L260.943 154.397L260.981 154.425L261.049 154.383L261.205 154.179L261.223 154.102L261.329 154.023L261.408 153.9L261.321 153.882L261.114 153.919L261.067 153.882L261.174 153.718L261.154 153.625L261.12 153.586L261.052 153.57L260.819 153.714L260.747 153.727L260.737 153.651L260.617 153.482L260.939 153.182L262.077 152.345L262.193 152.218L262.236 152.104L262.205 152.004L262.173 151.979L262.19 151.954L263.287 150.872L263.91 150.371L264.424 150.091L264.816 149.958L265.081 149.977L265.231 149.958H265.359L266.012 149.957L267.18 149.955L268.348 149.954L269.516 149.952L270.683 149.95L271.851 149.948L273.019 149.946L274.186 149.944L274.463 149.18L274.72 148.823L275.073 148.941L275.261 148.931L275.47 148.747L275.639 148.635L275.75 148.652L275.845 148.82L275.924 148.932L276.017 148.899L276.096 148.74L276.093 148.519L276.201 148.365L276.33 148.342L276.449 148.347L276.509 148.272L276.502 148.165L276.46 147.991L276.475 147.782L276.772 147.411L277.136 147.16L277.263 147.034L277.3 146.779L277.509 146.514L277.613 146.361L277.638 146.228L277.584 146.064L277.589 145.751L277.661 145.377L277.747 144.969L277.939 144.601L278.254 144.199L278.336 143.669L278.421 143.109L278.803 142.562L279.236 141.939L279.483 141.584L279.927 140.937L280.243 140.475L280.402 140.263L280.568 140.011L280.839 140.087L281.109 140.162L281.069 140.528L281.113 140.794L281.241 140.947L281.426 141.051L281.566 141.086L281.731 141.084L282.181 140.877L282.709 140.743L283 140.618L283.053 140.501L283.185 140.46L283.396 140.495L283.786 140.788L284.241 141.23L284.6 141.579L284.611 142.183L284.618 142.821L284.625 143.491L284.63 143.968L284.639 144.622L284.646 145.14L284.655 145.815L284.66 146.175L284.709 146.279L284.679 146.42L284.666 146.491L284.669 146.548L284.689 146.619L284.686 146.718L284.64 146.807L284.617 146.911L284.611 147.08L284.66 147.184L284.742 147.245H284.811L284.9 147.306L285.015 147.414L285.19 147.508L285.371 147.541L285.496 147.518L285.647 147.579L285.7 147.729L285.67 147.87L285.585 147.936L285.493 147.987L285.476 148.095L285.522 148.207L285.588 148.305L285.66 148.477L285.63 148.627L285.564 148.753L285.535 148.883L285.591 148.995L285.739 149.144L285.831 149.288L285.976 149.367L286.045 149.311L286.101 149.236L286.16 149.18L286.262 149.213L286.381 149.255L286.51 149.305L286.494 149.426L286.573 149.629L286.634 150.019L286.54 150.196L286.56 150.43L286.82 150.498L286.883 150.57L286.895 150.656L286.322 151.255L285.837 151.172L285.574 151.331L285.299 151.377L285.178 151.644L285.027 151.701L284.82 151.685L284.641 151.61L284.505 151.647L284.314 152.128L284.158 152.086L284.096 152.259L284.014 152.335L283.894 152.399L283.79 152.186L283.724 151.983L283.626 151.939L283.496 151.887L283.363 151.889L283.274 151.918L283.163 152.049L283.003 152.162L282.882 152.068L282.787 151.917L282.706 152.16L282.588 152.416L282.608 152.714L282.557 152.891L282.445 152.844L282.334 152.689L282.022 152.565L281.773 152.576L281.824 152.41L282.059 152.172L281.986 152.126L281.871 152.159L281.821 152.126L281.904 151.909L281.912 151.67L281.807 151.753L281.675 152.005L281.355 152.206L281.37 152.542L281.069 153.228L281.055 153.52L280.862 153.752L280.612 153.952L280.279 153.896L280.025 154.069L279.896 154.268L279.784 154.298L279.726 154.045L279.684 153.967L279.59 154.341L279.495 154.364L279.459 154.099L279.414 153.924L279.284 154.075L279.198 154.475L279.108 154.441L279.079 154.293L279.014 154.248L278.992 154.418L279.024 154.657L278.977 154.784L278.887 154.716L278.797 154.601L278.648 154.688L278.511 154.723V154.606L278.537 154.462L278.265 154.541L277.938 154.806L277.684 155.172L277.772 155.233L277.871 155.349L277.43 155.912L276.978 156.418L276.637 157.241L276.5 157.337L276.382 157.487L276.257 157.982L276.113 158.421L276.194 158.617L276.247 158.818L276.375 159.016L276.484 159.034L276.602 158.998L276.688 159.006L276.744 159.09L276.72 159.191L276.584 159.216L276.33 159.392L276.107 159.46L275.996 159.672L275.829 159.917L275.504 160.299L275.643 160.417L276.144 160.549L276.368 160.685L276.706 161.395L276.629 161.466L276.598 161.596L276.899 161.778L276.995 162.286L277.242 162.459L277.61 162.565L278.061 162.412L278.436 162.201L278.423 162.028L278.187 161.624L278.13 161.435L277.955 161.312L277.889 161.416L277.776 161.281L277.763 161.205L277.868 161.168L277.991 161.183L278.134 161.254L278.502 161.695L278.604 162.271L278.626 162.636L278.584 162.761L278.477 162.735L278.273 162.76L277.304 162.949L277.089 163.115L276.596 163.295L276.565 163.205L276.601 163.019L276.57 162.637L276.473 162.619L275.706 163.242L275.41 163.281L275.161 163.463L275.105 163.362L275.061 162.896L275.217 162.504L275.134 162.51L274.874 162.745L274.763 162.6L274.707 162.441L274.627 162.351L274.54 162.317L274.615 162.664L274.438 162.924L274.39 163.595L274.168 163.873L273.476 164.052L273.025 164.014L272.621 164.07L272.084 164.198L271.787 164.122L271.483 164.257L270.451 164.294L270.233 164.222L269.955 164.477L269.51 164.628L268.385 165.199L268.137 165.407L267.835 165.73L267.632 165.904L267.465 165.961L267.362 166.106L267.25 166.2L267.358 165.878L267.475 165.606L267.573 165.077L267.544 164.649L267.423 164.473L267.298 164.355L267.444 164.778L267.468 165.296L267.417 165.599L267.141 166.182L267.024 166.317L266.887 166.437L266.783 166.488L266.687 166.581L266.576 166.728L266.471 167.02L266.535 167.286L267.073 167.383L267.218 167.301L267.291 167.491L267.333 167.755L267.292 168.041L267.202 168.331L267.134 168.691L267.076 169.238L266.989 169.729L266.977 169.58L267.032 168.982L266.944 169.045L266.883 169.183L266.719 169.953L266.493 170.362L266.285 170.645L266.07 170.598L266.118 170.823L266.059 170.94L266.009 171.184L265.881 171.345L265.761 171.33L265.589 171.441L265.521 171.526L265.516 171.689L265.4 171.832L264.983 172.574L264.621 172.792L264.535 172.76L264.63 172.41L264.695 172.056L264.475 171.902L264.265 171.82L264.024 171.831L263.757 171.555L263.414 171.355L262.935 170.811L262.949 170.66L262.937 170.406L263.083 170.005L263.222 169.724L263.415 169.578L263.975 169.43L264.115 169.207L264.198 169.019L263.921 169.342L263.506 169.452L263.282 169.573L263.103 169.757L262.997 169.988L262.757 170.266L262.774 170.452L262.814 170.584L262.795 170.86L262.947 171.128L263.247 171.567L263.305 172.247L263.534 172.701L263.886 173.229L264.156 173.379L264.17 173.575L264.045 173.899L263.88 174.047L264.094 174.017L264.2 174.091L264.304 174.361L264.296 174.636L264.261 174.79L264.196 174.852L264.198 174.694L264.152 174.639L264.076 174.707L264.027 174.785L264.006 175.092L263.954 175.245L263.77 175.29L263.583 175.692L263.41 175.92L262.729 177.456L262.755 177.712L262.63 177.794L262.442 177.861L262.251 178.014L262.124 178.182L262.006 178.634L261.78 179.142L261.639 178.931L261.603 178.75L261.666 178.276L261.91 177.499L262.179 177.015L262.384 176.785L262.552 176.315L262.339 176.245L262.014 176.253L262.075 176.036L262.17 175.845L262.001 175.654L261.901 175.63L261.798 175.552L261.919 175.393L261.978 175.225L261.942 175.02L261.993 174.865L261.909 174.888L261.773 175.052L261.689 175.117L261.638 174.972L261.579 175.005L261.541 175.105L261.454 175.159L261.271 175.023L261.004 174.868L260.856 174.6L260.771 174.392L260.857 174.016L261.042 173.949L261.282 174.01H261.596L261.551 173.927L261.439 173.941L261.108 173.635L261.001 173.45L260.818 173.399L260.735 173.577L260.642 173.624L260.756 173.235L260.906 173.219L261.127 173.111L261.063 172.885L260.923 172.786L260.671 172.91L260.674 172.751L260.721 172.548H260.911L261.078 172.614L261.22 172.285L261.226 172.138L260.991 172.352L260.938 171.891L261.169 171.446L261.39 171.251L261.666 171.257L261.946 171.226L261.77 171.144L261.589 171.1L261.725 170.923L261.841 170.891L261.955 170.737L261.682 170.76L261.714 170.468L261.581 170.528L261.422 170.555L261.36 170.679L261.372 170.885L261.326 171.02L261.202 171.128L260.993 171.212L260.973 171.066L260.904 171L260.878 171.313L260.823 171.419L260.67 171.126L260.624 171.185L260.63 171.268L260.591 171.412L260.46 171.487L260.468 171.671L260.417 171.772L259.998 171.612L259.988 171.666L260.225 172.011L260.398 172.129L260.419 172.317L260.27 172.473L260.065 172.339L260.03 172.349L260.142 172.579L260.212 172.78L260.14 172.948L260.151 173.156L260.135 173.344L260.091 173.508L260.191 174.261L260.311 174.466L260.429 174.661L260.492 174.844L260.367 174.87L260.167 174.72L259.991 174.605L259.782 174.238L259.748 174.091L259.697 173.975L259.721 174.241L259.796 174.538L260.45 175.202L260.571 175.456L260.663 175.656L260.64 175.846L260.469 175.711L260.322 175.539L259.931 175.344L259.438 175.221L259.16 174.767L259.161 174.956L259.099 175.117L258.929 174.921L258.822 174.754L258.786 174.571L258.574 174.583L258.352 174.743L258.137 174.705L258.112 174.394L258.17 174.229L258.411 173.839L258.639 173.639L258.739 173.381L258.705 172.981L258.663 173.388L258.533 173.589L258.328 173.743L258.059 174.017L257.994 174.27L257.91 174.743L258.023 174.903L258.139 174.945L258.481 174.838L258.658 174.886L259.052 175.454L259.786 175.678L260.054 175.818L260.272 176.114L260.6 176.284L260.855 176.531L260.862 176.692L260.774 176.882L260.739 177.139L260.631 177.301L260.372 177.32L260.215 177.278L259.372 176.373L259.271 176.29L258.958 175.815L258.591 175.56L258.477 175.565L258.999 176.036L259.212 176.365L259.587 176.825L259.855 177.02L260.052 177.324L260.236 177.466L260.737 177.668L260.563 177.814L260.841 177.938L260.881 178.165L260.856 178.424L260.47 178.321L260.457 178.512L260.492 178.624L260.322 178.717L260.085 178.591L259.47 177.901L259.475 177.993L259.525 178.1L259.882 178.544L260.201 178.81L260.471 178.93L260.679 179.153L260.753 179.287L260.802 179.491L260.648 179.629L260.472 179.706L260.301 179.568L260.175 179.422L259.907 179.175L259.826 178.898L259.622 178.912L258.77 178.561L258.085 178.52L258.152 178.591L258.238 178.638L258.783 178.724L258.998 178.886L259.446 179.03L259.709 179.069L259.815 179.509L260.178 179.812L260.225 180.036L260.473 180.061L260.909 179.842L261.19 179.919L261.596 179.982L261.689 180.159L261.758 180.495L261.902 180.873L262.274 182.359L262.833 183.568L262.902 183.776L262.772 183.593L262.357 182.793L262.128 182.213L261.893 181.187L261.825 180.957L261.744 180.865L261.691 180.94L261.668 181.071L261.707 181.172L261.614 181.51L261.654 181.665L261.804 181.825L261.968 182.224L262.099 182.761L261.922 182.543L261.734 182.428L261.441 182.34L261.18 182.185L261.199 182.407L261.174 182.647L260.973 182.574L260.836 182.494L260.958 182.749L260.695 182.673L260.519 182.689L260.405 182.916L260.252 183.053L260.026 183.097L259.69 182.89L259.582 182.638L259.537 182.357L259.519 182.689L259.579 183.034L259.558 183.296L259.881 183.344L260.183 183.302L260.591 183.313L260.857 183.264L261.017 183.181L261.401 183.253L261.428 183.569L261.384 183.883L261.362 184.216L261.468 184.214L261.593 184.107L261.656 183.508L262.007 183.286L262.125 183.302L262.237 183.494L262.275 183.689L262.315 183.957L262.233 184.365L261.694 184.841L261.308 185.28L261.11 185.369L260.826 185.318L260.503 185.208L260.344 185.186L260.224 185.223L260.151 185.087L260.104 184.84L259.979 184.758L259.884 184.767L259.82 185.029L259.519 185.104L259.11 184.995L258.681 184.775L258.865 185.011L259.928 185.452L260.048 185.535L260.16 185.655L260.012 185.844L259.895 186.057L259.878 186.224L259.837 186.329L259.413 186.612L259.184 186.562L258.597 186.051L258.865 186.493L259.079 186.68L259.511 186.78L260.32 186.615L260.586 186.795L260.368 187.114L260.152 187.337L259.868 187.362L259.618 187.423L259.544 187.576L259.366 187.586L259.087 187.595L258.656 187.609L258.419 187.573L258.088 187.886L257.963 187.929L257.789 187.87L257.716 187.618L257.638 187.494L257.636 187.965L257.667 188.092L257.73 188.187L257.343 188.442L256.972 188.76L256.839 188.846L256.688 189.005L256.379 189.464L256.303 189.798L256.191 190.17L256.177 190.003L256.196 189.721L256.12 189.398L256.071 189.99L255.951 190.264L254.849 190.245L254.367 190.394L253.627 190.895L253.406 191.115L252.794 191.962L252.638 192.503L252.513 192.276L252.544 192.106L252.546 191.966L252.393 192.251L252.539 192.687L252.408 192.853L252.004 193.163L251.783 193.213L251.535 193.301L251.457 193.606L251.12 193.887L250.924 194.011L250.564 193.936L250.675 194.206L250.543 194.411L250.315 194.568L250.032 194.67L249.87 194.657L249.732 194.711L249.623 194.841L249.358 194.963L249.083 194.895L248.771 194.854L248.597 194.927L248.889 195.048L249.046 195.222L249.014 195.457L248.936 195.547L248.751 195.67L248.67 195.652L248.621 195.542L248.561 195.312L248.475 195.361L248.46 195.468L248.386 195.507L248.124 195.14L248.137 195.42L248.228 195.635L248.316 195.744L248.405 195.808L248.427 195.908L248.248 196.151L248.156 196.205L247.992 196.244L247.9 196.393L247.927 196.522L247.783 196.801L247.44 196.975L247.336 196.968L247.251 197.019L247.301 197.143L247.386 197.233L247.383 197.317L247.293 197.431L247.114 197.463L247.014 197.592L247.046 197.715L247.105 197.783L247.092 197.9L246.889 198.018L246.841 198.134L246.942 198.168L247.02 198.134L247.077 198.159L246.955 198.353L246.846 198.471L246.742 198.683L246.501 198.742L246.51 198.811L246.646 198.872L246.76 199.035L246.546 199.336L246.412 199.311L246.33 199.245L246.278 199.482L246.298 199.608L246.247 199.867L246.165 200.177L246.109 200.304L246.121 200.541L246.156 200.77L246.287 201.064L246.488 202.265L246.625 202.681L246.871 203.801L247.278 204.883L247.852 206.186L248.794 207.758L248.907 207.981L248.784 208.17L248.747 208.366L248.736 208.661L248.77 208.949L248.881 209.3L249.095 209.836L248.975 209.73L248.665 208.96L248.629 208.508L248.673 207.865L248.6 207.881L248.541 208.09L248.508 208.335L248.429 208.43L248.322 208.055L248.33 207.886L248.444 207.688L248.411 207.617L248.226 207.515L248.187 207.356L248.212 207.198L248.107 207.114L248.024 207.118L248.08 207.507L248.167 207.745L248.275 208.316L248.45 208.661L248.552 208.95L249.742 212.02L250.024 212.409L250.128 212.688L250.236 213.271L250.26 214.018L250.066 215.379L250.022 216.304L249.994 216.276L249.975 216.178L249.93 216.165L249.762 216.588L249.533 216.969L249.457 217.561L249.347 217.857L249.016 218.17L248.811 218.162L248.309 218.397L247.956 218.336L247.536 218.468L247.26 218.453L247.1 218.174L247.124 218.049L247.187 217.924L247.295 217.895L247.666 218.188L247.736 218.064L247.624 217.918L247.409 217.836L247.251 217.746L246.932 217.078L246.601 216.619L246.545 216.311L245.974 216.123L245.561 215.838L245.291 215.332L245.136 214.433L244.954 214.332L244.877 214.262L245.055 213.927L245.243 213.646L245.095 213.716L244.986 213.82L244.847 214.068L244.745 214.106L244.652 214.068L244.545 213.592L244.576 213.007L244.726 212.788L244.495 212.782L244.256 212.865L244.291 213.06L244.257 213.167L244.083 213.139L243.95 213.071L243.771 212.867L243.526 212.479L243.023 211.407L242.925 211.256L242.758 211.097L242.837 211.048L242.98 211.019L243.303 210.535L243.556 210.242L243.64 210.039L243.625 209.952L243.513 209.826L243.366 209.936L243.303 209.905L243.137 209.65L242.979 209.578L242.869 209.633L242.985 209.841L243.089 209.919L243.048 210.222L243.006 210.32L242.908 210.407L242.755 210.36L242.678 210.435L242.587 210.356L242.497 210.223L242.396 210.004L242.663 208.768L242.91 207.978L242.938 207.074L242.957 206.94L242.936 206.699L242.605 206.176L241.142 204.895L240.009 203.371L239.027 202.798L238.282 202.924L238.153 203.039L238.098 203.189L238.144 203.36L238.077 203.431L237.877 203.422L237.608 203.462L236.905 203.863L236.657 203.848L236.432 203.952L236.263 204.03L235.823 204.072L235.45 204.161L235.289 204.113L235.184 203.88V203.639L235.269 203.824L235.401 203.969L235.462 203.911L235.484 203.783L235.353 203.532L234.93 203.21L234.449 202.739L234.596 202.755L234.633 202.654L234.484 202.521L234.547 202.368L234.652 202.207L234.449 202.231L234.266 202.344L234.26 202.483L234.224 202.594L234.126 202.578L233.944 202.441L233.048 202.059L232.264 201.843L232.866 201.746L233.192 201.821L233.153 201.705L233.074 201.631L232.817 201.538L232.489 201.573L232.282 201.529L232.071 201.622L231.839 201.759L231.632 201.829L230.824 201.928L230.169 202.035L230.274 201.922L230.386 201.849L230.773 201.738L230.831 201.508L230.74 201.286L230.638 201.339L230.531 201.512L230.4 201.387L230.255 201.388L230.215 201.663L230.028 201.848L229.944 202.034L229.397 202.18L229.327 202.132L229.487 201.955L229.474 201.857L229.292 201.941L228.986 202.275L227.909 202.384L227.968 202.308L228.196 202.292L228.515 202.187L228.45 202.009L228.327 201.813L228.213 201.791L228.138 201.676L228.142 201.314L228.069 201.102L227.894 200.884L227.835 200.926L227.706 201.3L227.599 201.789L227.546 201.947L227.227 201.958L226.944 201.924L225.984 201.983L225.626 201.817L225.477 201.785L225.386 201.789L224.969 201.941L224.493 202.057L224.381 202.02L224.221 202.015L223.876 202.41L223.469 202.595L222.443 202.262L222.188 201.995L221.961 201.938L221.682 201.905L221.383 202.234L221.155 202.677L221.514 202.92L221.822 203.036L222.33 202.939L222.611 202.724L222.84 202.731L222.95 202.688L223.05 202.576L223.246 202.664L223.253 202.753L223.114 202.878L222.938 202.983L222.832 203.107L223.032 203.356L223.347 203.44L223.465 203.404L223.538 203.124L223.732 202.943L223.995 202.982L223.958 203.096L223.995 203.203L224.116 203.386L224.102 203.648L224.125 203.711L223.842 203.826L223.631 203.865L223.462 204.016L223.551 204.103L223.379 204.18L223.263 204.149L223.204 204.177L223.186 204.27L223.097 204.355L223.226 204.614L223.491 204.782L223.678 204.994L224.43 205.272L224.612 205.264L224.791 205.544L224.936 205.64L225.075 205.689L225.059 205.881L224.811 206.022L224.744 206.19L224.682 206.284L224.57 206.165L224.456 206.078L224.191 206.341L224.063 206.397L224.126 206.113L224.026 206.002L223.875 205.717L223.654 205.541L223.498 205.482L223.377 205.371L223.23 205.326L223.105 205.338L222.893 205.273L222.879 205.121L222.82 205.007L222.654 204.873L221.863 204.619L221.858 204.724L221.913 204.803L222.027 204.856L222.163 204.958L222.162 205.261L222.103 205.389L222.078 205.571L222.025 205.757L221.928 205.903L221.712 206.002L221.617 205.919L221.463 205.52L221.245 205.395L220.899 205.38L220.664 205.47L220.408 205.857L220.201 205.92L219.494 205.72L218.688 205.414L218.709 205.312L218.836 205.279L219.08 205.321L219.067 205.216L218.818 204.874L218.773 204.72L218.805 204.532L218.724 204.536L218.575 204.694L218.061 204.56L217.919 204.399L217.617 203.947L217.191 203.932L216.998 203.658L216.649 203.773L216.473 203.9L216.318 204.097L216.378 204.199L216.533 204.361L216.463 204.44L215.966 204.555L214.814 204.426L214.477 204.305L214.025 204.049L213.399 203.841L213.097 203.807L212.802 203.848L211.942 203.869L211.743 203.924L211.573 204.013L211.463 203.915L211.412 203.74L211.512 203.712L211.623 203.609L211.723 203.405L211.735 203.281L211.665 203.201L211.532 203.193L211.238 203.724L211.406 204.021L211.395 204.128L210.808 204.189L209.475 204.786L208.955 205.108L208.982 205L209.61 204.583L209.388 204.519L209.031 204.623L208.903 204.583L209.054 204.238L209.005 203.933L208.751 203.925L208.589 204.168L208.477 204.158L208.33 204.054L208.216 204.087L208.3 204.638L208.46 204.864L208.594 205.153L208.229 205.508L207.89 205.801L207.853 206.084L207.512 206.452L207.192 206.661L206.439 207.151L206.224 207.255L205.884 207.482L205.416 207.652L204.966 207.922L204.815 207.963L205.102 207.734L205.442 207.508L205.15 207.539L204.7 207.435L204.425 207.429L204.424 207.512L204.215 207.629L203.998 207.458L203.904 207.343L203.859 207.243L203.767 207.219L203.679 207.265L204.003 207.965L204.141 207.995L204.293 208.064L204.103 208.227L203.898 208.351L203.576 208.433L203.304 208.178L203.245 208.498L203.21 208.817L203.119 208.899L202.973 209.016L202.894 208.928L202.856 208.804L202.762 208.914L202.625 208.997L202.399 209.014L202.23 209.058L202.234 209.19L202.273 209.323L202.573 209.218L202.464 209.559L202.188 209.896L201.963 209.975L201.619 209.926L201.534 209.96L201.458 210.03L201.859 210.555L201.601 211.346L201.436 211.633L201.322 211.67L201.196 211.679L200.752 211.425L200.51 211.228L200.724 211.763L201.306 211.919L201.336 212.122L201.333 212.294L201.218 212.497L201.111 212.766L201.19 212.953L201.282 213.416L201.361 213.628L201.447 214.271L201.539 214.549L202.068 215.571L202.246 215.579L202.274 215.689L202.257 215.901L201.877 215.963L201.717 216.057L201.686 216.139L201.663 216.183L201.614 216.179L201.433 216.12L201.02 215.83L200.419 215.65L199.629 215.58L199.089 215.435L198.799 215.214L198.497 215.082L198.182 215.041L197.92 214.921L197.713 214.722L197.41 214.595L197.011 214.539L196.751 214.39L196.571 214.024L196.57 214.019L196.408 213.407L196.204 213.023L195.808 212.547L195.772 212.484L195.769 212.406L195.818 212.129L195.776 211.929L195.651 211.766L195.622 211.594L195.69 211.413L195.694 211.195L195.635 210.94L195.383 210.664L194.937 210.368L194.557 209.934L194.244 209.363L193.934 208.967L193.627 208.746L193.418 208.476L193.305 208.157L193.272 207.972L193.318 207.921L193.13 207.566L192.707 206.907L192.464 206.424L192.401 206.118L192.132 205.754L191.656 205.331L191.398 205.056L191.335 204.865L190.592 204.307L190.376 203.958L190.208 203.848L190.015 203.86L189.916 203.826L189.911 203.747L189.848 203.743L189.727 203.815L189.332 203.829L188.663 203.787L188.18 203.692L187.883 203.545L187.675 203.565L187.555 203.753L187.301 203.874L186.912 203.928L186.578 204.276L186.298 204.918L186.175 205.33L186.209 205.514L186.135 205.647L185.953 205.73L185.768 205.916L185.58 206.205L185.36 206.345L185.109 206.335L184.645 206.113L183.969 205.677L183.439 205.407L183.055 205.304L182.716 205.102L182.422 204.801L182.151 204.6L181.903 204.499L181.613 204.165L181.281 203.597L181.115 203.158V202.694L180.681 201.681L180.451 201.241L180.28 201.038L179.946 200.796L179.447 200.514L178.779 199.95L177.941 199.101L177.348 198.589L177 198.415L176.698 198.108L176.442 197.668L176.192 197.387L176.166 197.374L176.144 197.368L175.527 197.364L174.91 197.36L174.293 197.356L173.676 197.353L173.059 197.349L172.442 197.346L171.825 197.342L171.208 197.338L171.206 197.707L171.196 198.079L171.195 198.447L171.193 198.815L170.201 198.817L169.209 198.819L168.217 198.821L167.225 198.823L166.233 198.825L165.241 198.827L164.249 198.829L163.257 198.831L161.926 198.347L160.595 197.862L159.264 197.376L157.933 196.889L156.602 196.402L155.271 195.914L153.94 195.425L152.609 194.935L152.743 194.748L152.921 194.248L152.6 194.284L151.797 194.355L150.994 194.426L150.191 194.497L149.388 194.568L148.585 194.639L147.782 194.71L146.979 194.781L146.176 194.852L146.17 194.831L146.15 194.468L146.02 194.34L145.853 194.419L145.777 193.947L145.819 193.724L145.799 193.506L145.642 192.969L145.225 192.317L144.324 191.504L143.865 191.232L143.505 190.888L143.276 190.792L142.988 190.766L142.905 190.921L142.579 190.815L142.628 190.43L142.31 189.894L142.05 189.834L141.395 189.87L140.52 189.575L140.262 189.399L140.173 189.084L139.763 188.81L139.223 188.541L138.922 188.604L138.529 188.562L137.968 188.368L137.641 188.344L137.004 188.401L136.766 188.36L136.545 188.115L136.307 187.992L136.357 187.69L136.327 187.417L136.363 187.204L136.256 186.737L136.339 186.303L136.267 186.146L136.132 186.025L135.71 185.847L135.633 185.624L135.702 185.314L135.592 185.109L135.246 184.918L134.923 184.484L134.513 184.246L134.345 183.847L134.093 183.6L134.005 183.381L133.445 182.598L132.847 181.985L132.755 181.631L132.732 181.146L132.966 180.85L133.092 180.589L133.079 180.35L133.043 180.174L132.837 179.868L132.041 179.686L131.394 178.927L131.356 178.345L131.102 177.749L131.099 177.36L131.06 176.939L131.253 176.847L131.425 176.881L131.408 177.048L131.466 177.349L131.669 177.575L131.862 177.674L132.038 177.893L132.17 177.959L132.306 177.975L132.233 177.834L132.155 177.744L132.06 177.452L131.88 177.079L131.673 176.873L131.568 176.497L131.478 176.41L131.422 176.27L131.622 176.104L131.895 175.986L132.261 175.954L133.299 176.01L133.52 175.913L133.703 175.944L133.837 175.932L133.555 175.832L133.397 175.865L133.21 175.844L132.839 175.864L132.689 175.822L132.524 175.704L132.416 175.692L132.073 175.898L131.92 175.873L131.558 175.648L131.4 175.616L131.146 175.744L131.115 176.295L131.194 176.704L131.042 176.746L130.865 176.578L130.594 176.478L130.37 176.325L130.054 176.04L129.888 175.936L129.7 176.173L129.693 176.064L129.786 175.788L129.76 175.325L130.043 175.695L129.955 175.435L129.735 175.148L129.568 175.048L129.358 174.534L128.885 174.225L128.506 173.725L127.73 172.894L127.679 172.162L127.396 171.233L127.515 170.703L127.499 170.327L127.36 169.757L127.215 169.447L126.586 168.594L125.981 168.018L125.89 167.581L125.848 167.14L125.98 166.747L126.095 166.332L126.178 166.222L126.211 166.268L126.188 166.356L126.274 166.383L126.307 166.2L126.358 166.106L126.268 166.094L126.277 166.036L126.331 165.92L126.519 165.374L126.499 164.684L126.7 163.835L126.69 163.554L126.562 162.948L126.434 162.584L126.206 162.326L126.307 161.948L126.299 161.587L125.896 161.066L125.742 160.381L125.713 160.091L125.753 159.323L125.648 158.994L125.379 158.451L125.494 157.978L125.618 157.689L125.921 156.426L125.994 156.323L126.12 156.326L126.341 156.111L126.239 156.061L126.085 156.164L126.222 155.662L126.376 155.231L126.476 155.076L126.527 153.664L126.615 152.579L126.76 152.22L126.709 151.849L126.768 151.346L126.726 150.836L127.037 148.367L126.996 148.067L127.091 147.664L127.002 146.599L127.042 145.401L126.963 145.248L126.923 145.082L126.997 145.057L127.141 145.232L127.809 145.23L128.235 145.068L128.39 145.121L128.57 145.341L128.797 145.385L129.08 145.346L128.994 145.291L128.861 145.276L128.563 145.073L128.394 144.87L127.873 144.884L127.767 144.754L127.185 144.884L127.005 144.751L126.688 144.837L126.766 144.459L126.752 143.981L126.769 143.515L126.847 143.855L127.044 144.216L127.139 143.807L127.204 143.291L127.012 143.093L126.692 142.946L126.577 142.464L127.334 142.052L126.932 141.965L126.774 141.78L126.579 141.757L126.564 141.9L126.501 142.087L126.433 141.838L126.413 141.545L126.333 141.044L126.023 140.235L125.835 139.182L125.599 138.66L125.147 138.16L125.029 137.868L124.921 137.125L124.982 136.561L124.898 136.163L125.115 136.186L125.686 136.499L126.397 136.744L126.612 136.922L126.957 137.054L128.869 137.259L128.994 137.239L129.241 137.112L129.346 137.128L129.627 137.419L129.768 137.454L129.951 137.439L130.086 137.384L130.317 137.185L130.348 137.259L130.344 137.444L130.426 137.707L130.595 138.047L130.659 138.258L130.317 138.852L130.252 138.865L130.242 138.664L130.197 138.624L129.553 139.626L129.327 140.099L129.305 140.312L129.313 140.437L129.403 140.468L129.609 140.419L129.914 140.223L129.929 140.18L129.645 140.25L129.509 140.256L129.528 140.032L129.56 139.926L129.746 139.594L129.941 139.395L130.218 139.183L130.378 139.008L130.488 138.752L130.796 138.446L130.853 138.361L130.84 138.109L130.859 138.061L131.008 138.095L131.07 138.529L131.033 138.722L130.767 138.957L130.734 139.04L130.78 139.361L130.739 139.392L130.638 139.354L130.607 139.375L130.858 139.723L130.938 139.993L130.949 140.234L130.881 140.695L130.808 140.772L130.683 140.744L130.517 140.6L130.48 140.646L130.348 141.004L130.305 140.973L130.223 140.548L130.178 140.516L129.923 140.71L129.82 140.896L129.732 141.192L129.62 141.331L129.938 141.361L130.225 141.301L130.455 141.442L130.533 141.446L130.743 141.308L130.807 141.215L130.981 140.768L131.068 140.688L131.197 140.685L131.322 140.618L131.508 140.372L131.516 140.274L131.448 139.723L131.468 139.41L131.433 139.311L131.35 139.208L131.36 139.108L131.425 138.943L131.43 138.794L131.374 138.661L131.399 138.51L131.575 138.184L131.608 138.04L131.822 137.715L131.768 137.584L131.61 137.424L131.51 137.283L131.41 137.063L131.334 136.989L131.309 137.023L131.416 137.383L131.393 137.407L131.115 137.213L131.05 137.09L131.016 136.923L131.04 136.798L131.19 136.674L131.369 136.629L131.354 136.525L131.13 136.187L130.981 136.033L130.866 135.958L130.711 135.938L130.642 135.883L130.624 135.804L130.657 135.7L130.74 135.666L130.979 135.708L131.108 135.634L131.096 135.499L131.057 135.424L131.063 134.94L130.972 134.546L130.925 134.479L130.874 134.472L130.82 134.525L130.67 134.539L130.577 134.41L130.474 134.16L130.288 133.564H130.576H131.773H132.969H134.166H135.363H136.559H137.756H138.953H140.15H141.346H142.543H143.74H144.936H146.133H147.33H148.527H149.723H150.92H152.117H153.313H154.51H155.707H156.904H158.1H159.297H160.494H161.69H162.887H164.084H165.281H166.477H167.674H168.871H170.067H171.264H172.461H173.658H174.854H176.051H177.248H178.444H179.641H180.838H182.034H183.231H184.428H185.625H186.821H188.018H189.215H190.411H191.608H192.805H194.002H195.196H196.393H197.59H198.786H199.983H201.18H202.377H203.573H204.77H205.967H207.163L207.825 133.57L207.836 132.667L207.844 131.953L208.45 132.04L208.631 132.17L208.689 132.232L208.672 132.429L208.722 133.026L208.832 133.522L209.086 134.117L209.087 134.118L209.108 134.35L209.191 134.495L209.344 134.63L209.924 134.793L210.931 134.984L211.502 135.203L211.637 135.45L211.906 135.549L212.309 135.501L212.591 135.398L212.832 135.168ZM130.309 134.93L130.346 135.022L130.233 135.112L130.153 135.126L130.025 134.982L129.969 134.964L130.014 135.186L129.998 135.262L129.737 135.126L129.689 135.018L129.762 134.904L129.927 134.786L129.984 134.772L130.309 134.93ZM129.661 135.657L129.735 135.796L129.433 135.707L129.306 135.627L129.268 135.549L129.223 135.294L129.244 135.211L129.379 135.182L129.631 135.498L129.661 135.657ZM130.2 135.95L130.156 135.992L130.006 135.937L129.918 135.843L129.888 135.726L129.944 135.501L130.019 135.443L130.066 135.456L130.086 135.654L130.219 135.863L130.2 135.95ZM130.897 137.106L131.034 137.655L131.093 137.426L131.475 137.822V138.017L131.429 138.082L131.349 138.105L131.276 138.048L131.209 137.911L131.123 137.839L130.94 137.793L130.845 137.637L130.812 137.531L130.803 137.223L130.757 137.127L130.66 137.106L130.567 137.033L130.423 136.817L130.403 136.759L130.471 136.583L130.627 136.288L130.74 136.148L130.81 136.163L130.897 136.252L131.001 136.414L130.981 136.528L130.561 136.751L130.547 136.803L130.751 136.866L130.826 136.922L130.897 137.106ZM225.244 138.071L225.23 138.14L225.332 138.161L225.313 138.196L225.202 138.259L224.888 138.387L224.678 138.428L224.57 138.382L224.559 138.297L224.644 138.172V138.11H224.557L224.578 138.06L224.707 137.961L225.805 137.33L226.274 137.1L226.524 137.027L226.564 137.063L226.293 137.301L226.25 137.398L226.26 137.463L226.171 137.588L225.368 138.03L225.244 138.071ZM131.109 139.45L131.094 139.53L130.939 139.435L130.888 139.347L130.894 139.15L130.933 139.022L130.962 138.996L131.053 139.052L131.079 139.085L131.109 139.45ZM131.398 140.276L131.385 140.37L131.278 140.443L131.222 140.424L131.218 140.313L131.189 140.296L131.073 140.429L131.082 140.166L131.139 139.889L131.189 139.884L131.263 140.066L131.398 140.276ZM227.302 141.038L227.25 141.171L227.26 141.251L226.919 141.603L226.795 141.825L226.692 141.86L226.609 141.709V141.587L226.693 141.495L226.776 141.364L226.786 141.183L226.754 141.117L226.65 141.28L226.708 141.315L226.725 141.343L226.705 141.402L226.313 141.315L226.196 141.188L226.216 141.011L226.347 140.784L226.818 140.303L227.026 140.169L227.616 139.957L227.941 139.908H228.268L228.505 139.978L228.652 140.117L228.513 140.209L227.867 140.288L227.849 140.313L227.973 140.389L227.996 140.443L227.882 140.584L227.302 141.038ZM130.11 141.062L130.083 141.143L130.043 141.139L129.955 140.974L129.944 140.858L130.019 140.774L130.12 141.015L130.11 141.062ZM221.114 141.797L221.022 141.861L220.987 141.831L221.009 141.705L221.055 141.632L221.126 141.611L221.161 141.642L221.16 141.724L221.114 141.797ZM220.325 142.201L220.283 142.23L220.176 142.161L220.161 142.104L220.19 142.047L220.24 142.06L220.31 142.143L220.325 142.201ZM220.778 142.234L220.684 142.257L220.483 142.221L220.486 142.161L220.695 142.078L220.788 142.055L220.81 142.09L220.778 142.234ZM220.318 142.79L220.157 142.846L220.09 142.836L220.117 142.759L220.2 142.667L220.574 142.437L220.639 142.441L220.659 142.496L220.478 142.609L220.41 142.669L220.402 142.732L220.318 142.79ZM238.778 144.504V144.591L238.692 144.571L238.62 144.512L238.562 144.414L238.49 144.169L238.38 143.995L238.545 143.798L238.644 143.775L238.75 143.819L238.765 143.934L238.687 144.12L238.691 144.31L238.778 144.504ZM238.812 144.975L238.772 144.997L238.631 144.839L238.601 144.742L238.622 144.661L238.676 144.657L238.764 144.731L238.814 144.817L238.825 144.915L238.812 144.975ZM240.544 145.915L240.571 146.005L240.503 146.137L240.306 146.204L239.906 146.197L239.647 146.146L239.528 146.052L239.502 146.003L239.513 145.898L239.571 145.891L239.656 145.948L239.783 145.924L239.952 145.818L240.041 145.738L240.049 145.685L239.995 145.583L240.038 145.54L240.25 145.58L240.329 145.646L240.472 145.874L240.544 145.915ZM237.587 146.689L237.946 146.745L237.981 146.714L238.083 146.82L238.099 146.91L238.056 146.985L237.993 147.027L237.912 147.034L237.782 146.958L237.57 146.756L237.587 146.689ZM234.796 147.563L234.7 147.583L234.627 147.536L234.639 147.348L234.737 147.02L234.833 146.87L234.963 146.931L234.937 146.971L234.963 147.321L234.916 147.474L234.796 147.563ZM231.119 148.561L231.035 148.601L230.881 148.587L230.825 148.497L230.906 148.268L230.939 148.31L231.073 148.313L231.119 148.335L231.134 148.392L231.119 148.561ZM230.754 149.003L230.702 149.054L230.615 149.02L230.581 149.095L230.601 149.278L230.572 149.362L230.495 149.348L230.491 149.382L230.559 149.463L230.566 149.552L230.513 149.649L230.461 149.694L230.412 149.687L230.335 149.797L230.231 150.024L230.195 150.155L230.228 150.191L230.204 150.267L229.945 150.611L229.845 150.644L229.736 150.596L229.659 150.496L229.614 150.343L229.601 150.225L229.619 150.141L229.847 149.836L229.948 149.637L230.006 149.413L230.111 149.27L230.265 149.208L230.39 149.069L230.485 148.852L230.595 148.758L230.719 148.786L230.773 148.868L230.754 149.003ZM233.604 149.554L233.571 149.61L233.493 149.605L233.431 149.551L233.37 149.376L233.39 149.338L233.541 149.363L233.594 149.437L233.604 149.554ZM283.529 152.584L283.365 152.66L283.186 152.627L283.19 152.833L283.17 152.907L282.972 152.801L282.899 152.733L282.905 152.46L283.08 152.201L283.214 152.098L283.386 152.169L283.518 152.459L283.529 152.584ZM261.29 152.799L261.202 152.831L261.181 152.785L261.195 152.742L261.268 152.688H261.391L261.377 152.731L261.29 152.799ZM282.305 153.117L282.199 153.194L282.085 153.169L282.081 152.977L282.116 152.912L282.155 152.883L282.214 152.937L282.305 153.117ZM260.867 153.918L260.825 153.93L260.829 153.847L260.872 153.793L260.954 153.769L260.952 153.811L260.867 153.918ZM253.38 157.65L253.294 157.781L253.211 157.768L253.15 157.726L253.129 157.643L253.144 157.539L253.218 157.493L253.419 157.533L253.426 157.575L253.38 157.65ZM274.958 163.432L274.819 163.534L274.664 163.516L274.743 163.378L274.773 163.175L274.85 162.952L274.894 162.884L274.985 162.824L274.958 163.432ZM274.61 163.457L274.532 163.526L274.503 163.346L274.558 163.138L274.613 163.134L274.641 163.244L274.61 163.457ZM277.01 163.863L276.237 164.045L276.114 163.928L276.307 163.873L276.55 163.594L276.712 163.562L276.966 163.72L277.01 163.863ZM278.503 164.276L278.287 164.336L277.787 164.199L278.198 164.083L278.265 164.042L278.319 163.871L278.326 163.785L278.482 164.153L278.503 164.276ZM271.398 165.314L271.199 165.553L271.379 165.577L271.534 165.507L271.68 165.365L272.021 165.173L272.312 165.089L272.403 165.071L272.542 165.206L272.817 165.098L273.1 165.037L271.877 165.654L271.627 165.723L271.269 165.907L270.931 166.037L270.688 166.084L269.477 166.54L269.381 166.55L269.277 166.506L268.279 166.74L267.87 166.766L267.497 166.848L267.773 166.659L267.779 166.588L267.713 166.533L267.566 166.549L267.415 166.743L267.174 166.808L267.126 166.597L267.207 166.433L267.316 166.277L267.555 166.032L267.898 165.877L268.072 165.743L268.193 165.861L268.219 165.701L268.312 165.609L268.413 165.559L268.655 165.558L268.786 165.533L268.88 165.48L268.977 165.47L269.243 165.543L269.502 165.522L269.711 165.422L269.929 165.388L270.504 165.366L271.075 165.293L271.304 165.163L271.784 164.797L272.06 164.695L271.63 165.12L271.398 165.314ZM266.688 167.023L266.554 167.038L266.688 166.685L266.934 166.523L267.023 166.557L267.026 166.682L266.992 166.788L266.827 166.953L266.688 167.023ZM266.842 170.101L266.513 170.65L266.506 170.545L266.917 169.863L266.842 170.101ZM263.474 176.528L263.346 176.586L263.774 175.876L264.023 175.279L264.134 175.072L264.026 175.49L263.838 175.874L263.474 176.528ZM262.625 183.628L262.583 183.698L262.396 183.317L262.588 183.44L262.622 183.543L262.625 183.628ZM262.882 185.743L262.506 185.836L262.473 185.806L262.904 185.611L263.04 184.923L263.059 184.605L262.995 184.043L262.997 183.927L263.067 184.108L263.129 184.632L263.106 185.028L262.981 185.605L262.882 185.743ZM262.215 185.914L261.705 186.158L261.647 186.143L261.982 185.969L262.215 185.914ZM260.189 187.778L260.119 187.817L260.376 187.393L260.883 186.854L261.02 186.771L260.598 187.231L260.189 187.778ZM260.07 187.738L260.007 187.746L259.897 187.709L259.745 187.637L259.711 187.584L259.856 187.603L260.07 187.738ZM138.447 189.685L139.018 189.858L139.326 189.775L139.382 189.858L139.346 189.931L138.652 190.061L138.439 189.97L138.42 189.845L138.348 189.725L138.447 189.685ZM137.257 189.869L137.108 189.878L136.878 189.842L136.959 189.763L137.086 189.706L137.127 189.749L137.257 189.869ZM137.995 190.227L137.798 190.274L137.649 190.23L137.411 189.908L137.916 189.865L138.134 190.005L138.163 190.044L137.995 190.227ZM142.754 192.016L142.896 192.262L142.692 192.232L142.479 192.246L142.414 192.112L142.351 191.925L142.308 191.878L142.162 191.861L142.151 191.844L142.134 191.753L142.175 191.71L142.633 191.918L142.754 192.016ZM139.694 192.579L139.569 192.585L139.397 192.554L139.309 192.374L139.45 192.362L139.58 192.387L139.683 192.528L139.694 192.579ZM142.747 193.877L142.583 193.907L142.402 193.839L142.246 193.518L142.074 193.267L142.167 193.195L142.306 193.437L142.655 193.805L142.747 193.877ZM246.394 199.983L246.269 200.776L246.215 200.495L246.21 200.223L246.304 200.061L246.394 199.983ZM227.724 202.317L227.477 202.386L227.111 202.379L227.037 202.355L227.183 202.309L227.617 202.247L227.724 202.317ZM226.359 202.435L226.323 202.471L226.074 202.404L225.923 202.341L225.896 202.278L226.313 202.391L226.359 202.435ZM224.489 202.86L224.499 203.01L224.361 202.935L224.157 202.928L224.247 202.877L224.31 202.827L224.342 202.773L224.599 202.586L224.526 202.723L224.489 202.86ZM225.602 203.751L225.523 203.854L225.601 203.363L225.492 202.949L225.607 203.131L225.645 203.347L225.602 203.751ZM225.429 204.057L225.277 204.225L225.284 204.161L225.396 203.993L225.476 203.927L225.429 204.057ZM236.603 204.282L236.321 204.398L236.016 204.314L236.205 204.298L236.342 204.332L236.689 204.166L236.871 204.041L237.081 203.994L236.603 204.282ZM217.278 204.737L217.174 204.783L216.71 204.505L216.681 204.386L216.91 204.278L217.05 204.288L217.271 204.43L217.352 204.469L217.39 204.526L217.369 204.615L217.278 204.737ZM208.168 205.874L208.028 205.905L208.64 205.413L208.768 205.249L208.932 205.256L208.659 205.531L208.168 205.874ZM203.327 209.034L203.224 209.047L203.352 208.876L203.56 208.79L204.016 208.461L204.202 208.438L204.299 208.325L204.341 208.308L204.314 208.447L203.948 208.645L203.327 209.034ZM202.626 209.828L202.565 209.836L202.701 209.577L202.726 209.473L202.949 209.145L203.067 209.096L203.116 209.236L202.887 209.466L202.626 209.828ZM249.852 211.791L249.898 212.022L249.64 211.485L249.321 210.642L249.151 209.989L249.266 210.166L249.379 210.531L249.852 211.791ZM201.674 211.723L201.586 211.904L201.61 211.635L201.838 211.022L202.301 210.215L202.496 210.08L201.962 210.965L201.674 211.723ZM202.187 215.288L202.148 215.433L201.916 214.758L201.538 213.226L201.524 212.35L201.584 212.048L201.681 213.286L202.099 214.851L202.187 215.288ZM244.529 214.064L244.525 214.247L244.383 213.94L244.289 213.6L244.424 213.71L244.529 214.064ZM244.659 214.372L244.559 214.454L244.356 214.394L244.246 214.287L244.198 214.078L244.374 214.3L244.437 214.35L244.659 214.372ZM249.305 218.438L248.747 219.017L248.809 218.872L249.027 218.562L249.097 218.416L249.244 218.324L249.381 218.157L249.391 217.961L249.59 217.824L249.655 217.804L249.305 218.438ZM248.585 219.174L248.51 219.189L248.621 219.058L248.652 219.068L248.585 219.174ZM248.049 219.48H247.996L248.022 219.436L248.133 219.349L248.173 219.383L248.169 219.427L248.049 219.48ZM247.446 219.747L247.318 219.82L247.185 219.766L247.331 219.693L247.766 219.615L247.602 219.712L247.446 219.747ZM246.631 219.951L246.547 220.014L246.507 219.994V219.902L246.387 219.698L246.391 219.645L246.665 219.844L246.672 219.898L246.631 219.951ZM245.98 220.106L245.798 220.136L245.945 220.015L245.992 219.831L246.078 219.974L246.077 220.061L245.98 220.106ZM245.37 220.276L245.299 220.283L245.293 220.236L245.416 220.178L245.498 220.182L245.495 220.246L245.37 220.276ZM27.6176 228.21L27.3706 228.379L27.2266 228.306L26.9546 228.279L26.8496 228.152L26.5646 228.037L26.4496 227.881L26.6246 227.585L27.0386 227.335L27.6766 227.346L27.8096 227.543L27.8216 227.69L27.7386 227.855L27.7006 228.087L27.6176 228.21ZM25.3516 228.484L25.2946 228.617L25.1976 228.596L25.1736 228.478L25.2366 228.315L25.3966 228.174L25.5746 227.96L25.7206 227.992L25.6416 228.133L25.6326 228.285L25.4266 228.371L25.3516 228.484ZM32.0336 229.639L32.1296 229.656L32.2536 229.635L32.2966 229.874L32.4406 230.006L32.4936 230.085L32.3376 230.168L32.0346 230.201L31.8926 230.135L31.7456 229.986L31.5866 230.027L31.5586 229.907L31.5306 229.872L31.4216 229.904L31.5236 230.059L31.2476 230.071L31.1606 230.052L31.0836 229.877L30.7996 229.541L30.8006 229.41L30.7036 229.254L31.1246 229.209L31.4126 228.934L31.5756 228.905L31.8876 229.349L31.8796 229.473L31.9486 229.595L32.0336 229.639ZM33.6766 230.361L34.2696 230.443L34.4096 230.408L34.5086 230.475L34.9996 230.517L35.0836 230.542L34.9836 230.696L34.6696 230.837L34.2176 230.713L33.4616 230.669L33.4926 230.55L33.5646 230.466L33.5756 230.319L33.6766 230.361ZM35.7166 231.207L35.7896 231.26L36.0886 231.18L36.3046 231.151L36.6666 231.348L36.7926 231.483L37.0306 231.627L37.1116 231.731L37.0456 231.857L36.7826 232.065L36.4246 232.113L36.2136 232.202L35.9366 232.183L35.8536 232.145L35.8236 231.881L35.7356 231.598L35.5566 231.631L35.3556 231.536L35.1476 231.298L35.1246 231.156L35.2396 230.93L35.4406 230.901L35.5896 231.026L35.7166 231.207ZM34.6986 231.685L34.5326 231.769L34.3516 231.73L34.3096 231.526L34.1356 231.267L34.4416 231.214L34.6136 231.289L34.7036 231.37L34.8126 231.509L34.6986 231.685ZM38.2586 236.908L38.1346 237.05L37.9796 237.039L37.4166 236.735L37.3486 236.572L37.3906 235.813L37.1796 235.197L36.9476 234.725L37.1166 234.483L37.3396 234.295L37.5886 233.941L37.3846 233.486L37.4366 233.211L37.5566 233.164L38.1446 233.498L39.3326 234L39.6486 234.353L39.7046 234.731L39.9206 234.779L40.0236 235.038L40.3356 235.265L40.4396 235.394L40.3106 235.602L39.7406 236.001L39.0216 236.175L38.3886 236.621L38.2586 236.908Z" fill="#FDA5A5"/>
</svg>
